<svg xmlns="http://www.w3.org/2000/svg" xmlns:xlink="http://www.w3.org/1999/xlink" viewBox="0 0 589.4 589.4" xmlns:v="https://vecta.io/nano"><path d="M589.4,294.7c0,162.8-132,294.7-294.7,294.7S0,457.5,0,294.7S131.9,0,294.7,0S589.4,131.9,589.4,294.7z" fill="#a00"/><g transform="matrix(8.3749 0 0 8.3749 -5250.6 -1896.6)"><path d="M650.6 267c-.3 0-.6.3-.6.7v11.9c0 1.1.7 2 1.5 2h21.4c.8 0 1.5-.9 1.5-2v-11.8c0-.4-.3-.7-.6-.7s-.6.3-.6.7v10.3c0 1.1-.6 1.9-1.3 1.9h-19.2c-.7 0-1.3-.9-1.3-1.9v-10.4c-.2-.4-.5-.7-.8-.7h0z"/><g transform="matrix(.33091 0 0 .33091 707.82 66.661)"><path d="M-138.8 523.8h1.9c15.7 0 28.3 12.7 28.3 28.3h0V605c0 15.7-12.7 28.3-28.3 28.3h-1.9c-15.7 0-28.3-12.7-28.3-28.3h0v-52.9c0-15.6 12.6-28.3 28.3-28.3h0"/><radialGradient id="A" cx="-298.444" cy="528.623" r="15.893" gradientTransform="matrix(10.1273 -0.4036 -0.9115 -13.6996 3357.6233 7703.083)" gradientUnits="userSpaceOnUse"><stop offset="0" stop-color="#fff"/><stop offset="1" stop-opacity="0"/></radialGradient><path d="M-140.9 527.6c11.3 0 20.5 9.5 20.5 21.3h0v61c0 11.7-9.2 21.3-20.5 21.3h0c-11.3 0-20.5-9.5-20.5-21.3h0v-61c0-11.8 9.2-21.3 20.5-21.3h0" fill="url(#A)"/><use xlink:href="#C"/><use xlink:href="#C" y="-7.6"/><use xlink:href="#C" y="-15.2"/><use xlink:href="#C" y="-22.8"/><use xlink:href="#C" y="-30.4"/><use xlink:href="#C" y="-38"/><use xlink:href="#C" y="-46"/><use xlink:href="#C" y="-54"/><use xlink:href="#C" x="12"/><use xlink:href="#C" x="12" y="-7.6"/><use xlink:href="#C" x="12" y="-15.2"/><use xlink:href="#C" x="12" y="-22.8"/><use xlink:href="#C" x="12" y="-30.4"/><use xlink:href="#C" x="12" y="-38"/><use xlink:href="#C" x="12" y="-46"/><use xlink:href="#C" x="12" y="-54"/><use xlink:href="#C" x="6" y="3.5"/><use xlink:href="#D"/><use xlink:href="#D" y="-7.7"/><use xlink:href="#D" y="-15.4"/><use xlink:href="#D" y="-23.1"/><use xlink:href="#D" y="-30.8"/><use xlink:href="#D" y="-38.5"/><use xlink:href="#D" y="-46.5"/><use xlink:href="#D" y="-54.5"/><use xlink:href="#C" x="18" y="3.5"/><use xlink:href="#D" x="12"/><use xlink:href="#D" x="12" y="-7.7"/><use xlink:href="#D" x="12" y="-15.4"/><use xlink:href="#D" x="12" y="-23.1"/><use xlink:href="#D" x="12" y="-30.8"/><use xlink:href="#D" x="12" y="-38.5"/><use xlink:href="#D" x="12" y="-46.5"/><use xlink:href="#D" x="12" y="-54.5"/><use xlink:href="#E"/><use xlink:href="#E" x="17.3" y="64.3"/><use xlink:href="#F"/><use xlink:href="#F" y="-7.7"/><use xlink:href="#F" y="-15.4"/><use xlink:href="#G"/><use xlink:href="#G" y="-7.7"/><use xlink:href="#G" y="-15.4"/><use xlink:href="#G" y="-23.4"/><use xlink:href="#G" y="-31.4"/><use xlink:href="#E" x="11.5" y="61.8"/><use xlink:href="#H"/><use xlink:href="#H" y="-7.7"/><use xlink:href="#H" y="-15.4"/><use xlink:href="#E" x="11.4" y="31"/><use xlink:href="#E" x="11.4" y="23.3"/><use xlink:href="#E" x="11.4" y="15.6"/><use xlink:href="#E" x="11.4" y="7.6"/><use xlink:href="#E" x="11.4" y="-0.4"/><path d="M-164.7 598.6h53.3c2.6 0 4.8.9 4.8 1.9 0 1.1-2.1 1.9-4.8 1.9h-53.3c-2.6 0-4.8-.9-4.8-1.9.1-1 2.2-1.9 4.8-1.9" fill="#b3b3b3" stroke="#000" stroke-width="1.933" stroke-miterlimit="11.0854"/><use xlink:href="#E" x="23.8" y="61.2"/><use xlink:href="#E" x="23.8" y="53.6"/><use xlink:href="#E" x="23.8" y="46"/><use xlink:href="#E" x="23.8" y="38.4"/><use xlink:href="#E" x="23.8" y="30.8"/><use xlink:href="#E" x="23.8" y="23.2"/><use xlink:href="#E" x="23.8" y="15.2"/><use xlink:href="#E" x="23.8" y="7.2"/><use xlink:href="#G" x="22" y="46.1"/><use xlink:href="#E" x="-22.9" y="79.6"/><path d="M-141.2 643.3h6.4c2.4 0 4.3 2.7 4.3 6.1h0v38.9c0 3.4-1.9 6.1-4.3 6.1h0-6.4c-2.4 0-4.3-2.7-4.3-6.1h0v-38.9c.1-3.4 2-6.1 4.3-6.1h0"/></g></g><defs ><path id="C" d="M-156.014 590.743c0 1.4-1 2.6-2.3 2.6s-2.3-1.2-2.3-2.6 1-2.6 2.3-2.6 2.3 1.1 2.3 2.6z"/><path id="D" d="M-150.014 586.543c0 1.4-1 2.6-2.3 2.6s-2.3-1.2-2.3-2.6 1-2.6 2.3-2.6c1.2 0 2.3 1.1 2.3 2.6z"/><path id="E" d="M-143.8 528.8c0 1.4-1 2.6-2.3 2.6s-2.3-1.2-2.3-2.6 1-2.6 2.3-2.6 2.3 1.2 2.3 2.6z"/><path id="F" d="M-126.5 585.4c0 1.4-1 2.6-2.3 2.6s-2.3-1.2-2.3-2.6 1-2.6 2.3-2.6c1.2.1 2.3 1.2 2.3 2.6z"/><path id="G" d="M-126.5 562.3c0 1.4-1 2.6-2.3 2.6s-2.3-1.2-2.3-2.6 1-2.6 2.3-2.6c1.2 0 2.3 1.2 2.3 2.6z"/><path id="H" d="M-132.4 582.9c0 1.4-1 2.6-2.3 2.6s-2.3-1.2-2.3-2.6 1-2.6 2.3-2.6c1.3.1 2.3 1.2 2.3 2.6z"/></defs></svg>