<svg xmlns="http://www.w3.org/2000/svg" width="26.85" height="26.85" xmlns:v="https://vecta.io/nano"><path d="M23.973 0H2.877C2.114 0 1.382.303.843.843S0 2.114 0 2.877v21.1a2.88 2.88 0 0 0 2.877 2.873h21.1c.763 0 1.495-.303 2.034-.843s.843-1.27.843-2.034v-21.1C26.853 2.1 26.55 1.38 26.01.84s-1.272-.84-2.036-.84zM11.525 5.753h3.8a.72.72 0 0 1 .718.758l-.443 8.152a.72.72 0 0 1-.718.68H11.97a.72.72 0 0 1-.718-.68l-.445-8.15a.72.72 0 0 1 .718-.759zm1.9 16.182a2.76 2.76 0 0 1-2.757-2.757 2.76 2.76 0 0 1 2.757-2.757 2.76 2.76 0 0 1 2.757 2.757 2.76 2.76 0 0 1-2.757 2.757z" fill="#be1622"/></svg>