<svg xmlns="http://www.w3.org/2000/svg" width="14.152" height="14.152" xmlns:v="https://vecta.io/nano"><path d="M7.076 0A7.08 7.08 0 0 0 0 7.076a7.08 7.08 0 0 0 7.076 7.076 7.08 7.08 0 0 0 7.076-7.076c0-1.877-.745-3.677-2.072-5.004S8.953 0 7.076 0zm-.913 1.45v.322c0 .158-.082.305-.217.39s-.303.1-.445.02l-.685-.342a5.76 5.76 0 0 1 1.347-.388zM7.076 12v.782a5.7 5.7 0 0 1-5.2-8.037l.987 1.458c.147.218.32.416.516.59l.023.02a4.16 4.16 0 0 0 .9.622l1.392.745a.91.91 0 0 1 .471.8v.913a.91.91 0 0 0 .268.645A2.14 2.14 0 0 1 7.076 12zm1.218.648l.5-1.338c.057-.157.094-.32.137-.482a.69.69 0 0 1 .177-.305l.322-.322c.25-.25.392-.588.39-.942a.87.87 0 0 0-.254-.616l-.39-.39a.91.91 0 0 0-.645-.268H6.62c-.268-.134-.613-.913-.913-.913S5.1 7 4.84 6.866l-.317-.157c-.115-.058-.187-.176-.188-.305a.34.34 0 0 1 .234-.322l.9-.3a.45.45 0 0 1 .442.088l.265.23c.04.036.093.057.148.057h.16a.23.23 0 0 0 .205-.331l-.445-.9c-.045-.09-.026-.196.046-.265l.282-.274c.042-.043.1-.066.16-.066h.257a.23.23 0 0 0 .163-.066l.228-.228a.23.23 0 0 0 0-.322l-.134-.134a.23.23 0 0 1 0-.322l.428-.428a.46.46 0 0 0 0-.645l-.807-.807c.07 0 .143-.01.217-.01a5.71 5.71 0 0 1 5.1 3.158l-.37.185a.71.71 0 0 0-.262.231l-.56.84a.68.68 0 0 0 0 .759l.514.77a.69.69 0 0 0 .4.285l.833.208c-.31 2.388-2.085 4.325-4.436 4.844z" fill="#be1622"/></svg>