<svg xmlns="http://www.w3.org/2000/svg" xmlns:xlink="http://www.w3.org/1999/xlink" viewBox="0 0 3840.3 954.9" xmlns:v="https://vecta.io/nano"><style><![CDATA[.a{opacity:.22}]]></style><defs><path id="A" d="M3840.3 152.8S3637.8 6.2 3010.9.1c-335.6-3.5-624.9 103-898.5 228.3-321.6 143.9-612.6 304.6-898.3 327.3C284.1 629.7 0 200.3 0 200.3v754.6h3840l.3-802.1z"/><path id="B" d="M1926.4-14.7h72.1c.2 0 .4 0 .4-.1v-40.4c-.1 0-.3-.1-.4-.1h-72.1c-.1 0-.3 0-.4.1v40.4c0 .1.2.1.4.1z"/><path id="C" d="M1926.4 131.1h72.5V90.6s-.2-.1-.4-.1h-72.1c-.2.1-.4.1-.4.1V131c.1.1.3.1.4.1z"/><path id="D" d="M1926.4 179.6h72.5v-40.4s-.2-.1-.4-.1h-72.1c-.2 0-.4 0-.4.1v40.4c.1 0 .3.1.4 0z"/><path id="E" d="M1926.4 276.8h72.5v-40.4s-.2-.1-.4-.1h-72.1c-.2 0-.4 0-.4.1v40.4h.4z"/><path id="F" d="M1926.4 325.4h72.5V285s-.2-.1-.4-.1h-72.1c-.2 0-.4 0-.4.1v40.4h.4z"/><path id="G" d="M2007.362-111.9h72.1c.2 0 .4 0 .4-.1v-40.4h-72.9v40.4c0 .1.2.1.4.1z"/><path id="H" d="M2007.362-63.3h72.1c.2 0 .4 0 .4-.1v-40.4c-.1 0-.3-.1-.4 0h-72.5v40.4c0 .1.2.1.4.1z"/><path id="I" d="M2007.362 33.9h72.1c.2 0 .4 0 .4-.1V-6.6c-.1 0-.3-.1-.4 0h-72.5v40.4c0 0 .2.1.4.1z"/><path id="J" d="M2007.362 82.5h72.1c.2 0 .4 0 .4-.1V42c-.1 0-.3-.1-.4 0h-72.5v40.4s.2.1.4.1z"/><path id="K" d="M2007.362 374h72.5v-40.4s-.2-.1-.4-.1h-72.1c-.2 0-.4 0-.4.1V374h.4z"/><path id="L" d="M2493.174-111.9h72.1c.2 0 .4 0 .4-.1v-40.4c-.1 0-.3-.1-.4-.1h-72.1c-.2.1-.3.1-.4.1v40.4c0 .1.1.1.4.1z"/><path id="M" d="M2493.174-63.3h72.1c.2 0 .4 0 .4-.1v-40.4c-.1 0-.3-.1-.4 0h-72.5v40.4c0 .1.1.1.4.1z"/><path id="N" d="M2493.174-14.7h72.1c.2 0 .4 0 .4-.1v-40.4c-.1 0-.3-.1-.4-.1h-72.1c-.1 0-.3 0-.4.1v40.4c0 .1.1.1.4.1z"/><path id="O" d="M2493.174 33.9h72.1c.2 0 .4 0 .4-.1V-6.6c-.1 0-.3-.1-.4 0h-72.5v40.4c0 0 .1.1.4.1z"/><path id="P" d="M2493.174 82.5h72.1c.2 0 .4 0 .4-.1V42c-.1 0-.3-.1-.4 0h-72.5v40.4s.1.1.4.1z"/><path id="Q" d="M2493.174 131.1h72.5V90.6s-.2-.1-.4-.1h-72.1c-.2 0-.4 0-.4.1V131c.1.1.2.1.4.1z"/><path id="R" d="M2493.174 179.6h72.5v-40.4s-.2-.1-.4-.1h-72.1c-.2 0-.4 0-.4.1v40.4c.1 0 .2.1.4 0z"/><path id="S" d="M3707.533 131.1h72.5V90.6s-.2-.1-.4-.1h-72.1c-.2 0-.4 0-.4.1V131c.2.1.3.1.4.1z"/><path id="T" d="M3707.533 179.6h72.5v-40.4s-.2-.1-.4-.1h-72.1c-.2 0-.4 0-.4.1v40.4c.2 0 .3.1.4 0z"/></defs><clipPath id="U"><use xlink:href="#A"/></clipPath><g transform="translate(0 -156.748)" clip-path="url(#U)"><g opacity=".16"><g fill="#474747" class="a"><path d="M1926.4-111.9h72.1c.2 0 .4 0 .4-.1v-40.4H1926v40.4c0 .1.2.1.4.1zm0 48.6h72.1c.2 0 .4 0 .4-.1v-40.4c-.1 0-.3-.1-.4 0H1926v40.4c0 .1.2.1.4.1z"/><use xlink:href="#B"/><path d="M1926.4 33.9h72.1c.2 0 .4 0 .4-.1V-6.6c-.1 0-.3-.1-.4 0H1926v40.4s.2.1.4.1zm0 48.6h72.1c.2 0 .4 0 .4-.1V42c-.1 0-.3-.1-.4 0H1926v40.4s.2.1.4.1z"/><use xlink:href="#C"/><use xlink:href="#D"/><path d="M1926.4 228.2h72.5v-40.4s-.2-.1-.4-.1h-72.1c-.2 0-.4 0-.4.1v40.4c.1 0 .3.1.4 0z"/><use xlink:href="#E"/><use xlink:href="#F"/></g><g fill="#3c3c3c" class="a"><use xlink:href="#G"/><use xlink:href="#H"/><path d="M2007.362-14.7h72.1c.2 0 .4 0 .4-.1v-40.4c-.1 0-.3-.1-.4-.1h-72.1c-.1 0-.3 0-.4.1v40.4c0 .1.2.1.4.1z"/><use xlink:href="#I"/><use xlink:href="#J"/><path d="M2007.362 131.1h72.5V90.6s-.2-.1-.4-.1h-72.1c-.2.1-.4.1-.4.1V131c.1.1.3.1.4.1zm0 48.5h72.5v-40.4s-.2-.1-.4-.1h-72.1c-.2 0-.4 0-.4.1v40.4c.1 0 .3.1.4 0zm0 48.6h72.5v-40.4s-.2-.1-.4-.1h-72.1c-.2 0-.4 0-.4.1v40.4c.1 0 .3.1.4 0zm0 48.6h72.5v-40.4s-.2-.1-.4-.1h-72.1c-.2 0-.4 0-.4.1v40.4h.4zm0 48.6h72.5V285s-.2-.1-.4-.1h-72.1c-.2 0-.4 0-.4.1v40.4h.4z"/><use xlink:href="#K"/></g><g fill="#595959" class="a"><path d="M2088.325-111.9h72.1c.2 0 .4 0 .4-.1v-40.4h-72.9v40.4c0 .1.2.1.4.1zm0 48.6h72.1c.2 0 .4 0 .4-.1v-40.4c-.1 0-.3-.1-.4 0h-72.5v40.4c0 .1.2.1.4.1zm0 48.6h72.1c.2 0 .4 0 .4-.1v-40.4c-.1 0-.3-.1-.4-.1h-72.1c-.1 0-.3 0-.4.1v40.4c0 .1.2.1.4.1zm0 48.6h72.1c.2 0 .4 0 .4-.1V-6.6c-.1 0-.3-.1-.4 0h-72.5v40.4s.2.1.4.1zm0 48.6h72.1c.2 0 .4 0 .4-.1V42c-.1 0-.3-.1-.4 0h-72.5v40.4s.2.1.4.1zm0 48.6h72.5V90.6s-.2-.1-.4-.1h-72.1c-.2.1-.4.1-.4.1V131c.1.1.3.1.4.1zm0 48.5h72.5v-40.4s-.2-.1-.4-.1h-72.1c-.2 0-.4 0-.4.1v40.4c.1 0 .3.1.4 0zm0 48.6h72.5v-40.4s-.2-.1-.4-.1h-72.1c-.2 0-.4 0-.4.1v40.4c.1 0 .3.1.4 0zm0 48.6h72.5v-40.4s-.2-.1-.4-.1h-72.1c-.2 0-.4 0-.4.1v40.4h.4z"/></g><g fill="#909090" class="a"><path d="M2169.287-111.9h72.1c.2 0 .4 0 .4-.1v-40.4h-72.9v40.4c0 .1.2.1.4.1zm0 48.6h72.1c.2 0 .4 0 .4-.1v-40.4c-.1 0-.3-.1-.4 0h-72.5v40.4c0 .1.2.1.4.1zm0 48.6h72.1c.2 0 .4 0 .4-.1v-40.4c-.1 0-.3-.1-.4-.1h-72.1c-.1 0-.3 0-.4.1v40.4c0 .1.2.1.4.1zm0 48.6h72.1c.2 0 .4 0 .4-.1V-6.6c-.1 0-.3-.1-.4 0h-72.5v40.4s.2.1.4.1zm0 48.6h72.1c.2 0 .4 0 .4-.1V42c-.1 0-.3-.1-.4 0h-72.5v40.4s.2.1.4.1zm0 48.6h72.5V90.6s-.2-.1-.4-.1h-72.1c-.2.1-.4.1-.4.1V131c.1.1.3.1.4.1zm0 48.5h72.5v-40.4s-.2-.1-.4-.1h-72.1c-.2 0-.4 0-.4.1v40.4c.1 0 .3.1.4 0zm0 48.6h72.5v-40.4s-.2-.1-.4-.1h-72.1c-.2 0-.4 0-.4.1v40.4c.1 0 .3.1.4 0z"/></g><g fill="#8f8f8f" class="a"><path d="M2250.25-111.9h72.1c.2 0 .4 0 .4-.1v-40.4h-72.9v40.4c0 .1.2.1.4.1zm0 48.6h72.1c.2 0 .4 0 .4-.1v-40.4c-.1 0-.3-.1-.4 0h-72.5v40.4c0 .1.2.1.4.1zm0 48.6h72.1c.2 0 .4 0 .4-.1v-40.4c-.1 0-.3-.1-.4-.1h-72.1c-.1 0-.3 0-.4.1v40.4c0 .1.2.1.4.1zm0 48.6h72.1c.2 0 .4 0 .4-.1V-6.6c-.1 0-.3-.1-.4 0h-72.5v40.4s.2.1.4.1zm0 48.6h72.1c.2 0 .4 0 .4-.1V42c-.1 0-.3-.1-.4 0h-72.5v40.4s.2.1.4.1zm0 48.6h72.5V90.6s-.2-.1-.4-.1h-72.1c-.2.1-.4.1-.4.1V131c.1.1.3.1.4.1zm0 48.5h72.5v-40.4s-.2-.1-.4-.1h-72.1c-.2 0-.4 0-.4.1v40.4c.1 0 .3.1.4 0zm0 48.6h72.5v-40.4s-.2-.1-.4-.1h-72.1c-.2 0-.4 0-.4.1v40.4c.1 0 .3.1.4 0zm0 48.6h72.5v-40.4s-.2-.1-.4-.1h-72.1c-.2 0-.4 0-.4.1v40.4h.4zm0 48.6h72.5V285s-.2-.1-.4-.1h-72.1c-.2 0-.4 0-.4.1v40.4h.4z"/></g><g fill="#3a3a3a" class="a"><path d="M2331.212-111.9h72.1c.2 0 .4 0 .4-.1v-40.4h-72.9v40.4c0 .1.2.1.4.1zm0 48.6h72.1c.2 0 .4 0 .4-.1v-40.4c-.1 0-.3-.1-.4 0h-72.5v40.4c0 .1.2.1.4.1zm0 48.6h72.1c.2 0 .4 0 .4-.1v-40.4c-.1 0-.3-.1-.4-.1h-72.1c-.1 0-.3 0-.4.1v40.4c0 .1.2.1.4.1zm0 48.6h72.1c.2 0 .4 0 .4-.1V-6.6c-.1 0-.3-.1-.4 0h-72.5v40.4s.2.1.4.1zm0 48.6h72.1c.2 0 .4 0 .4-.1V42c-.1 0-.3-.1-.4 0h-72.5v40.4s.2.1.4.1zm0 48.6h72.5V90.6s-.2-.1-.4-.1h-72.1c-.2.1-.4.1-.4.1V131c.1.1.3.1.4.1zm0 48.5h72.5v-40.4s-.2-.1-.4-.1h-72.1c-.2 0-.4 0-.4.1v40.4c.1 0 .3.1.4 0zm0 48.6h72.5v-40.4s-.2-.1-.4-.1h-72.1c-.2 0-.4 0-.4.1v40.4c.1 0 .3.1.4 0zm0 48.6h72.5v-40.4s-.2-.1-.4-.1h-72.1c-.2 0-.4 0-.4.1v40.4h.4z"/></g><g fill="#6a6a6a" class="a"><path d="M2412.174-111.9h72.1c.2 0 .4 0 .4-.1v-40.4h-72.9v40.4c0 .1.2.1.4.1zm0 48.6h72.1c.2 0 .4 0 .4-.1v-40.4c-.1 0-.3-.1-.4 0h-72.5v40.4c0 .1.2.1.4.1zm0 48.6h72.1c.2 0 .4 0 .4-.1v-40.4c-.1 0-.3-.1-.4-.1h-72.1c-.1 0-.3 0-.4.1v40.4c0 .1.2.1.4.1zm0 48.6h72.1c.2 0 .4 0 .4-.1V-6.6c-.1 0-.3-.1-.4 0h-72.5v40.4s.2.1.4.1zm0 48.6h72.1c.2 0 .4 0 .4-.1V42c-.1 0-.3-.1-.4 0h-72.5v40.4s.2.1.4.1zm0 48.6h72.5V90.6s-.2-.1-.4-.1h-72.1c-.2.1-.4.1-.4.1V131c.1.1.3.1.4.1zm0 48.5h72.5v-40.4s-.2-.1-.4-.1h-72.1c-.2 0-.4 0-.4.1v40.4c.1 0 .3.1.4 0zm0 48.6h72.5v-40.4s-.2-.1-.4-.1h-72.1c-.2 0-.4 0-.4.1v40.4c.1 0 .3.1.4 0z"/><use xlink:href="#L"/><use xlink:href="#M"/><use xlink:href="#N"/><use xlink:href="#O"/><use xlink:href="#P"/><use xlink:href="#Q"/><use xlink:href="#R"/><path d="M2493.174 228.2h72.5v-40.4s-.2-.1-.4-.1h-72.1c-.2 0-.4 0-.4.1v40.4c.1 0 .2.1.4 0zm0 48.6h72.5v-40.4s-.2-.1-.4-.1h-72.1c-.2 0-.4 0-.4.1v40.4h.4z"/></g><g fill="#9c9c9c" class="a"><path d="M2574.1-111.9h72.1c.2 0 .4 0 .4-.1v-40.4h-72.9v40.4c0 .1.2.1.4.1zm0 48.6h72.1c.2 0 .4 0 .4-.1v-40.4c-.1 0-.3-.1-.4 0h-72.5v40.4c0 .1.2.1.4.1zm0 48.6h72.1c.2 0 .4 0 .4-.1v-40.4c-.1 0-.3-.1-.4-.1h-72.1c-.1 0-.3 0-.4.1v40.4c0 .1.2.1.4.1zm0 48.6h72.1c.2 0 .4 0 .4-.1V-6.6c-.1 0-.3-.1-.4 0h-72.5v40.4s.2.1.4.1zm0 48.6h72.1c.2 0 .4 0 .4-.1V42c-.1 0-.3-.1-.4 0h-72.5v40.4s.2.1.4.1zm0 48.6h72.5V90.6s-.2-.1-.4-.1h-72.1c-.2.1-.4.1-.4.1V131c.1.1.3.1.4.1zm0 48.5h72.5v-40.4s-.2-.1-.4-.1h-72.1c-.2 0-.4 0-.4.1v40.4c.1 0 .3.1.4 0zm0 48.6h72.5v-40.4s-.2-.1-.4-.1h-72.1c-.2 0-.4 0-.4.1v40.4c.1 0 .3.1.4 0zm0 48.6h72.5v-40.4s-.2-.1-.4-.1h-72.1c-.2 0-.4 0-.4.1v40.4h.4zm0 48.6h72.5V285s-.2-.1-.4-.1h-72.1c-.2 0-.4 0-.4.1v40.4h.4z"/></g><g fill="#898989" class="a"><path d="M2655.06-111.9h72.1c.2 0 .4 0 .4-.1v-40.4h-72.9v40.4c0 .1.2.1.4.1zm0 48.6h72.1c.2 0 .4 0 .4-.1v-40.4c-.1 0-.3-.1-.4 0h-72.5v40.4c0 .1.2.1.4.1zm0 48.6h72.1c.2 0 .4 0 .4-.1v-40.4c-.1 0-.3-.1-.4-.1h-72.1c-.1 0-.3 0-.4.1v40.4c0 .1.2.1.4.1zm0 48.6h72.1c.2 0 .4 0 .4-.1V-6.6c-.1 0-.3-.1-.4 0h-72.5v40.4s.2.1.4.1zm0 48.6h72.1c.2 0 .4 0 .4-.1V42c-.1 0-.3-.1-.4 0h-72.5v40.4s.2.1.4.1zm0 48.6h72.5V90.6s-.2-.1-.4-.1h-72.1c-.2.1-.4.1-.4.1V131c.1.1.3.1.4.1zm0 48.5h72.5v-40.4s-.2-.1-.4-.1h-72.1c-.2 0-.4 0-.4.1v40.4c.1 0 .3.1.4 0zm0 48.6h72.5v-40.4s-.2-.1-.4-.1h-72.1c-.2 0-.4 0-.4.1v40.4c.1 0 .3.1.4 0zm0 48.6h72.5v-40.4s-.2-.1-.4-.1h-72.1c-.2 0-.4 0-.4.1v40.4h.4zm0 48.6h72.5V285s-.2-.1-.4-.1h-72.1c-.2 0-.4 0-.4.1v40.4h.4zm0 48.6h72.5v-40.4s-.2-.1-.4-.1h-72.1c-.2 0-.4 0-.4.1V374h.4zm0 48.6h72.5v-40.4s-.2-.1-.4-.1h-72.1c-.2 0-.4 0-.4.1v40.4h.4z"/></g><g fill="#e3e3e3"><path d="M2736.023-111.9h72.1c.2 0 .4 0 .4-.1v-40.4h-72.9v40.4c0 .1.2.1.4.1zm0 48.6h72.1c.2 0 .4 0 .4-.1v-40.4c-.1 0-.3-.1-.4 0h-72.5v40.4c0 .1.2.1.4.1zm0 48.6h72.1c.2 0 .4 0 .4-.1v-40.4c-.1 0-.3-.1-.4-.1h-72.1c-.1 0-.3 0-.4.1v40.4c0 .1.2.1.4.1zm0 48.6h72.1c.2 0 .4 0 .4-.1V-6.6c-.1 0-.3-.1-.4 0h-72.5v40.4s.2.1.4.1zm0 48.6h72.1c.2 0 .4 0 .4-.1V42c-.1 0-.3-.1-.4 0h-72.5v40.4s.2.1.4.1zm0 48.6h72.5V90.6s-.2-.1-.4-.1h-72.1c-.2.1-.4.1-.4.1V131c.1.1.3.1.4.1zm0 48.5h72.5v-40.4s-.2-.1-.4-.1h-72.1c-.2 0-.4 0-.4.1v40.4c.1 0 .3.1.4 0zm0 48.6h72.5v-40.4s-.2-.1-.4-.1h-72.1c-.2 0-.4 0-.4.1v40.4c.1 0 .3.1.4 0zm0 48.6h72.5v-40.4s-.2-.1-.4-.1h-72.1c-.2 0-.4 0-.4.1v40.4h.4zm0 48.6h72.5V285s-.2-.1-.4-.1h-72.1c-.2 0-.4 0-.4.1v40.4h.4z"/></g><g fill="#cecece"><path d="M2816.986-111.9h72.1c.2 0 .4 0 .4-.1v-40.4h-72.9v40.4c0 .1.2.1.4.1zm0 48.6h72.1c.2 0 .4 0 .4-.1v-40.4c-.1 0-.3-.1-.4 0h-72.5v40.4c0 .1.2.1.4.1zm0 48.6h72.1c.2 0 .4 0 .4-.1v-40.4c-.1 0-.3-.1-.4-.1h-72.1c-.1 0-.3 0-.4.1v40.4c0 .1.2.1.4.1zm0 48.6h72.1c.2 0 .4 0 .4-.1V-6.6c-.1 0-.3-.1-.4 0h-72.5v40.4s.2.1.4.1zm0 48.6h72.1c.2 0 .4 0 .4-.1V42c-.1 0-.3-.1-.4 0h-72.5v40.4s.2.1.4.1zm0 48.6h72.5V90.6s-.2-.1-.4-.1h-72.1c-.2.1-.4.1-.4.1V131c.1.1.3.1.4.1zm0 48.5h72.5v-40.4s-.2-.1-.4-.1h-72.1c-.2 0-.4 0-.4.1v40.4c.1 0 .3.1.4 0zm0 48.6h72.5v-40.4s-.2-.1-.4-.1h-72.1c-.2 0-.4 0-.4.1v40.4c.1 0 .3.1.4 0zm0 48.6h72.5v-40.4s-.2-.1-.4-.1h-72.1c-.2 0-.4 0-.4.1v40.4h.4zm0 48.6h72.5V285s-.2-.1-.4-.1h-72.1c-.2 0-.4 0-.4.1v40.4h.4zm0 48.6h72.5v-40.4s-.2-.1-.4-.1h-72.1c-.2 0-.4 0-.4.1V374h.4z"/></g><g fill="#dadada"><path d="M2897.948-111.9h72.1c.2 0 .4 0 .4-.1v-40.4h-72.9v40.4c0 .1.2.1.4.1zm0 48.6h72.1c.2 0 .4 0 .4-.1v-40.4c-.1 0-.3-.1-.4 0h-72.5v40.4c0 .1.2.1.4.1zm0 48.6h72.1c.2 0 .4 0 .4-.1v-40.4c-.1 0-.3-.1-.4-.1h-72.1c-.1 0-.3 0-.4.1v40.4c0 .1.2.1.4.1zm0 48.6h72.1c.2 0 .4 0 .4-.1V-6.6c-.1 0-.3-.1-.4 0h-72.5v40.4s.2.1.4.1zm0 48.6h72.1c.2 0 .4 0 .4-.1V42c-.1 0-.3-.1-.4 0h-72.5v40.4s.2.1.4.1zm0 48.6h72.5V90.6s-.2-.1-.4-.1h-72.1c-.2.1-.4.1-.4.1V131c.1.1.3.1.4.1zm0 48.5h72.5v-40.4s-.2-.1-.4-.1h-72.1c-.2 0-.4 0-.4.1v40.4c.1 0 .3.1.4 0zm0 48.6h72.5v-40.4s-.2-.1-.4-.1h-72.1c-.2 0-.4 0-.4.1v40.4c.1 0 .3.1.4 0z"/></g><g fill="#b4b4b4"><path d="M2978.9-111.9h72.1c.2 0 .4 0 .4-.1v-40.4h-72.9v40.4c0 .1.2.1.4.1zm0 48.6h72.1c.2 0 .4 0 .4-.1v-40.4c-.1 0-.3-.1-.4 0h-72.5v40.4c0 .1.2.1.4.1zm0 48.6h72.1c.2 0 .4 0 .4-.1v-40.4c-.1 0-.3-.1-.4-.1h-72.1c-.1 0-.3 0-.4.1v40.4c0 .1.2.1.4.1zm0 48.6h72.1c.2 0 .4 0 .4-.1V-6.6c-.1 0-.3-.1-.4 0h-72.5v40.4s.2.1.4.1zm0 48.6h72.1c.2 0 .4 0 .4-.1V42c-.1 0-.3-.1-.4 0h-72.5v40.4s.2.1.4.1zm0 48.6h72.5V90.6s-.2-.1-.4-.1h-72.1c-.2.1-.4.1-.4.1V131c.1.1.3.1.4.1zm0 48.5h72.5v-40.4s-.2-.1-.4-.1h-72.1c-.2 0-.4 0-.4.1v40.4c.1 0 .3.1.4 0zm0 48.6h72.5v-40.4s-.2-.1-.4-.1h-72.1c-.2 0-.4 0-.4.1v40.4c.1 0 .3.1.4 0zm0 48.6h72.5v-40.4s-.2-.1-.4-.1h-72.1c-.2 0-.4 0-.4.1v40.4h.4zm0 48.6h72.5V285s-.2-.1-.4-.1h-72.1c-.2 0-.4 0-.4.1v40.4h.4z"/></g><g fill="#d1d1d1"><path d="M3059.873-111.9h72.1c.2 0 .4 0 .4-.1v-40.4h-72.9v40.4c0 .1.2.1.4.1zm0 48.6h72.1c.2 0 .4 0 .4-.1v-40.4c-.1 0-.3-.1-.4 0h-72.5v40.4c0 .1.2.1.4.1zm0 48.6h72.1c.2 0 .4 0 .4-.1v-40.4c-.1 0-.3-.1-.4-.1h-72.1c-.1 0-.3 0-.4.1v40.4c0 .1.2.1.4.1zm0 48.6h72.1c.2 0 .4 0 .4-.1V-6.6c-.1 0-.3-.1-.4 0h-72.5v40.4s.2.1.4.1zm0 48.6h72.1c.2 0 .4 0 .4-.1V42c-.1 0-.3-.1-.4 0h-72.5v40.4s.2.1.4.1zm0 48.6h72.5V90.6s-.2-.1-.4-.1h-72.1c-.2.1-.4.1-.4.1V131c.1.1.3.1.4.1zm0 48.5h72.5v-40.4s-.2-.1-.4-.1h-72.1c-.2 0-.4 0-.4.1v40.4c.1 0 .3.1.4 0zm0 48.6h72.5v-40.4s-.2-.1-.4-.1h-72.1c-.2 0-.4 0-.4.1v40.4c.1 0 .3.1.4 0zm0 48.6h72.5v-40.4s-.2-.1-.4-.1h-72.1c-.2 0-.4 0-.4.1v40.4h.4zm0 48.6h72.5V285s-.2-.1-.4-.1h-72.1c-.2 0-.4 0-.4.1v40.4h.4zm0 48.6h72.5v-40.4s-.2-.1-.4-.1h-72.1c-.2 0-.4 0-.4.1V374h.4zm0 48.6h72.5v-40.4s-.2-.1-.4-.1h-72.1c-.2 0-.4 0-.4.1v40.4h.4z"/></g><g fill="#767676"><path d="M3140.835-111.9h72.1c.2 0 .4 0 .4-.1v-40.4h-72.9v40.4c0 .1.2.1.4.1zm0 48.6h72.1c.2 0 .4 0 .4-.1v-40.4c-.1 0-.3-.1-.4 0h-72.5v40.4c0 .1.2.1.4.1zm0 48.6h72.1c.2 0 .4 0 .4-.1v-40.4c-.1 0-.3-.1-.4-.1h-72.1c-.1 0-.3 0-.4.1v40.4c0 .1.2.1.4.1zm0 48.6h72.1c.2 0 .4 0 .4-.1V-6.6c-.1 0-.3-.1-.4 0h-72.5v40.4s.2.1.4.1zm0 48.6h72.1c.2 0 .4 0 .4-.1V42c-.1 0-.3-.1-.4 0h-72.5v40.4s.2.1.4.1zm0 48.6h72.5V90.6s-.2-.1-.4-.1h-72.1c-.2.1-.4.1-.4.1V131c.1.1.3.1.4.1zm0 48.5h72.5v-40.4s-.2-.1-.4-.1h-72.1c-.2 0-.4 0-.4.1v40.4c.1 0 .3.1.4 0zm0 48.6h72.5v-40.4s-.2-.1-.4-.1h-72.1c-.2 0-.4 0-.4.1v40.4c.1 0 .3.1.4 0zm0 48.6h72.5v-40.4s-.2-.1-.4-.1h-72.1c-.2 0-.4 0-.4.1v40.4h.4z"/></g><g fill="#656565"><path d="M3221.797-111.9h72.1c.2 0 .4 0 .4-.1v-40.4h-72.9v40.4c0 .1.2.1.4.1zm0 48.6h72.1c.2 0 .4 0 .4-.1v-40.4c-.1 0-.3-.1-.4 0h-72.5v40.4c0 .1.2.1.4.1zm0 48.6h72.1c.2 0 .4 0 .4-.1v-40.4c-.1 0-.3-.1-.4-.1h-72.1c-.1 0-.3 0-.4.1v40.4c0 .1.2.1.4.1zm0 48.6h72.1c.2 0 .4 0 .4-.1V-6.6c-.1 0-.3-.1-.4 0h-72.5v40.4s.2.1.4.1zm0 48.6h72.1c.2 0 .4 0 .4-.1V42c-.1 0-.3-.1-.4 0h-72.5v40.4s.2.1.4.1zm0 48.6h72.5V90.6s-.2-.1-.4-.1h-72.1c-.2.1-.4.1-.4.1V131c.1.1.3.1.4.1zm0 48.5h72.5v-40.4s-.2-.1-.4-.1h-72.1c-.2 0-.4 0-.4.1v40.4c.1 0 .3.1.4 0zm0 48.6h72.5v-40.4s-.2-.1-.4-.1h-72.1c-.2 0-.4 0-.4.1v40.4c.1 0 .3.1.4 0zm0 48.6h72.5v-40.4s-.2-.1-.4-.1h-72.1c-.2 0-.4 0-.4.1v40.4h.4zm0 48.6h72.5V285s-.2-.1-.4-.1h-72.1c-.2 0-.4 0-.4.1v40.4h.4z"/></g><g fill="#868686"><path d="M3302.76-111.9h72.1c.2 0 .4 0 .4-.1v-40.4h-72.9v40.4c0 .1.2.1.4.1zm0 48.6h72.1c.2 0 .4 0 .4-.1v-40.4c-.1 0-.3-.1-.4 0h-72.5v40.4c0 .1.2.1.4.1zm0 48.6h72.1c.2 0 .4 0 .4-.1v-40.4c-.1 0-.3-.1-.4-.1h-72.1c-.1 0-.3 0-.4.1v40.4c0 .1.2.1.4.1zm0 48.6h72.1c.2 0 .4 0 .4-.1V-6.6c-.1 0-.3-.1-.4 0h-72.5v40.4s.2.1.4.1zm0 48.6h72.1c.2 0 .4 0 .4-.1V42c-.1 0-.3-.1-.4 0h-72.5v40.4s.2.1.4.1zm0 48.6h72.5V90.6s-.2-.1-.4-.1h-72.1c-.2.1-.4.1-.4.1V131c.1.1.3.1.4.1zm0 48.5h72.5v-40.4s-.2-.1-.4-.1h-72.1c-.2 0-.4 0-.4.1v40.4c.1 0 .3.1.4 0zm0 48.6h72.5v-40.4s-.2-.1-.4-.1h-72.1c-.2 0-.4 0-.4.1v40.4c.1 0 .3.1.4 0zm0 48.6h72.5v-40.4s-.2-.1-.4-.1h-72.1c-.2 0-.4 0-.4.1v40.4h.4zm0 48.6h72.5V285s-.2-.1-.4-.1h-72.1c-.2 0-.4 0-.4.1v40.4h.4zm0 48.6h72.5v-40.4s-.2-.1-.4-.1h-72.1c-.2 0-.4 0-.4.1V374h.4zm0 48.6h72.5v-40.4s-.2-.1-.4-.1h-72.1c-.2 0-.4 0-.4.1v40.4h.4z"/></g><g fill="#a2a2a2"><path d="M3383.722-111.9h72.1c.2 0 .4 0 .4-.1v-40.4h-72.9v40.4c0 .1.2.1.4.1zm0 48.6h72.1c.2 0 .4 0 .4-.1v-40.4c-.1 0-.3-.1-.4 0h-72.5v40.4c0 .1.2.1.4.1zm0 48.6h72.1c.2 0 .4 0 .4-.1v-40.4c-.1 0-.3-.1-.4-.1h-72.1c-.1 0-.3 0-.4.1v40.4c0 .1.2.1.4.1zm0 48.6h72.1c.2 0 .4 0 .4-.1V-6.6c-.1 0-.3-.1-.4 0h-72.5v40.4s.2.1.4.1zm0 48.6h72.1c.2 0 .4 0 .4-.1V42c-.1 0-.3-.1-.4 0h-72.5v40.4s.2.1.4.1zm0 48.6h72.5V90.6s-.2-.1-.4-.1h-72.1c-.2.1-.4.1-.4.1V131c.1.1.3.1.4.1zm0 48.5h72.5v-40.4s-.2-.1-.4-.1h-72.1c-.2 0-.4 0-.4.1v40.4c.1 0 .3.1.4 0zm0 48.6h72.5v-40.4s-.2-.1-.4-.1h-72.1c-.2 0-.4 0-.4.1v40.4c.1 0 .3.1.4 0zm0 48.6h72.5v-40.4s-.2-.1-.4-.1h-72.1c-.2 0-.4 0-.4.1v40.4h.4zm0 48.6h72.5V285s-.2-.1-.4-.1h-72.1c-.2 0-.4 0-.4.1v40.4h.4zm0 48.6h72.5v-40.4s-.2-.1-.4-.1h-72.1c-.2 0-.4 0-.4.1V374h.4z"/></g><g fill="#b2b2b2"><path d="M3464.685-111.9h72.1c.2 0 .4 0 .4-.1v-40.4h-72.9v40.4c0 .1.2.1.4.1zm0 48.6h72.1c.2 0 .4 0 .4-.1v-40.4c-.1 0-.3-.1-.4 0h-72.5v40.4c0 .1.2.1.4.1zm0 48.6h72.1c.2 0 .4 0 .4-.1v-40.4c-.1 0-.3-.1-.4-.1h-72.1c-.1 0-.3 0-.4.1v40.4c0 .1.2.1.4.1zm0 48.6h72.1c.2 0 .4 0 .4-.1V-6.6c-.1 0-.3-.1-.4 0h-72.5v40.4s.2.1.4.1zm0 48.6h72.1c.2 0 .4 0 .4-.1V42c-.1 0-.3-.1-.4 0h-72.5v40.4s.2.1.4.1zm0 48.6h72.5V90.6s-.2-.1-.4-.1h-72.1c-.2.1-.4.1-.4.1V131c.1.1.3.1.4.1zm0 48.5h72.5v-40.4s-.2-.1-.4-.1h-72.1c-.2 0-.4 0-.4.1v40.4c.1 0 .3.1.4 0zm0 48.6h72.5v-40.4s-.2-.1-.4-.1h-72.1c-.2 0-.4 0-.4.1v40.4c.1 0 .3.1.4 0zm0 48.6h72.5v-40.4s-.2-.1-.4-.1h-72.1c-.2 0-.4 0-.4.1v40.4h.4zm0 48.6h72.5V285s-.2-.1-.4-.1h-72.1c-.2 0-.4 0-.4.1v40.4h.4z"/></g><g fill="#888"><path d="M3545.647-111.9h72.1c.2 0 .4 0 .4-.1v-40.4h-72.9v40.4c0 .1.2.1.4.1zm0 48.6h72.1c.2 0 .4 0 .4-.1v-40.4c-.1 0-.3-.1-.4 0h-72.5v40.4c0 .1.2.1.4.1zm0 48.6h72.1c.2 0 .4 0 .4-.1v-40.4c-.1 0-.3-.1-.4-.1h-72.1c-.1 0-.3 0-.4.1v40.4c0 .1.2.1.4.1zm0 48.6h72.1c.2 0 .4 0 .4-.1V-6.6c-.1 0-.3-.1-.4 0h-72.5v40.4s.2.1.4.1zm0 48.6h72.1c.2 0 .4 0 .4-.1V42c-.1 0-.3-.1-.4 0h-72.5v40.4s.2.1.4.1zm0 48.6h72.5V90.6s-.2-.1-.4-.1h-72.1c-.2.1-.4.1-.4.1V131c.1.1.3.1.4.1zm0 48.5h72.5v-40.4s-.2-.1-.4-.1h-72.1c-.2 0-.4 0-.4.1v40.4c.1 0 .3.1.4 0zm0 48.6h72.5v-40.4s-.2-.1-.4-.1h-72.1c-.2 0-.4 0-.4.1v40.4c.1 0 .3.1.4 0zm0 48.6h72.5v-40.4s-.2-.1-.4-.1h-72.1c-.2 0-.4 0-.4.1v40.4h.4z"/></g><g fill="#5e5e5e"><path d="M3626.6-111.9h72.1c.2 0 .4 0 .4-.1v-40.4h-72.9v40.4c0 .1.2.1.4.1zm0 48.6h72.1c.2 0 .4 0 .4-.1v-40.4c-.1 0-.3-.1-.4 0h-72.5v40.4c0 .1.2.1.4.1zm0 48.6h72.1c.2 0 .4 0 .4-.1v-40.4c-.1 0-.3-.1-.4-.1h-72.1c-.1 0-.3 0-.4.1v40.4c0 .1.2.1.4.1zm0 48.6h72.1c.2 0 .4 0 .4-.1V-6.6c-.1 0-.3-.1-.4 0h-72.5v40.4s.2.1.4.1zm0 48.6h72.1c.2 0 .4 0 .4-.1V42c-.1 0-.3-.1-.4 0h-72.5v40.4s.2.1.4.1zm0 48.6h72.5V90.6s-.2-.1-.4-.1h-72.1c-.2.1-.4.1-.4.1V131c.1.1.3.1.4.1zm0 48.5h72.5v-40.4s-.2-.1-.4-.1h-72.1c-.2 0-.4 0-.4.1v40.4c.1 0 .3.1.4 0zm0 48.6h72.5v-40.4s-.2-.1-.4-.1h-72.1c-.2 0-.4 0-.4.1v40.4c.1 0 .3.1.4 0zm0 48.6h72.5v-40.4s-.2-.1-.4-.1h-72.1c-.2 0-.4 0-.4.1v40.4h.4zm0 48.6h72.5V285s-.2-.1-.4-.1h-72.1c-.2 0-.4 0-.4.1v40.4h.4z"/></g><g fill="#181818"><path d="M3707.533-111.9h72.1c.2 0 .4 0 .4-.1v-40.4h-72.9v40.4c0 .1.2.1.4.1zm0 48.6h72.1c.2 0 .4 0 .4-.1v-40.4c-.1 0-.3-.1-.4 0h-72.5v40.4c0 .1.2.1.4.1zm0 48.6h72.1c.2 0 .4 0 .4-.1v-40.4c-.1 0-.3-.1-.4-.1h-72.1c-.1 0-.3 0-.4.1v40.4c0 .1.2.1.4.1zm0 48.6h72.1c.2 0 .4 0 .4-.1V-6.6c-.1 0-.3-.1-.4 0h-72.5v40.4s.2.1.4.1zm0 48.6h72.1c.2 0 .4 0 .4-.1V42c-.1 0-.3-.1-.4 0h-72.5v40.4s.2.1.4.1z"/><use xlink:href="#S"/><use xlink:href="#T"/><path d="M3707.533 228.2h72.5v-40.4s-.2-.1-.4-.1h-72.1c-.2 0-.4 0-.4.1v40.4c.2 0 .3.1.4 0zm0 48.6h72.5v-40.4s-.2-.1-.4-.1h-72.1c-.2 0-.4 0-.4.1v40.4h.4zm-3.2 48.6h72.5V285s-.2-.1-.4-.1h-72.1c-.2 0-.4 0-.4.1v40.4h.4zm3.2 48.6h72.5v-40.4s-.2-.1-.4-.1h-72.1c-.2 0-.4 0-.4.1V374h.4z"/></g><g fill="#0c0c0c"><path d="M3788.534-111.9h72.1c.2 0 .4 0 .4-.1v-40.4h-72.9v40.4c0 .1.2.1.4.1zm0 48.6h72.1c.2 0 .4 0 .4-.1v-40.4c-.1 0-.3-.1-.4 0h-72.5v40.4c0 .1.2.1.4.1zm0 48.6h72.1c.2 0 .4 0 .4-.1v-40.4c-.1 0-.3-.1-.4-.1h-72.1c-.1 0-.3 0-.4.1v40.4c0 .1.2.1.4.1zm0 48.6h72.1c.2 0 .4 0 .4-.1V-6.6c-.1 0-.3-.1-.4 0h-72.5v40.4s.2.1.4.1zm0 48.6h72.1c.2 0 .4 0 .4-.1V42c-.1 0-.3-.1-.4 0h-72.5v40.4s.2.1.4.1zm0 48.6h72.5V90.6s-.2-.1-.4-.1h-72.1c-.2.1-.4.1-.4.1V131c.1.1.3.1.4.1zm0 48.5h72.5v-40.4s-.2-.1-.4-.1h-72.1c-.2 0-.4 0-.4.1v40.4c.1 0 .3.1.4 0zm0 48.6h72.5v-40.4s-.2-.1-.4-.1h-72.1c-.2 0-.4 0-.4.1v40.4c.1 0 .3.1.4 0zm0 48.6h72.5v-40.4s-.2-.1-.4-.1h-72.1c-.2 0-.4 0-.4.1v40.4h.4zm0 48.6h72.5V285s-.2-.1-.4-.1h-72.1c-.2 0-.4 0-.4.1v40.4h.4zm0 48.6h72.5v-40.4s-.2-.1-.4-.1h-72.1c-.2 0-.4 0-.4.1V374h.4zm0 48.6h72.5v-40.4s-.2-.1-.4-.1h-72.1c-.2 0-.4 0-.4.1v40.4h.4z"/></g></g><g opacity=".16"><g fill="#474747" class="a"><path d="M783.4-111.9h72.1c.2 0 .4 0 .4-.1v-40.4H783v40.4c0 .1.2.1.4.1zm0 48.6h72.1c.2 0 .4 0 .4-.1v-40.4c-.1 0-.3-.1-.4 0H783v40.4c0 .1.2.1.4.1zm0 48.6h72.1c.2 0 .4 0 .4-.1v-40.4c-.1 0-.3-.1-.4-.1h-72.1c-.1 0-.3 0-.4.1v40.4c0 .1.2.1.4.1zm0 48.6h72.1c.2 0 .4 0 .4-.1V-6.6c-.1 0-.3-.1-.4 0H783v40.4s.2.1.4.1zm0 48.6h72.1c.2 0 .4 0 .4-.1V42c-.1 0-.3-.1-.4 0H783v40.4s.2.1.4.1zm0 48.6h72.5V90.6s-.2-.1-.4-.1h-72.1c-.2.1-.4.1-.4.1V131c.1.1.3.1.4.1zm0 48.5h72.5v-40.4s-.2-.1-.4-.1h-72.1c-.2 0-.4 0-.4.1v40.4c.1 0 .3.1.4 0zm0 48.6h72.5v-40.4s-.2-.1-.4-.1h-72.1c-.2 0-.4 0-.4.1v40.4c.1 0 .3.1.4 0zm0 48.6h72.5v-40.4s-.2-.1-.4-.1h-72.1c-.2 0-.4 0-.4.1v40.4h.4zm0 48.6h72.5V285s-.2-.1-.4-.1h-72.1c-.2 0-.4 0-.4.1v40.4h.4z"/></g><g fill="#3c3c3c" class="a"><path d="M864.362-111.9h72.1c.2 0 .4 0 .4-.1v-40.4h-72.9v40.4c0 .1.2.1.4.1zm0 48.6h72.1c.2 0 .4 0 .4-.1v-40.4c-.1 0-.3-.1-.4 0h-72.5v40.4c0 .1.2.1.4.1zm0 48.6h72.1c.2 0 .4 0 .4-.1v-40.4c-.1 0-.3-.1-.4-.1h-72.1c-.1 0-.3 0-.4.1v40.4c0 .1.2.1.4.1zm0 48.6h72.1c.2 0 .4 0 .4-.1V-6.6c-.1 0-.3-.1-.4 0h-72.5v40.4s.2.1.4.1zm0 48.6h72.1c.2 0 .4 0 .4-.1V42c-.1 0-.3-.1-.4 0h-72.5v40.4s.2.1.4.1zm0 48.6h72.5V90.6s-.2-.1-.4-.1h-72.1c-.2.1-.4.1-.4.1V131c.1.1.3.1.4.1zm0 48.5h72.5v-40.4s-.2-.1-.4-.1h-72.1c-.2 0-.4 0-.4.1v40.4c.1 0 .3.1.4 0zm0 48.6h72.5v-40.4s-.2-.1-.4-.1h-72.1c-.2 0-.4 0-.4.1v40.4c.1 0 .3.1.4 0zm0 48.6h72.5v-40.4s-.2-.1-.4-.1h-72.1c-.2 0-.4 0-.4.1v40.4h.4zm0 48.6h72.5V285s-.2-.1-.4-.1h-72.1c-.2 0-.4 0-.4.1v40.4h.4zm0 48.6h72.5v-40.4s-.2-.1-.4-.1h-72.1c-.2 0-.4 0-.4.1V374h.4z"/></g><g fill="#595959" class="a"><path d="M945.325-111.9h72.1c.2 0 .4 0 .4-.1v-40.4h-72.9v40.4c0 .1.2.1.4.1zm0 48.6h72.1c.2 0 .4 0 .4-.1v-40.4c-.1 0-.3-.1-.4 0h-72.5v40.4c0 .1.2.1.4.1zm0 48.6h72.1c.2 0 .4 0 .4-.1v-40.4c-.1 0-.3-.1-.4-.1h-72.1c-.1 0-.3 0-.4.1v40.4c0 .1.2.1.4.1zm0 48.6h72.1c.2 0 .4 0 .4-.1V-6.6c-.1 0-.3-.1-.4 0h-72.5v40.4s.2.1.4.1zm0 48.6h72.1c.2 0 .4 0 .4-.1V42c-.1 0-.3-.1-.4 0h-72.5v40.4s.2.1.4.1zm0 48.6h72.5V90.6s-.2-.1-.4-.1h-72.1c-.2.1-.4.1-.4.1V131c.1.1.3.1.4.1zm0 48.5h72.5v-40.4s-.2-.1-.4-.1h-72.1c-.2 0-.4 0-.4.1v40.4c.1 0 .3.1.4 0zm0 48.6h72.5v-40.4s-.2-.1-.4-.1h-72.1c-.2 0-.4 0-.4.1v40.4c.1 0 .3.1.4 0zm0 48.6h72.5v-40.4s-.2-.1-.4-.1h-72.1c-.2 0-.4 0-.4.1v40.4h.4z"/></g><g fill="#909090" class="a"><path d="M1026.287-111.9h72.1c.2 0 .4 0 .4-.1v-40.4h-72.9v40.4c0 .1.2.1.4.1zm0 48.6h72.1c.2 0 .4 0 .4-.1v-40.4c-.1 0-.3-.1-.4 0h-72.5v40.4c0 .1.2.1.4.1zm0 48.6h72.1c.2 0 .4 0 .4-.1v-40.4c-.1 0-.3-.1-.4-.1h-72.1c-.1 0-.3 0-.4.1v40.4c0 .1.2.1.4.1zm0 48.6h72.1c.2 0 .4 0 .4-.1V-6.6c-.1 0-.3-.1-.4 0h-72.5v40.4s.2.1.4.1zm0 48.6h72.1c.2 0 .4 0 .4-.1V42c-.1 0-.3-.1-.4 0h-72.5v40.4s.2.1.4.1zm0 48.6h72.5V90.6s-.2-.1-.4-.1h-72.1c-.2.1-.4.1-.4.1V131c.1.1.3.1.4.1zm0 48.5h72.5v-40.4s-.2-.1-.4-.1h-72.1c-.2 0-.4 0-.4.1v40.4c.1 0 .3.1.4 0zm0 48.6h72.5v-40.4s-.2-.1-.4-.1h-72.1c-.2 0-.4 0-.4.1v40.4c.1 0 .3.1.4 0z"/></g><g fill="#8f8f8f" class="a"><path d="M1107.25-111.9h72.1c.2 0 .4 0 .4-.1v-40.4h-72.9v40.4c0 .1.2.1.4.1zm0 48.6h72.1c.2 0 .4 0 .4-.1v-40.4c-.1 0-.3-.1-.4 0h-72.5v40.4c0 .1.2.1.4.1zm0 48.6h72.1c.2 0 .4 0 .4-.1v-40.4c-.1 0-.3-.1-.4-.1h-72.1c-.1 0-.3 0-.4.1v40.4c0 .1.2.1.4.1zm0 48.6h72.1c.2 0 .4 0 .4-.1V-6.6c-.1 0-.3-.1-.4 0h-72.5v40.4s.2.1.4.1zm0 48.6h72.1c.2 0 .4 0 .4-.1V42c-.1 0-.3-.1-.4 0h-72.5v40.4s.2.1.4.1zm0 48.6h72.5V90.6s-.2-.1-.4-.1h-72.1c-.2.1-.4.1-.4.1V131c.1.1.3.1.4.1zm0 48.5h72.5v-40.4s-.2-.1-.4-.1h-72.1c-.2 0-.4 0-.4.1v40.4c.1 0 .3.1.4 0zm0 48.6h72.5v-40.4s-.2-.1-.4-.1h-72.1c-.2 0-.4 0-.4.1v40.4c.1 0 .3.1.4 0zm0 48.6h72.5v-40.4s-.2-.1-.4-.1h-72.1c-.2 0-.4 0-.4.1v40.4h.4zm0 48.6h72.5V285s-.2-.1-.4-.1h-72.1c-.2 0-.4 0-.4.1v40.4h.4z"/></g><g fill="#3a3a3a" class="a"><path d="M1188.212-111.9h72.1c.2 0 .4 0 .4-.1v-40.4h-72.9v40.4c0 .1.2.1.4.1zm0 48.6h72.1c.2 0 .4 0 .4-.1v-40.4c-.1 0-.3-.1-.4 0h-72.5v40.4c0 .1.2.1.4.1zm0 48.6h72.1c.2 0 .4 0 .4-.1v-40.4c-.1 0-.3-.1-.4-.1h-72.1c-.1 0-.3 0-.4.1v40.4c0 .1.2.1.4.1zm0 48.6h72.1c.2 0 .4 0 .4-.1V-6.6c-.1 0-.3-.1-.4 0h-72.5v40.4s.2.1.4.1zm0 48.6h72.1c.2 0 .4 0 .4-.1V42c-.1 0-.3-.1-.4 0h-72.5v40.4s.2.1.4.1zm0 48.6h72.5V90.6s-.2-.1-.4-.1h-72.1c-.2.1-.4.1-.4.1V131c.1.1.3.1.4.1zm0 48.5h72.5v-40.4s-.2-.1-.4-.1h-72.1c-.2 0-.4 0-.4.1v40.4c.1 0 .3.1.4 0zm0 48.6h72.5v-40.4s-.2-.1-.4-.1h-72.1c-.2 0-.4 0-.4.1v40.4c.1 0 .3.1.4 0zm0 48.6h72.5v-40.4s-.2-.1-.4-.1h-72.1c-.2 0-.4 0-.4.1v40.4h.4z"/></g><g fill="#6a6a6a" class="a"><path d="M1269.174-111.9h72.1c.2 0 .4 0 .4-.1v-40.4h-72.9v40.4c0 .1.2.1.4.1zm0 48.6h72.1c.2 0 .4 0 .4-.1v-40.4c-.1 0-.3-.1-.4 0h-72.5v40.4c0 .1.2.1.4.1zm0 48.6h72.1c.2 0 .4 0 .4-.1v-40.4c-.1 0-.3-.1-.4-.1h-72.1c-.1 0-.3 0-.4.1v40.4c0 .1.2.1.4.1zm0 48.6h72.1c.2 0 .4 0 .4-.1V-6.6c-.1 0-.3-.1-.4 0h-72.5v40.4s.2.1.4.1zm0 48.6h72.1c.2 0 .4 0 .4-.1V42c-.1 0-.3-.1-.4 0h-72.5v40.4s.2.1.4.1zm0 48.6h72.5V90.6s-.2-.1-.4-.1h-72.1c-.2.1-.4.1-.4.1V131c.1.1.3.1.4.1zm0 48.5h72.5v-40.4s-.2-.1-.4-.1h-72.1c-.2 0-.4 0-.4.1v40.4c.1 0 .3.1.4 0zm0 48.6h72.5v-40.4s-.2-.1-.4-.1h-72.1c-.2 0-.4 0-.4.1v40.4c.1 0 .3.1.4 0zm81-340.1h72.1c.2 0 .4 0 .4-.1v-40.4c-.1 0-.3-.1-.4-.1h-72.1c-.2.1-.3.1-.4.1v40.4c0 .1.1.1.4.1zm0 48.6h72.1c.2 0 .4 0 .4-.1v-40.4c-.1 0-.3-.1-.4 0h-72.5v40.4c0 .1.1.1.4.1zm0 48.6h72.1c.2 0 .4 0 .4-.1v-40.4c-.1 0-.3-.1-.4-.1h-72.1c-.1 0-.3 0-.4.1v40.4c0 .1.1.1.4.1zm0 48.6h72.1c.2 0 .4 0 .4-.1V-6.6c-.1 0-.3-.1-.4 0h-72.5v40.4s.1.1.4.1zm0 48.6h72.1c.2 0 .4 0 .4-.1V42c-.1 0-.3-.1-.4 0h-72.5v40.4s.1.1.4.1zm0 48.6h72.5V90.6s-.2-.1-.4-.1h-72.1c-.2 0-.4 0-.4.1V131c.1.1.2.1.4.1zm0 48.5h72.5v-40.4s-.2-.1-.4-.1h-72.1c-.2 0-.4 0-.4.1v40.4c.1 0 .2.1.4 0zm0 48.6h72.5v-40.4s-.2-.1-.4-.1h-72.1c-.2 0-.4 0-.4.1v40.4c.1 0 .2.1.4 0zm0 48.6h72.5v-40.4s-.2-.1-.4-.1h-72.1c-.2 0-.4 0-.4.1v40.4h.4z"/></g><g fill="#9c9c9c" class="a"><path d="M1431.1-111.9h72.1c.2 0 .4 0 .4-.1v-40.4h-72.9v40.4c0 .1.2.1.4.1zm0 48.6h72.1c.2 0 .4 0 .4-.1v-40.4c-.1 0-.3-.1-.4 0h-72.5v40.4c0 .1.2.1.4.1zm0 48.6h72.1c.2 0 .4 0 .4-.1v-40.4c-.1 0-.3-.1-.4-.1h-72.1c-.1 0-.3 0-.4.1v40.4c0 .1.2.1.4.1zm0 48.6h72.1c.2 0 .4 0 .4-.1V-6.6c-.1 0-.3-.1-.4 0h-72.5v40.4s.2.1.4.1zm0 48.6h72.1c.2 0 .4 0 .4-.1V42c-.1 0-.3-.1-.4 0h-72.5v40.4s.2.1.4.1zm0 48.6h72.5V90.6s-.2-.1-.4-.1h-72.1c-.2.1-.4.1-.4.1V131c.1.1.3.1.4.1zm0 48.5h72.5v-40.4s-.2-.1-.4-.1h-72.1c-.2 0-.4 0-.4.1v40.4c.1 0 .3.1.4 0zm0 48.6h72.5v-40.4s-.2-.1-.4-.1h-72.1c-.2 0-.4 0-.4.1v40.4c.1 0 .3.1.4 0zm0 48.6h72.5v-40.4s-.2-.1-.4-.1h-72.1c-.2 0-.4 0-.4.1v40.4h.4zm0 48.6h72.5V285s-.2-.1-.4-.1h-72.1c-.2 0-.4 0-.4.1v40.4h.4z"/></g><g fill="#898989" class="a"><path d="M1512.06-111.9h72.1c.2 0 .4 0 .4-.1v-40.4h-72.9v40.4c0 .1.2.1.4.1zm0 48.6h72.1c.2 0 .4 0 .4-.1v-40.4c-.1 0-.3-.1-.4 0h-72.5v40.4c0 .1.2.1.4.1zm0 48.6h72.1c.2 0 .4 0 .4-.1v-40.4c-.1 0-.3-.1-.4-.1h-72.1c-.1 0-.3 0-.4.1v40.4c0 .1.2.1.4.1zm0 48.6h72.1c.2 0 .4 0 .4-.1V-6.6c-.1 0-.3-.1-.4 0h-72.5v40.4s.2.1.4.1zm0 48.6h72.1c.2 0 .4 0 .4-.1V42c-.1 0-.3-.1-.4 0h-72.5v40.4s.2.1.4.1zm0 48.6h72.5V90.6s-.2-.1-.4-.1h-72.1c-.2.1-.4.1-.4.1V131c.1.1.3.1.4.1zm0 48.5h72.5v-40.4s-.2-.1-.4-.1h-72.1c-.2 0-.4 0-.4.1v40.4c.1 0 .3.1.4 0zm0 48.6h72.5v-40.4s-.2-.1-.4-.1h-72.1c-.2 0-.4 0-.4.1v40.4c.1 0 .3.1.4 0zm0 48.6h72.5v-40.4s-.2-.1-.4-.1h-72.1c-.2 0-.4 0-.4.1v40.4h.4zm0 48.6h72.5V285s-.2-.1-.4-.1h-72.1c-.2 0-.4 0-.4.1v40.4h.4zm0 48.6h72.5v-40.4s-.2-.1-.4-.1h-72.1c-.2 0-.4 0-.4.1V374h.4zm0 48.6h72.5v-40.4s-.2-.1-.4-.1h-72.1c-.2 0-.4 0-.4.1v40.4h.4z"/></g><g fill="#e3e3e3"><path d="M1593.023-111.9h72.1c.2 0 .4 0 .4-.1v-40.4h-72.9v40.4c0 .1.2.1.4.1zm0 48.6h72.1c.2 0 .4 0 .4-.1v-40.4c-.1 0-.3-.1-.4 0h-72.5v40.4c0 .1.2.1.4.1zm0 48.6h72.1c.2 0 .4 0 .4-.1v-40.4c-.1 0-.3-.1-.4-.1h-72.1c-.1 0-.3 0-.4.1v40.4c0 .1.2.1.4.1zm0 48.6h72.1c.2 0 .4 0 .4-.1V-6.6c-.1 0-.3-.1-.4 0h-72.5v40.4s.2.1.4.1zm0 48.6h72.1c.2 0 .4 0 .4-.1V42c-.1 0-.3-.1-.4 0h-72.5v40.4s.2.1.4.1zm0 48.6h72.5V90.6s-.2-.1-.4-.1h-72.1c-.2.1-.4.1-.4.1V131c.1.1.3.1.4.1zm0 48.5h72.5v-40.4s-.2-.1-.4-.1h-72.1c-.2 0-.4 0-.4.1v40.4c.1 0 .3.1.4 0zm0 48.6h72.5v-40.4s-.2-.1-.4-.1h-72.1c-.2 0-.4 0-.4.1v40.4c.1 0 .3.1.4 0zm0 48.6h72.5v-40.4s-.2-.1-.4-.1h-72.1c-.2 0-.4 0-.4.1v40.4h.4zm0 48.6h72.5V285s-.2-.1-.4-.1h-72.1c-.2 0-.4 0-.4.1v40.4h.4z"/></g><g fill="#cecece"><path d="M1673.986-111.9h72.1c.2 0 .4 0 .4-.1v-40.4h-72.9v40.4c0 .1.2.1.4.1zm0 48.6h72.1c.2 0 .4 0 .4-.1v-40.4c-.1 0-.3-.1-.4 0h-72.5v40.4c0 .1.2.1.4.1zm0 48.6h72.1c.2 0 .4 0 .4-.1v-40.4c-.1 0-.3-.1-.4-.1h-72.1c-.1 0-.3 0-.4.1v40.4c0 .1.2.1.4.1zm0 48.6h72.1c.2 0 .4 0 .4-.1V-6.6c-.1 0-.3-.1-.4 0h-72.5v40.4s.2.1.4.1zm0 48.6h72.1c.2 0 .4 0 .4-.1V42c-.1 0-.3-.1-.4 0h-72.5v40.4s.2.1.4.1zm0 48.6h72.5V90.6s-.2-.1-.4-.1h-72.1c-.2.1-.4.1-.4.1V131c.1.1.3.1.4.1zm0 48.5h72.5v-40.4s-.2-.1-.4-.1h-72.1c-.2 0-.4 0-.4.1v40.4c.1 0 .3.1.4 0zm0 48.6h72.5v-40.4s-.2-.1-.4-.1h-72.1c-.2 0-.4 0-.4.1v40.4c.1 0 .3.1.4 0zm0 48.6h72.5v-40.4s-.2-.1-.4-.1h-72.1c-.2 0-.4 0-.4.1v40.4h.4zm0 48.6h72.5V285s-.2-.1-.4-.1h-72.1c-.2 0-.4 0-.4.1v40.4h.4zm0 48.6h72.5v-40.4s-.2-.1-.4-.1h-72.1c-.2 0-.4 0-.4.1V374h.4z"/></g><g fill="#dadada"><path d="M1754.948-111.9h72.1c.2 0 .4 0 .4-.1v-40.4h-72.9v40.4c0 .1.2.1.4.1zm0 48.6h72.1c.2 0 .4 0 .4-.1v-40.4c-.1 0-.3-.1-.4 0h-72.5v40.4c0 .1.2.1.4.1zm0 48.6h72.1c.2 0 .4 0 .4-.1v-40.4c-.1 0-.3-.1-.4-.1h-72.1c-.1 0-.3 0-.4.1v40.4c0 .1.2.1.4.1zm0 48.6h72.1c.2 0 .4 0 .4-.1V-6.6c-.1 0-.3-.1-.4 0h-72.5v40.4s.2.1.4.1zm0 48.6h72.1c.2 0 .4 0 .4-.1V42c-.1 0-.3-.1-.4 0h-72.5v40.4s.2.1.4.1zm0 48.6h72.5V90.6s-.2-.1-.4-.1h-72.1c-.2.1-.4.1-.4.1V131c.1.1.3.1.4.1zm0 48.5h72.5v-40.4s-.2-.1-.4-.1h-72.1c-.2 0-.4 0-.4.1v40.4c.1 0 .3.1.4 0zm0 48.6h72.5v-40.4s-.2-.1-.4-.1h-72.1c-.2 0-.4 0-.4.1v40.4c.1 0 .3.1.4 0z"/></g><g fill="#b4b4b4"><path d="M1835.9-111.9h72.1c.2 0 .4 0 .4-.1v-40.4h-72.9v40.4c0 .1.2.1.4.1zm0 48.6h72.1c.2 0 .4 0 .4-.1v-40.4c-.1 0-.3-.1-.4 0h-72.5v40.4c0 .1.2.1.4.1zm0 48.6h72.1c.2 0 .4 0 .4-.1v-40.4c-.1 0-.3-.1-.4-.1h-72.1c-.1 0-.3 0-.4.1v40.4c0 .1.2.1.4.1zm0 48.6h72.1c.2 0 .4 0 .4-.1V-6.6c-.1 0-.3-.1-.4 0h-72.5v40.4s.2.1.4.1zm0 48.6h72.1c.2 0 .4 0 .4-.1V42c-.1 0-.3-.1-.4 0h-72.5v40.4s.2.1.4.1zm0 48.6h72.5V90.6s-.2-.1-.4-.1h-72.1c-.2.1-.4.1-.4.1V131c.1.1.3.1.4.1zm0 48.5h72.5v-40.4s-.2-.1-.4-.1h-72.1c-.2 0-.4 0-.4.1v40.4c.1 0 .3.1.4 0zm0 48.6h72.5v-40.4s-.2-.1-.4-.1h-72.1c-.2 0-.4 0-.4.1v40.4c.1 0 .3.1.4 0zm0 48.6h72.5v-40.4s-.2-.1-.4-.1h-72.1c-.2 0-.4 0-.4.1v40.4h.4zm0 48.6h72.5V285s-.2-.1-.4-.1h-72.1c-.2 0-.4 0-.4.1v40.4h.4z"/></g><g fill="#d1d1d1"><path d="M1916.873-111.9h72.1c.2 0 .4 0 .4-.1v-40.4h-72.9v40.4c0 .1.2.1.4.1zm0 48.6h72.1c.2 0 .4 0 .4-.1v-40.4c-.1 0-.3-.1-.4 0h-72.5v40.4c0 .1.2.1.4.1zm0 48.6h72.1c.2 0 .4 0 .4-.1v-40.4c-.1 0-.3-.1-.4-.1h-72.1c-.1 0-.3 0-.4.1v40.4c0 .1.2.1.4.1zm0 48.6h72.1c.2 0 .4 0 .4-.1V-6.6c-.1 0-.3-.1-.4 0h-72.5v40.4s.2.1.4.1zm0 48.6h72.1c.2 0 .4 0 .4-.1V42c-.1 0-.3-.1-.4 0h-72.5v40.4s.2.1.4.1zm0 48.6h72.5V90.6s-.2-.1-.4-.1h-72.1c-.2.1-.4.1-.4.1V131c.1.1.3.1.4.1zm0 48.5h72.5v-40.4s-.2-.1-.4-.1h-72.1c-.2 0-.4 0-.4.1v40.4c.1 0 .3.1.4 0zm0 48.6h72.5v-40.4s-.2-.1-.4-.1h-72.1c-.2 0-.4 0-.4.1v40.4c.1 0 .3.1.4 0zm0 48.6h72.5v-40.4s-.2-.1-.4-.1h-72.1c-.2 0-.4 0-.4.1v40.4h.4zm0 48.6h72.5V285s-.2-.1-.4-.1h-72.1c-.2 0-.4 0-.4.1v40.4h.4zm0 48.6h72.5v-40.4s-.2-.1-.4-.1h-72.1c-.2 0-.4 0-.4.1V374h.4zm0 48.6h72.5v-40.4s-.2-.1-.4-.1h-72.1c-.2 0-.4 0-.4.1v40.4h.4z"/></g><g fill="#767676"><path d="M1997.835-111.9h72.1c.2 0 .4 0 .4-.1v-40.4h-72.9v40.4c0 .1.2.1.4.1zm0 48.6h72.1c.2 0 .4 0 .4-.1v-40.4c-.1 0-.3-.1-.4 0h-72.5v40.4c0 .1.2.1.4.1zm0 48.6h72.1c.2 0 .4 0 .4-.1v-40.4c-.1 0-.3-.1-.4-.1h-72.1c-.1 0-.3 0-.4.1v40.4c0 .1.2.1.4.1zm0 48.6h72.1c.2 0 .4 0 .4-.1V-6.6c-.1 0-.3-.1-.4 0h-72.5v40.4s.2.1.4.1zm0 48.6h72.1c.2 0 .4 0 .4-.1V42c-.1 0-.3-.1-.4 0h-72.5v40.4s.2.1.4.1zm0 48.6h72.5V90.6s-.2-.1-.4-.1h-72.1c-.2.1-.4.1-.4.1V131c.1.1.3.1.4.1zm0 48.5h72.5v-40.4s-.2-.1-.4-.1h-72.1c-.2 0-.4 0-.4.1v40.4c.1 0 .3.1.4 0zm0 48.6h72.5v-40.4s-.2-.1-.4-.1h-72.1c-.2 0-.4 0-.4.1v40.4c.1 0 .3.1.4 0zm0 48.6h72.5v-40.4s-.2-.1-.4-.1h-72.1c-.2 0-.4 0-.4.1v40.4h.4z"/></g><g fill="#656565"><path d="M2078.797-111.9h72.1c.2 0 .4 0 .4-.1v-40.4h-72.9v40.4c0 .1.2.1.4.1zm0 48.6h72.1c.2 0 .4 0 .4-.1v-40.4c-.1 0-.3-.1-.4 0h-72.5v40.4c0 .1.2.1.4.1zm0 48.6h72.1c.2 0 .4 0 .4-.1v-40.4c-.1 0-.3-.1-.4-.1h-72.1c-.1 0-.3 0-.4.1v40.4c0 .1.2.1.4.1zm0 48.6h72.1c.2 0 .4 0 .4-.1V-6.6c-.1 0-.3-.1-.4 0h-72.5v40.4s.2.1.4.1zm0 48.6h72.1c.2 0 .4 0 .4-.1V42c-.1 0-.3-.1-.4 0h-72.5v40.4s.2.1.4.1zm0 48.6h72.5V90.6s-.2-.1-.4-.1h-72.1c-.2.1-.4.1-.4.1V131c.1.1.3.1.4.1zm0 48.5h72.5v-40.4s-.2-.1-.4-.1h-72.1c-.2 0-.4 0-.4.1v40.4c.1 0 .3.1.4 0zm0 48.6h72.5v-40.4s-.2-.1-.4-.1h-72.1c-.2 0-.4 0-.4.1v40.4c.1 0 .3.1.4 0zm0 48.6h72.5v-40.4s-.2-.1-.4-.1h-72.1c-.2 0-.4 0-.4.1v40.4h.4zm0 48.6h72.5V285s-.2-.1-.4-.1h-72.1c-.2 0-.4 0-.4.1v40.4h.4z"/></g><g fill="#868686"><path d="M2159.76-111.9h72.1c.2 0 .4 0 .4-.1v-40.4h-72.9v40.4c0 .1.2.1.4.1zm0 48.6h72.1c.2 0 .4 0 .4-.1v-40.4c-.1 0-.3-.1-.4 0h-72.5v40.4c0 .1.2.1.4.1zm0 48.6h72.1c.2 0 .4 0 .4-.1v-40.4c-.1 0-.3-.1-.4-.1h-72.1c-.1 0-.3 0-.4.1v40.4c0 .1.2.1.4.1zm0 48.6h72.1c.2 0 .4 0 .4-.1V-6.6c-.1 0-.3-.1-.4 0h-72.5v40.4s.2.1.4.1zm0 48.6h72.1c.2 0 .4 0 .4-.1V42c-.1 0-.3-.1-.4 0h-72.5v40.4s.2.1.4.1zm0 48.6h72.5V90.6s-.2-.1-.4-.1h-72.1c-.2.1-.4.1-.4.1V131c.1.1.3.1.4.1zm0 48.5h72.5v-40.4s-.2-.1-.4-.1h-72.1c-.2 0-.4 0-.4.1v40.4c.1 0 .3.1.4 0zm0 48.6h72.5v-40.4s-.2-.1-.4-.1h-72.1c-.2 0-.4 0-.4.1v40.4c.1 0 .3.1.4 0zm0 48.6h72.5v-40.4s-.2-.1-.4-.1h-72.1c-.2 0-.4 0-.4.1v40.4h.4zm0 48.6h72.5V285s-.2-.1-.4-.1h-72.1c-.2 0-.4 0-.4.1v40.4h.4zm0 48.6h72.5v-40.4s-.2-.1-.4-.1h-72.1c-.2 0-.4 0-.4.1V374h.4zm0 48.6h72.5v-40.4s-.2-.1-.4-.1h-72.1c-.2 0-.4 0-.4.1v40.4h.4z"/></g><g fill="#a2a2a2"><path d="M2240.722-111.9h72.1c.2 0 .4 0 .4-.1v-40.4h-72.9v40.4c0 .1.2.1.4.1zm0 48.6h72.1c.2 0 .4 0 .4-.1v-40.4c-.1 0-.3-.1-.4 0h-72.5v40.4c0 .1.2.1.4.1zm0 48.6h72.1c.2 0 .4 0 .4-.1v-40.4c-.1 0-.3-.1-.4-.1h-72.1c-.1 0-.3 0-.4.1v40.4c0 .1.2.1.4.1zm0 48.6h72.1c.2 0 .4 0 .4-.1V-6.6c-.1 0-.3-.1-.4 0h-72.5v40.4s.2.1.4.1zm0 48.6h72.1c.2 0 .4 0 .4-.1V42c-.1 0-.3-.1-.4 0h-72.5v40.4s.2.1.4.1zm0 48.6h72.5V90.6s-.2-.1-.4-.1h-72.1c-.2.1-.4.1-.4.1V131c.1.1.3.1.4.1zm0 48.5h72.5v-40.4s-.2-.1-.4-.1h-72.1c-.2 0-.4 0-.4.1v40.4c.1 0 .3.1.4 0zm0 48.6h72.5v-40.4s-.2-.1-.4-.1h-72.1c-.2 0-.4 0-.4.1v40.4c.1 0 .3.1.4 0zm0 48.6h72.5v-40.4s-.2-.1-.4-.1h-72.1c-.2 0-.4 0-.4.1v40.4h.4zm0 48.6h72.5V285s-.2-.1-.4-.1h-72.1c-.2 0-.4 0-.4.1v40.4h.4zm0 48.6h72.5v-40.4s-.2-.1-.4-.1h-72.1c-.2 0-.4 0-.4.1V374h.4z"/></g><g fill="#b2b2b2"><path d="M2321.685-111.9h72.1c.2 0 .4 0 .4-.1v-40.4h-72.9v40.4c0 .1.2.1.4.1zm0 48.6h72.1c.2 0 .4 0 .4-.1v-40.4c-.1 0-.3-.1-.4 0h-72.5v40.4c0 .1.2.1.4.1zm0 48.6h72.1c.2 0 .4 0 .4-.1v-40.4c-.1 0-.3-.1-.4-.1h-72.1c-.1 0-.3 0-.4.1v40.4c0 .1.2.1.4.1zm0 48.6h72.1c.2 0 .4 0 .4-.1V-6.6c-.1 0-.3-.1-.4 0h-72.5v40.4s.2.1.4.1zm0 48.6h72.1c.2 0 .4 0 .4-.1V42c-.1 0-.3-.1-.4 0h-72.5v40.4s.2.1.4.1zm0 48.6h72.5V90.6s-.2-.1-.4-.1h-72.1c-.2.1-.4.1-.4.1V131c.1.1.3.1.4.1zm0 48.5h72.5v-40.4s-.2-.1-.4-.1h-72.1c-.2 0-.4 0-.4.1v40.4c.1 0 .3.1.4 0zm0 48.6h72.5v-40.4s-.2-.1-.4-.1h-72.1c-.2 0-.4 0-.4.1v40.4c.1 0 .3.1.4 0zm0 48.6h72.5v-40.4s-.2-.1-.4-.1h-72.1c-.2 0-.4 0-.4.1v40.4h.4zm0 48.6h72.5V285s-.2-.1-.4-.1h-72.1c-.2 0-.4 0-.4.1v40.4h.4z"/></g><g fill="#888"><path d="M2402.647-111.9h72.1c.2 0 .4 0 .4-.1v-40.4h-72.9v40.4c0 .1.2.1.4.1zm0 48.6h72.1c.2 0 .4 0 .4-.1v-40.4c-.1 0-.3-.1-.4 0h-72.5v40.4c0 .1.2.1.4.1zm0 48.6h72.1c.2 0 .4 0 .4-.1v-40.4c-.1 0-.3-.1-.4-.1h-72.1c-.1 0-.3 0-.4.1v40.4c0 .1.2.1.4.1zm0 48.6h72.1c.2 0 .4 0 .4-.1V-6.6c-.1 0-.3-.1-.4 0h-72.5v40.4s.2.1.4.1zm0 48.6h72.1c.2 0 .4 0 .4-.1V42c-.1 0-.3-.1-.4 0h-72.5v40.4s.2.1.4.1zm0 48.6h72.5V90.6s-.2-.1-.4-.1h-72.1c-.2.1-.4.1-.4.1V131c.1.1.3.1.4.1zm0 48.5h72.5v-40.4s-.2-.1-.4-.1h-72.1c-.2 0-.4 0-.4.1v40.4c.1 0 .3.1.4 0zm0 48.6h72.5v-40.4s-.2-.1-.4-.1h-72.1c-.2 0-.4 0-.4.1v40.4c.1 0 .3.1.4 0zm0 48.6h72.5v-40.4s-.2-.1-.4-.1h-72.1c-.2 0-.4 0-.4.1v40.4h.4z"/></g><g fill="#5e5e5e"><path d="M2483.6-111.9h72.1c.2 0 .4 0 .4-.1v-40.4h-72.9v40.4c0 .1.2.1.4.1zm0 48.6h72.1c.2 0 .4 0 .4-.1v-40.4c-.1 0-.3-.1-.4 0h-72.5v40.4c0 .1.2.1.4.1zm0 48.6h72.1c.2 0 .4 0 .4-.1v-40.4c-.1 0-.3-.1-.4-.1h-72.1c-.1 0-.3 0-.4.1v40.4c0 .1.2.1.4.1zm0 48.6h72.1c.2 0 .4 0 .4-.1V-6.6c-.1 0-.3-.1-.4 0h-72.5v40.4s.2.1.4.1zm0 48.6h72.1c.2 0 .4 0 .4-.1V42c-.1 0-.3-.1-.4 0h-72.5v40.4s.2.1.4.1zm0 48.6h72.5V90.6s-.2-.1-.4-.1h-72.1c-.2.1-.4.1-.4.1V131c.1.1.3.1.4.1zm0 48.5h72.5v-40.4s-.2-.1-.4-.1h-72.1c-.2 0-.4 0-.4.1v40.4c.1 0 .3.1.4 0zm0 48.6h72.5v-40.4s-.2-.1-.4-.1h-72.1c-.2 0-.4 0-.4.1v40.4c.1 0 .3.1.4 0zm0 48.6h72.5v-40.4s-.2-.1-.4-.1h-72.1c-.2 0-.4 0-.4.1v40.4h.4zm0 48.6h72.5V285s-.2-.1-.4-.1h-72.1c-.2 0-.4 0-.4.1v40.4h.4z"/></g><g fill="#181818"><path d="M2564.533-111.9h72.1c.2 0 .4 0 .4-.1v-40.4h-72.9v40.4c0 .1.2.1.4.1zm0 48.6h72.1c.2 0 .4 0 .4-.1v-40.4c-.1 0-.3-.1-.4 0h-72.5v40.4c0 .1.2.1.4.1zm0 48.6h72.1c.2 0 .4 0 .4-.1v-40.4c-.1 0-.3-.1-.4-.1h-72.1c-.1 0-.3 0-.4.1v40.4c0 .1.2.1.4.1zm0 48.6h72.1c.2 0 .4 0 .4-.1V-6.6c-.1 0-.3-.1-.4 0h-72.5v40.4s.2.1.4.1zm0 48.6h72.1c.2 0 .4 0 .4-.1V42c-.1 0-.3-.1-.4 0h-72.5v40.4s.2.1.4.1zm0 48.6h72.5V90.6s-.2-.1-.4-.1h-72.1c-.2 0-.4 0-.4.1V131c.2.1.3.1.4.1zm0 48.5h72.5v-40.4s-.2-.1-.4-.1h-72.1c-.2 0-.4 0-.4.1v40.4c.2 0 .3.1.4 0zm0 48.6h72.5v-40.4s-.2-.1-.4-.1h-72.1c-.2 0-.4 0-.4.1v40.4c.2 0 .3.1.4 0zm0 48.6h72.5v-40.4s-.2-.1-.4-.1h-72.1c-.2 0-.4 0-.4.1v40.4h.4zm-3.2 48.6h72.5V285s-.2-.1-.4-.1h-72.1c-.2 0-.4 0-.4.1v40.4h.4zm3.2 48.6h72.5v-40.4s-.2-.1-.4-.1h-72.1c-.2 0-.4 0-.4.1V374h.4z"/></g><g fill="#0c0c0c"><path d="M2645.534-111.9h72.1c.2 0 .4 0 .4-.1v-40.4h-72.9v40.4c0 .1.2.1.4.1zm0 48.6h72.1c.2 0 .4 0 .4-.1v-40.4c-.1 0-.3-.1-.4 0h-72.5v40.4c0 .1.2.1.4.1zm0 48.6h72.1c.2 0 .4 0 .4-.1v-40.4c-.1 0-.3-.1-.4-.1h-72.1c-.1 0-.3 0-.4.1v40.4c0 .1.2.1.4.1zm0 48.6h72.1c.2 0 .4 0 .4-.1V-6.6c-.1 0-.3-.1-.4 0h-72.5v40.4s.2.1.4.1zm0 48.6h72.1c.2 0 .4 0 .4-.1V42c-.1 0-.3-.1-.4 0h-72.5v40.4s.2.1.4.1zm0 48.6h72.5V90.6s-.2-.1-.4-.1h-72.1c-.2.1-.4.1-.4.1V131c.1.1.3.1.4.1zm0 48.5h72.5v-40.4s-.2-.1-.4-.1h-72.1c-.2 0-.4 0-.4.1v40.4c.1 0 .3.1.4 0zm0 48.6h72.5v-40.4s-.2-.1-.4-.1h-72.1c-.2 0-.4 0-.4.1v40.4c.1 0 .3.1.4 0zm0 48.6h72.5v-40.4s-.2-.1-.4-.1h-72.1c-.2 0-.4 0-.4.1v40.4h.4zm0 48.6h72.5V285s-.2-.1-.4-.1h-72.1c-.2 0-.4 0-.4.1v40.4h.4zm0 48.6h72.5v-40.4s-.2-.1-.4-.1h-72.1c-.2 0-.4 0-.4.1V374h.4zm0 48.6h72.5v-40.4s-.2-.1-.4-.1h-72.1c-.2 0-.4 0-.4.1v40.4h.4z"/></g></g></g></svg>