<svg xmlns="http://www.w3.org/2000/svg" width="318.861" height="99.79" xmlns:v="https://vecta.io/nano"><path d="M89.828 53.125c0 24.26-18.995 40.642-43.27 40.642S0 79.3 0 55.04 20.638 7.42 44.915 7.42s44.913 18.063 44.913 45.706z" fill="#be1622"/><path d="M40.668 69.045V37.202c.001-.835.505-1.587 1.276-1.906s1.66-.143 2.25.447l15.93 15.92c.805.806.805 2.112 0 2.918l-15.93 15.92c-.6.6-1.478.766-2.25.448s-1.275-1.07-1.277-1.905z" fill="#fff"/><path d="M42.93 98.357s12.467 1.383 20.267-1.916A56.98 56.98 0 0 0 79.49 85.906M46.46 1.432S33.992.05 26.192 3.348A56.98 56.98 0 0 0 9.898 13.883" fill="none" stroke="#be1622" stroke-linecap="round" stroke-linejoin="round" stroke-width="2.051"/><text font-size="37" font-family="Roboto-BlackItalic, Roboto" font-weight="800" font-style="italic"><tspan x="93.861" y="47.574">THE GREAT </tspan><tspan y="84.574" x="93.861">EDITOR TOOL</tspan></text></svg>