<svg xmlns="http://www.w3.org/2000/svg" width="51" height="56.144" xmlns:v="https://vecta.io/nano"><path d="M51 29.88c0 13.6-10.784 22.767-24.567 22.767S0 44.548 0 30.954 11.718 4.277 25.5 4.277 51 14.396 51 29.88z" fill="#f6f6f6"/><path d="M23.094 38.8V20.963c.007-.47.294-.892.73-1.07s.936-.08 1.27.253l9.045 8.918c.22.215.344.5.344.817s-.124.602-.344.817l-9.045 8.917c-.334.33-.834.43-1.27.253s-.723-.6-.73-1.07z" fill="#be1622"/><path d="M24.374 55.22s7.077.775 11.505-1.073c3.397-1.426 6.526-3.42 9.252-5.9M26.378.925S19.3.15 14.87 1.998a32.37 32.37 0 0 0-9.251 5.9" fill="none" stroke="#f6f6f6" stroke-linecap="round" stroke-linejoin="round" stroke-width="1.393"/></svg>