<svg xmlns="http://www.w3.org/2000/svg" width="114.552" height="54.645" xmlns:v="https://vecta.io/nano"><path d="M32.655 39.21h9.782v1.842h-3.84v10.336H36.48V41.05h-3.826zm9.362 3.36h1.81v1.71h.033c.063-.253.175-.49.33-.7.17-.233.37-.443.593-.623.232-.188.492-.34.77-.45s.567-.17.863-.17a4.35 4.35 0 0 1 .466.017l.26.035v1.877l-.415-.06c-.138-.017-.276-.026-.415-.026-.318-.001-.633.068-.922.2a2.12 2.12 0 0 0-.752.58 2.85 2.85 0 0 0-.509.947 4.14 4.14 0 0 0-.185 1.3v4.2h-1.93zm13.985 8.818h-1.9v-1.23h-.035a2.66 2.66 0 0 1-1.058 1.066 2.86 2.86 0 0 1-1.43.4 3.2 3.2 0 0 1-2.5-.861 3.8 3.8 0 0 1-.77-2.6V42.57h1.93v5.41a2.4 2.4 0 0 0 .44 1.637 1.6 1.6 0 0 0 1.235.478c.348.01.695-.053 1.016-.187a1.8 1.8 0 0 0 .66-.5 1.92 1.92 0 0 0 .365-.758c.075-.313.11-.634.11-.956v-5.116h1.93zm3.284-2.832a1.46 1.46 0 0 0 .643 1.194c.405.236.868.354 1.337.34.207-.002.413-.016.618-.042.223-.027.442-.08.65-.163a1.21 1.21 0 0 0 .5-.35c.134-.17.198-.385.178-.6-.004-.233-.102-.454-.27-.614-.19-.17-.4-.3-.65-.383a6.31 6.31 0 0 0-.906-.248l-1.033-.222c-.352-.077-.7-.174-1.04-.3a3.33 3.33 0 0 1-.9-.461c-.267-.194-.484-.448-.635-.74-.168-.348-.25-.73-.237-1.117-.014-.427.107-.847.347-1.2a2.65 2.65 0 0 1 .88-.784 3.81 3.81 0 0 1 1.185-.418 6.95 6.95 0 0 1 1.245-.12 5.69 5.69 0 0 1 1.294.145 3.52 3.52 0 0 1 1.117.469c.335.217.618.505.83.844.232.38.374.8.415 1.254h-2.015a1.21 1.21 0 0 0-.635-.939c-.358-.164-.748-.246-1.142-.238a4.3 4.3 0 0 0-.483.034 2.27 2.27 0 0 0-.524.128 1.1 1.1 0 0 0-.415.273c-.116.128-.177.296-.17.47-.008.22.082.433.246.58.19.162.407.287.643.366.295.105.598.188.906.248q.508.1 1.05.222c.35.08.694.176 1.033.3.324.107.63.262.906.46a2.12 2.12 0 0 1 .888 1.825 2.38 2.38 0 0 1-.355 1.331 2.82 2.82 0 0 1-.922.887 4.19 4.19 0 0 1-1.261.495c-.45.1-.9.152-1.372.153-.516.005-1.03-.058-1.53-.188a3.54 3.54 0 0 1-1.219-.571c-.34-.25-.62-.578-.812-.955a3.04 3.04 0 0 1-.314-1.357zm6.364-5.985h1.456v-2.644h1.93v2.644h1.744v1.45h-1.743v4.708a4.8 4.8 0 0 0 .025.528.92.92 0 0 0 .119.376.57.57 0 0 0 .279.23c.163.058.335.084.508.077l.406-.008a1.98 1.98 0 0 0 .406-.06v1.5l-.626.068c-.208.023-.417.035-.626.035-.414.01-.828-.037-1.228-.145-.275-.076-.526-.223-.727-.426a1.48 1.48 0 0 1-.355-.708c-.066-.32-.103-.645-.11-.972v-5.2H65.65zm6.484 0h1.828v1.194h.035a2.38 2.38 0 0 1 1.134-1.1 3.74 3.74 0 0 1 1.574-.333c.62-.014 1.235.11 1.8.366a3.57 3.57 0 0 1 1.278 1.007c.348.443.607.95.762 1.492.173.593.26 1.208.254 1.825a6.51 6.51 0 0 1-.228 1.722 4.52 4.52 0 0 1-.694 1.475 3.37 3.37 0 0 1-2.853 1.407c-.284 0-.567-.026-.846-.077a3.63 3.63 0 0 1-.813-.248c-.258-.112-.5-.258-.72-.435s-.405-.385-.55-.623h-.033v4.4h-1.926zm6.737 4.417a4.44 4.44 0 0 0-.152-1.159 3.14 3.14 0 0 0-.458-1c-.2-.287-.46-.526-.76-.7-.32-.18-.683-.272-1.05-.265-.718-.045-1.41.276-1.838.853a3.79 3.79 0 0 0-.617 2.268 4.51 4.51 0 0 0 .16 1.237c.094.356.26.69.483.98a2.4 2.4 0 0 0 .77.648 2.18 2.18 0 0 0 1.041.238c.4.012.776-.082 1.117-.273.3-.178.557-.42.752-.708.202-.3.345-.636.423-.99a5 5 0 0 0 .13-1.132zm3.4-7.777h1.93v1.842h-1.93zm0 3.36h1.93v8.818h-1.93zm3.654-3.36h1.93v12.178h-1.93zm7.838 12.416a4.73 4.73 0 0 1-1.871-.35c-.526-.218-1-.547-1.387-.964-.387-.423-.682-.922-.864-1.466a5.69 5.69 0 0 1-.3-1.877c-.005-.632.096-1.26.3-1.86a4.11 4.11 0 0 1 .864-1.467 3.99 3.99 0 0 1 1.387-.964 5.18 5.18 0 0 1 3.742 0 4 4 0 0 1 1.388.964c.386.424.68.923.863 1.467.204.598.305 1.227.3 1.86a5.69 5.69 0 0 1-.3 1.877 4.12 4.12 0 0 1-.863 1.466 3.98 3.98 0 0 1-1.388.964 4.73 4.73 0 0 1-1.868.349zm0-1.535a2.2 2.2 0 0 0 1.117-.273c.31-.176.577-.42.78-.716.207-.304.36-.643.45-1a4.51 4.51 0 0 0 0-2.26 3.04 3.04 0 0 0-.449-1 2.4 2.4 0 0 0-.779-.708c-.7-.364-1.534-.364-2.235 0a2.4 2.4 0 0 0-.779.708 3.01 3.01 0 0 0-.448 1 4.51 4.51 0 0 0 0 2.26 3.11 3.11 0 0 0 .448 1c.202.295.468.54.78.716a2.2 2.2 0 0 0 1.121.272zm4.977-7.52h1.456v-2.644h1.93v2.644h1.744v1.45h-1.744v4.708a4.79 4.79 0 0 0 .026.528.9.9 0 0 0 .119.376c.065.105.163.186.28.23.163.058.335.084.508.077l.406-.008a1.98 1.98 0 0 0 .405-.06v1.5l-.626.068c-.208.023-.417.035-.626.035-.414.01-.827-.037-1.227-.145-.275-.076-.526-.223-.727-.426a1.47 1.47 0 0 1-.357-.708 5.35 5.35 0 0 1-.109-.972v-5.2H98.74z" fill="#fff"/><path d="M30.403 39.21h-8.84l-2.73-8.47-2.73 8.468h-8.84l7.15 5.236-2.73 8.47 7.15-5.234 7.148 5.234-2.73-8.468 7.15-5.234z" fill="#37a065"/><path d="M23.87 46.363l-.62-1.92-4.418 3.234z" fill="#13411e"/><path d="M0 0h21.625v21.198H0zm23.378 0h21.625v21.198H23.378zm23.38 0h21.04v21.198h-21.04zm23.377 0h21.04v21.198h-21.04zm22.793 0h21.625v21.198H92.927z" fill="#37a065"/><path d="M10.902 14.23l3.256-.832 1.363 4.23zm7.5-5.47h-5.74L10.896 3.3 9.134 8.76h-5.74l4.646 3.377-1.764 5.446 4.646-3.376 2.86-2.065 4.624-3.376zm15.733 5.47l3.256-.832 1.362 4.23zm7.5-5.47h-5.74L34.13 3.3l-1.763 5.45h-5.74l4.646 3.377-1.765 5.445 4.645-3.376 2.86-2.065 4.624-3.376zm15.733 5.47l3.256-.832 1.362 4.23zm7.5-5.47h-5.74L57.362 3.3l-1.764 5.45h-5.74l4.645 3.377-1.765 5.445 4.646-3.376 2.86-2.065 4.625-3.376zm15.728 5.47l3.256-.832 1.363 4.23zM88.1 8.76h-5.74L80.596 3.3 78.83 8.76H73.1l4.646 3.377-1.765 5.445 4.645-3.376 2.86-2.065L88.1 8.764zm15.734 5.47l3.256-.832 1.362 4.23zm7.5-5.47h-5.74l-1.765-5.448-1.763 5.448h-5.74l4.645 3.377-1.765 5.445 4.646-3.376 2.86-2.065 4.625-3.376z" fill="#fff"/></svg>