<svg xmlns="http://www.w3.org/2000/svg" xmlns:xlink="http://www.w3.org/1999/xlink" width="3840" height="1431" xmlns:v="https://vecta.io/nano"><defs><clipPath id="A"><path d="M0 2295s313.576-310 954-310c735.77 0 1114.884 627.242 1640 669 929.957 73.952 1246-312 1246-312v1074H0z" transform="translate(0 -1985)" fill="#37474f"/></clipPath><path id="B" d="M1926.4-49.507h72.07c.22 0 .4-.023.4-.05V-89.95c-.127-.05-.265-.066-.4-.05h-72.07c-.135-.016-.273.001-.4.05v40.392c.001.03.18.05.4.05z"/><path id="C" d="M1926.4-.915h72.07c.22 0 .4-.023.4-.05v-40.392c-.127-.05-.265-.066-.4-.05h-72.07c-.135-.016-.273.001-.4.05V-.966c.001.028.18.05.4.05z"/><path id="D" d="M1926.4 47.677h72.07c.22 0 .4-.023.4-.05V7.234c-.127-.05-.265-.066-.4-.05h-72.07c-.135-.016-.273.001-.4.05v40.392c.001.028.18.05.4.05z"/><path id="E" d="M1926.4 96.268h72.07c.22 0 .4-.023.4-.05V55.825c-.127-.05-.265-.066-.4-.05h-72.07c-.135-.016-.273.001-.4.05v40.392c.001.028.18.05.4.05z"/><path id="F" d="M1926.4 144.86h72.07c.22 0 .4-.023.4-.05v-40.392c-.127-.05-.265-.066-.4-.05h-72.07c-.135-.016-.273.001-.4.05v40.387c.001.033.18.056.4.056z"/><path id="G" d="M1926.4 193.45h72.07c.135.016.273-.001.4-.05V153.01c0-.028-.178-.05-.4-.05h-72.07c-.22 0-.4.023-.4.05v40.395c.128.048.265.064.4.047z"/><path id="H" d="M1926.4 242.043h72.07c.135.016.273-.001.4-.05v-40.39c0-.028-.178-.05-.4-.05h-72.07c-.22 0-.4.023-.4.05v40.392c.128.048.265.064.4.047z"/><path id="I" d="M1926.4 290.636h72.07c.135.016.273-.001.4-.05v-40.392c0-.028-.178-.05-.4-.05h-72.07c-.22 0-.4.023-.4.05v40.392c.127.05.265.066.4.05z"/><path id="J" d="M2007.36-49.507h72.07c.22 0 .4-.023.4-.05V-89.95c-.127-.05-.265-.066-.4-.05h-72.07c-.135-.016-.273.001-.4.05v40.392c.002.03.18.05.4.05z"/><path id="K" d="M2007.36-.915h72.07c.22 0 .4-.023.4-.05v-40.392c-.127-.05-.265-.066-.4-.05h-72.07c-.135-.016-.273.001-.4.05V-.966c.002.028.18.05.4.05z"/><path id="L" d="M2007.36 47.677h72.07c.22 0 .4-.023.4-.05V7.234c-.127-.05-.265-.066-.4-.05h-72.07c-.135-.016-.273.001-.4.05v40.392c.002.028.18.05.4.05z"/><path id="M" d="M2007.36 96.268h72.07c.22 0 .4-.023.4-.05V55.825c-.127-.05-.265-.066-.4-.05h-72.07c-.135-.016-.273.001-.4.05v40.392c.002.028.18.05.4.05z"/><path id="N" d="M2007.36 144.86h72.07c.22 0 .4-.023.4-.05v-40.392c-.127-.05-.265-.066-.4-.05h-72.07c-.135-.016-.273.001-.4.05v40.387c.002.033.18.056.4.056z"/><path id="O" d="M2250.248-49.507h72.07c.22 0 .4-.023.4-.05V-89.95c-.127-.05-.265-.066-.4-.05h-72.07c-.135-.016-.273.001-.4.05v40.392c0 .03.18.05.4.05z"/><path id="P" d="M2250.248-.915h72.07c.22 0 .4-.023.4-.05v-40.392c-.127-.05-.265-.066-.4-.05h-72.07c-.135-.016-.273.001-.4.05V-.966c0 .028.18.05.4.05z"/><path id="Q" d="M2250.248 47.677h72.07c.22 0 .4-.023.4-.05V7.234c-.127-.05-.265-.066-.4-.05h-72.07c-.135-.016-.273.001-.4.05v40.392c0 .028.18.05.4.05z"/><path id="R" d="M2250.248 96.268h72.07c.22 0 .4-.023.4-.05V55.825c-.127-.05-.265-.066-.4-.05h-72.07c-.135-.016-.273.001-.4.05v40.392c0 .028.18.05.4.05z"/><path id="S" d="M2250.248 144.86h72.07c.22 0 .4-.023.4-.05v-40.392c-.127-.05-.265-.066-.4-.05h-72.07c-.135-.016-.273.001-.4.05v40.387c0 .033.18.056.4.056z"/><path id="T" d="M2412.173-49.507h72.07c.22 0 .4-.023.4-.05V-89.95c-.127-.05-.265-.066-.4-.05h-72.07c-.135-.016-.273.001-.4.05v40.392c.001.03.176.05.4.05z"/><path id="U" d="M2412.173-.915h72.07c.22 0 .4-.023.4-.05v-40.392c-.127-.05-.265-.066-.4-.05h-72.07c-.135-.016-.273.001-.4.05V-.966c.001.028.176.05.4.05z"/><path id="V" d="M2412.173 47.677h72.07c.22 0 .4-.023.4-.05V7.234c-.127-.05-.265-.066-.4-.05h-72.07c-.135-.016-.273.001-.4.05v40.392c.001.028.176.05.4.05z"/><path id="W" d="M2412.173 96.268h72.07c.22 0 .4-.023.4-.05V55.825c-.127-.05-.265-.066-.4-.05h-72.07c-.135-.016-.273.001-.4.05v40.392c.001.028.176.05.4.05z"/><path id="X" d="M2412.173 144.86h72.07c.22 0 .4-.023.4-.05v-40.392c-.127-.05-.265-.066-.4-.05h-72.07c-.135-.016-.273.001-.4.05v40.387c.001.033.176.056.4.056z"/><path id="Y" d="M2816.985-49.507h72.064c.22 0 .4-.023.4-.05V-89.95c-.127-.05-.265-.066-.4-.05h-72.07c-.135-.016-.273.001-.4.05v40.392c.006.03.184.05.405.05z"/><path id="Z" d="M2816.985-.915h72.064c.22 0 .4-.023.4-.05v-40.392c-.127-.05-.265-.066-.4-.05h-72.07c-.135-.016-.273.001-.4.05V-.966c.006.028.184.05.405.05z"/><path id="a" d="M2816.985 47.677h72.064c.22 0 .4-.023.4-.05V7.234c-.127-.05-.265-.066-.4-.05h-72.07c-.135-.016-.273.001-.4.05v40.392c.006.028.184.05.405.05z"/><path id="b" d="M2816.985 96.268h72.064c.22 0 .4-.023.4-.05V55.825c-.127-.05-.265-.066-.4-.05h-72.07c-.135-.016-.273.001-.4.05v40.392c.006.028.184.05.405.05z"/><path id="c" d="M2816.985 144.86h72.064c.22 0 .4-.023.4-.05v-40.392c-.127-.05-.265-.066-.4-.05h-72.07c-.135-.016-.273.001-.4.05v40.387c.006.033.184.056.405.056z"/><path id="d" d="M2816.985 193.45h72.064c.135.016.273-.001.4-.05V153.01c0-.028-.178-.05-.4-.05h-72.07c-.22 0-.4.023-.4.05v40.395c.13.05.268.065.405.047z"/><path id="e" d="M2816.985 242.043h72.064c.135.016.273-.001.4-.05v-40.39c0-.028-.178-.05-.4-.05h-72.07c-.22 0-.4.023-.4.05v40.392c.13.05.268.065.405.047z"/><path id="f" d="M2816.985 290.636h72.064c.135.016.273-.001.4-.05v-40.392c0-.028-.178-.05-.4-.05h-72.07c-.22 0-.4.023-.4.05v40.392c.13.05.268.067.405.05z"/><path id="g" d="M2897.95-49.507h72.07c.22 0 .4-.023.4-.05V-89.95c-.127-.05-.265-.066-.4-.05h-72.07c-.135-.016-.273.001-.4.05v40.392c0 .03.178.05.4.05z"/><path id="h" d="M2897.95-.915h72.07c.22 0 .4-.023.4-.05v-40.392c-.127-.05-.265-.066-.4-.05h-72.07c-.135-.016-.273.001-.4.05V-.966c0 .028.178.05.4.05z"/><path id="i" d="M2897.95 47.677h72.07c.22 0 .4-.023.4-.05V7.234c-.127-.05-.265-.066-.4-.05h-72.07c-.135-.016-.273.001-.4.05v40.392c0 .028.178.05.4.05z"/><path id="j" d="M2897.95 96.268h72.07c.22 0 .4-.023.4-.05V55.825c-.127-.05-.265-.066-.4-.05h-72.07c-.135-.016-.273.001-.4.05v40.392c0 .028.178.05.4.05z"/><path id="k" d="M2897.95 144.86h72.07c.22 0 .4-.023.4-.05v-40.392c-.127-.05-.265-.066-.4-.05h-72.07c-.135-.016-.273.001-.4.05v40.387c0 .033.178.056.4.056z"/><path id="l" d="M3059.872-49.507h72.07c.22 0 .4-.023.4-.05V-89.95c-.127-.05-.265-.066-.4-.05h-72.07c-.135-.016-.273.001-.4.05v40.392c.001.03.177.05.4.05z"/><path id="m" d="M3059.872-.915h72.07c.22 0 .4-.023.4-.05v-40.392c-.127-.05-.265-.066-.4-.05h-72.07c-.135-.016-.273.001-.4.05V-.966c.001.028.177.05.4.05z"/><path id="n" d="M3059.872 47.677h72.07c.22 0 .4-.023.4-.05V7.234c-.127-.05-.265-.066-.4-.05h-72.07c-.135-.016-.273.001-.4.05v40.392c.001.028.177.05.4.05z"/><path id="o" d="M3059.872 96.268h72.07c.22 0 .4-.023.4-.05V55.825c-.127-.05-.265-.066-.4-.05h-72.07c-.135-.016-.273.001-.4.05v40.392c.001.028.177.05.4.05z"/><path id="p" d="M3059.872 144.86h72.07c.22 0 .4-.023.4-.05v-40.392c-.127-.05-.265-.066-.4-.05h-72.07c-.135-.016-.273.001-.4.05v40.387c.001.033.177.056.4.056z"/><path id="q" d="M3464.683-49.507h72.066c.22 0 .4-.023.4-.05V-89.95c-.127-.05-.265-.066-.4-.05h-72.07c-.135-.016-.273.001-.4.05v40.392c.005.03.183.05.403.05z"/><path id="r" d="M3464.683-.915h72.066c.22 0 .4-.023.4-.05v-40.392c-.127-.05-.265-.066-.4-.05h-72.07c-.135-.016-.273.001-.4.05V-.966c.005.028.183.05.403.05z"/><path id="s" d="M3464.683 47.677h72.066c.22 0 .4-.023.4-.05V7.234c-.127-.05-.265-.066-.4-.05h-72.07c-.135-.016-.273.001-.4.05v40.392c.005.028.183.05.403.05z"/><path id="t" d="M3464.683 96.268h72.066c.22 0 .4-.023.4-.05V55.825c-.127-.05-.265-.066-.4-.05h-72.07c-.135-.016-.273.001-.4.05v40.392c.005.028.183.05.403.05z"/><path id="u" d="M3464.683 144.86h72.066c.22 0 .4-.023.4-.05v-40.392c-.127-.05-.265-.066-.4-.05h-72.07c-.135-.016-.273.001-.4.05v40.387c.005.033.183.056.403.056z"/><path id="v" d="M3464.683 193.45h72.066c.135.016.273-.001.4-.05V153.01c0-.028-.178-.05-.4-.05h-72.07c-.22 0-.4.023-.4.05v40.395c.128.05.267.065.403.047z"/><path id="w" d="M3464.683 242.043h72.066c.135.016.273-.001.4-.05v-40.39c0-.028-.178-.05-.4-.05h-72.07c-.22 0-.4.023-.4.05v40.392c.128.05.267.065.403.047z"/><path id="x" d="M3464.683 290.636h72.066c.135.016.273-.001.4-.05v-40.392c0-.028-.178-.05-.4-.05h-72.07c-.22 0-.4.023-.4.05v40.392c.128.05.267.067.403.05z"/><path id="y" d="M3545.65-49.507h72.07c.22 0 .4-.023.4-.05V-89.95c-.127-.05-.265-.066-.4-.05h-72.07c-.135-.016-.273.001-.4.05v40.392c0 .03.176.05.4.05z"/><path id="z" d="M3545.65-.915h72.07c.22 0 .4-.023.4-.05v-40.392c-.127-.05-.265-.066-.4-.05h-72.07c-.135-.016-.273.001-.4.05V-.966c0 .028.176.05.4.05z"/><path id="AA" d="M3545.65 47.677h72.07c.22 0 .4-.023.4-.05V7.234c-.127-.05-.265-.066-.4-.05h-72.07c-.135-.016-.273.001-.4.05v40.392c0 .028.176.05.4.05z"/><path id="AB" d="M3545.65 96.268h72.07c.22 0 .4-.023.4-.05V55.825c-.127-.05-.265-.066-.4-.05h-72.07c-.135-.016-.273.001-.4.05v40.392c0 .028.176.05.4.05z"/><path id="AC" d="M3545.65 144.86h72.07c.22 0 .4-.023.4-.05v-40.392c-.127-.05-.265-.066-.4-.05h-72.07c-.135-.016-.273.001-.4.05v40.387c0 .033.176.056.4.056z"/><path id="AD" d="M-19.6 290.636h72.07c.135.016.273-.001.4-.05v-40.392c0-.028-.178-.05-.4-.05H-19.6c-.22 0-.4.023-.4.05v40.392c.127.05.265.066.4.05z"/><path id="AE" d="M61.36 290.636h72.07c.135.016.273-.001.4-.05v-40.392c0-.028-.178-.05-.4-.05H61.36c-.22 0-.4.023-.4.05v40.392c.127.05.265.066.4.05z"/><path id="AF" d="M385.2 290.636h72.07c.135.016.273-.001.4-.05v-40.392c0-.028-.178-.05-.4-.05H385.2c-.22 0-.4.023-.4.05v40.392c.127.05.265.066.4.05z"/></defs><g opacity=".26" clip-path="url(#A)"><g fill="#474747"><use xlink:href="#B"/><use xlink:href="#C"/><use xlink:href="#D"/><use xlink:href="#E"/><use xlink:href="#F"/><use xlink:href="#G"/><use xlink:href="#H"/><use xlink:href="#I"/><path d="M1926.4 339.227h72.07a.84.84 0 0 0 .4-.05v-40.392c0-.028-.178-.05-.4-.05h-72.07c-.22 0-.4.023-.4.05v40.392c.127.05.265.066.4.05zm0 48.593h72.07a.84.84 0 0 0 .4-.05v-40.392c0-.028-.178-.05-.4-.05h-72.07c-.22 0-.4.023-.4.05v40.392c.127.05.265.066.4.05z"/></g><g fill="#3c3c3c"><use xlink:href="#J"/><use xlink:href="#K"/><use xlink:href="#L"/><use xlink:href="#M"/><use xlink:href="#N"/><path d="M2007.36 193.45h72.07a.84.84 0 0 0 .4-.05V153c0-.028-.178-.05-.4-.05h-72.07c-.22 0-.4.023-.4.05v40.395a.84.84 0 0 0 .4.047zm0 48.593h72.07a.84.84 0 0 0 .4-.05v-40.4c0-.028-.178-.05-.4-.05h-72.07c-.22 0-.4.023-.4.05v40.392a.84.84 0 0 0 .4.047zm0 48.593h72.07a.84.84 0 0 0 .4-.05v-40.392c0-.028-.178-.05-.4-.05h-72.07c-.22 0-.4.023-.4.05v40.392c.127.05.265.066.4.05zm0 48.59h72.07a.84.84 0 0 0 .4-.05v-40.392c0-.028-.178-.05-.4-.05h-72.07c-.22 0-.4.023-.4.05v40.392c.127.05.265.066.4.05zm0 48.593h72.07a.84.84 0 0 0 .4-.05v-40.392c0-.028-.178-.05-.4-.05h-72.07c-.22 0-.4.023-.4.05v40.392c.127.05.265.066.4.05zm0 48.584h72.07a.84.84 0 0 0 .4-.05v-40.392c0-.028-.178-.05-.4-.05h-72.07c-.22 0-.4.023-.4.05v40.392c.127.05.265.066.4.05z"/></g><g fill="#595959"><path d="M2088.323-49.507h72.07c.22 0 .4-.023.4-.05V-89.95c-.127-.05-.265-.066-.4-.05h-72.07a.84.84 0 0 0-.4.05v40.392c.002.03.18.05.4.05zm0 48.592h72.07c.22 0 .4-.023.4-.05v-40.392c-.127-.05-.265-.066-.4-.05h-72.07a.84.84 0 0 0-.4.05v40.39c.002.028.18.05.4.05zm0 48.592h72.07c.22 0 .4-.023.4-.05V7.234c-.127-.05-.265-.066-.4-.05h-72.07a.84.84 0 0 0-.4.05v40.392c.002.028.18.05.4.05zm0 48.59h72.07c.22 0 .4-.023.4-.05V55.825c-.127-.05-.265-.066-.4-.05h-72.07a.84.84 0 0 0-.4.05v40.392c.002.028.18.05.4.05zm0 48.592h72.07c.22 0 .4-.023.4-.05v-40.392c-.127-.05-.265-.066-.4-.05h-72.07a.84.84 0 0 0-.4.05v40.387c.002.033.18.056.4.056zm0 48.6h72.07a.84.84 0 0 0 .4-.05V153c0-.028-.178-.05-.4-.05h-72.07c-.22 0-.4.023-.4.05v40.395a.84.84 0 0 0 .4.047zm0 48.593h72.07a.84.84 0 0 0 .4-.05v-40.4c0-.028-.178-.05-.4-.05h-72.07c-.22 0-.4.023-.4.05v40.392a.84.84 0 0 0 .4.047zm0 48.593h72.07a.84.84 0 0 0 .4-.05v-40.392c0-.028-.178-.05-.4-.05h-72.07c-.22 0-.4.023-.4.05v40.392c.127.05.265.066.4.05zm0 48.59h72.07a.84.84 0 0 0 .4-.05v-40.392c0-.028-.178-.05-.4-.05h-72.07c-.22 0-.4.023-.4.05v40.392c.127.05.265.066.4.05z"/></g><g fill="#909090"><path d="M2169.286-49.507h72.07c.22 0 .4-.023.4-.05V-89.95c-.127-.05-.265-.066-.4-.05h-72.07a.84.84 0 0 0-.4.05v40.392c.001.03.18.05.4.05zm0 48.592h72.07c.22 0 .4-.023.4-.05v-40.392c-.127-.05-.265-.066-.4-.05h-72.07a.84.84 0 0 0-.4.05v40.39c.001.028.18.05.4.05zm0 48.592h72.07c.22 0 .4-.023.4-.05V7.234c-.127-.05-.265-.066-.4-.05h-72.07a.84.84 0 0 0-.4.05v40.392c.001.028.18.05.4.05zm0 48.59h72.07c.22 0 .4-.023.4-.05V55.825c-.127-.05-.265-.066-.4-.05h-72.07a.84.84 0 0 0-.4.05v40.392c.001.028.18.05.4.05zm0 48.592h72.07c.22 0 .4-.023.4-.05v-40.392c-.127-.05-.265-.066-.4-.05h-72.07a.84.84 0 0 0-.4.05v40.387c.001.033.18.056.4.056zm0 48.6h72.07a.84.84 0 0 0 .4-.05V153c0-.028-.178-.05-.4-.05h-72.07c-.22 0-.4.023-.4.05v40.395a.84.84 0 0 0 .4.047zm0 48.593h72.07a.84.84 0 0 0 .4-.05v-40.4c0-.028-.178-.05-.4-.05h-72.07c-.22 0-.4.023-.4.05v40.392a.84.84 0 0 0 .4.047zm0 48.593h72.07a.84.84 0 0 0 .4-.05v-40.392c0-.028-.178-.05-.4-.05h-72.07c-.22 0-.4.023-.4.05v40.392c.127.05.265.066.4.05z"/></g><g fill="#8f8f8f"><use xlink:href="#O"/><use xlink:href="#P"/><use xlink:href="#Q"/><use xlink:href="#R"/><use xlink:href="#S"/><path d="M2250.248 193.45h72.07a.84.84 0 0 0 .4-.05V153c0-.028-.178-.05-.4-.05h-72.07c-.22 0-.4.023-.4.05v40.395a.84.84 0 0 0 .4.047zm0 48.593h72.07a.84.84 0 0 0 .4-.05v-40.4c0-.028-.178-.05-.4-.05h-72.07c-.22 0-.4.023-.4.05v40.392a.84.84 0 0 0 .4.047zm0 48.593h72.07a.84.84 0 0 0 .4-.05v-40.392c0-.028-.178-.05-.4-.05h-72.07c-.22 0-.4.023-.4.05v40.392c.127.05.265.066.4.05zm0 48.59h72.07a.84.84 0 0 0 .4-.05v-40.392c0-.028-.178-.05-.4-.05h-72.07c-.22 0-.4.023-.4.05v40.392c.127.05.265.066.4.05zm0 48.593h72.07a.84.84 0 0 0 .4-.05v-40.392c0-.028-.178-.05-.4-.05h-72.07c-.22 0-.4.023-.4.05v40.392c.127.05.265.066.4.05z"/></g><g fill="#3a3a3a"><path d="M2331.2-49.507h72.07c.22 0 .4-.023.4-.05V-89.95c-.127-.05-.265-.066-.4-.05h-72.07a.84.84 0 0 0-.4.05v40.392c.002.03.18.05.4.05zm0 48.592h72.07c.22 0 .4-.023.4-.05v-40.392c-.127-.05-.265-.066-.4-.05h-72.07a.84.84 0 0 0-.4.05v40.39c.002.028.18.05.4.05zm0 48.592h72.07c.22 0 .4-.023.4-.05V7.234c-.127-.05-.265-.066-.4-.05h-72.07a.84.84 0 0 0-.4.05v40.392c.002.028.18.05.4.05zm0 48.59h72.07c.22 0 .4-.023.4-.05V55.825c-.127-.05-.265-.066-.4-.05h-72.07a.84.84 0 0 0-.4.05v40.392c.002.028.18.05.4.05zm0 48.592h72.07c.22 0 .4-.023.4-.05v-40.392c-.127-.05-.265-.066-.4-.05h-72.07a.84.84 0 0 0-.4.05v40.387c.002.033.18.056.4.056zm0 48.6h72.07a.84.84 0 0 0 .4-.05V153c0-.028-.178-.05-.4-.05h-72.07c-.22 0-.4.023-.4.05v40.395a.84.84 0 0 0 .4.047zm0 48.593h72.07a.84.84 0 0 0 .4-.05v-40.4c0-.028-.178-.05-.4-.05h-72.07c-.22 0-.4.023-.4.05v40.392a.84.84 0 0 0 .4.047zm0 48.593h72.07a.84.84 0 0 0 .4-.05v-40.392c0-.028-.178-.05-.4-.05h-72.07c-.22 0-.4.023-.4.05v40.392c.127.05.265.066.4.05zm0 48.59h72.07a.84.84 0 0 0 .4-.05v-40.392c0-.028-.178-.05-.4-.05h-72.07c-.22 0-.4.023-.4.05v40.392c.127.05.265.066.4.05z"/></g><g fill="#6a6a6a"><use xlink:href="#T"/><use xlink:href="#U"/><use xlink:href="#V"/><use xlink:href="#W"/><use xlink:href="#X"/><path d="M2412.173 193.45h72.07a.84.84 0 0 0 .4-.05V153c0-.028-.178-.05-.4-.05h-72.07c-.22 0-.4.023-.4.05v40.395a.84.84 0 0 0 .4.047zm0 48.593h72.07a.84.84 0 0 0 .4-.05v-40.4c0-.028-.178-.05-.4-.05h-72.07c-.22 0-.4.023-.4.05v40.392a.84.84 0 0 0 .4.047zm0 48.593h72.07a.84.84 0 0 0 .4-.05v-40.392c0-.028-.178-.05-.4-.05h-72.07c-.22 0-.4.023-.4.05v40.392c.127.05.265.066.4.05zm80.962-340.143h72.07c.22 0 .4-.023.4-.05V-89.95c-.127-.05-.265-.066-.4-.05h-72.07a.84.84 0 0 0-.4.05v40.392c.002.03.18.05.4.05zm0 48.592h72.07c.22 0 .4-.023.4-.05v-40.392c-.127-.05-.265-.066-.4-.05h-72.07a.84.84 0 0 0-.4.05v40.39c.002.028.18.05.4.05zm0 48.592h72.07c.22 0 .4-.023.4-.05V7.234c-.127-.05-.265-.066-.4-.05h-72.07a.84.84 0 0 0-.4.05v40.392c.002.028.18.05.4.05zm0 48.59h72.07c.22 0 .4-.023.4-.05V55.825c-.127-.05-.265-.066-.4-.05h-72.07a.84.84 0 0 0-.4.05v40.392c.002.028.18.05.4.05zm0 48.592h72.07c.22 0 .4-.023.4-.05v-40.392c-.127-.05-.265-.066-.4-.05h-72.07a.84.84 0 0 0-.4.05v40.387c.002.033.18.056.4.056zm0 48.6h72.07a.84.84 0 0 0 .4-.05V153c0-.028-.178-.05-.4-.05h-72.07c-.22 0-.4.023-.4.05v40.395a.84.84 0 0 0 .4.047zm0 48.593h72.07a.84.84 0 0 0 .4-.05v-40.4c0-.028-.178-.05-.4-.05h-72.07c-.22 0-.4.023-.4.05v40.392a.84.84 0 0 0 .4.047zm0 48.593h72.07a.84.84 0 0 0 .4-.05v-40.392c0-.028-.178-.05-.4-.05h-72.07c-.22 0-.4.023-.4.05v40.392c.127.05.265.066.4.05zm0 48.59h72.07a.84.84 0 0 0 .4-.05v-40.392c0-.028-.178-.05-.4-.05h-72.07c-.22 0-.4.023-.4.05v40.392c.127.05.265.066.4.05z"/></g><g fill="#9c9c9c"><path d="M2574.097-49.507h72.07c.22 0 .4-.023.4-.05V-89.95c-.127-.05-.265-.066-.4-.05h-72.07a.84.84 0 0 0-.4.05v40.392c.002.03.18.05.4.05zm0 48.592h72.07c.22 0 .4-.023.4-.05v-40.392c-.127-.05-.265-.066-.4-.05h-72.07a.84.84 0 0 0-.4.05v40.39c.002.028.18.05.4.05zm0 48.592h72.07c.22 0 .4-.023.4-.05V7.234c-.127-.05-.265-.066-.4-.05h-72.07a.84.84 0 0 0-.4.05v40.392c.002.028.18.05.4.05zm0 48.59h72.07c.22 0 .4-.023.4-.05V55.825c-.127-.05-.265-.066-.4-.05h-72.07a.84.84 0 0 0-.4.05v40.392c.002.028.18.05.4.05zm0 48.592h72.07c.22 0 .4-.023.4-.05v-40.392c-.127-.05-.265-.066-.4-.05h-72.07a.84.84 0 0 0-.4.05v40.387c.002.033.18.056.4.056zm0 48.6h72.07a.84.84 0 0 0 .4-.05V153c0-.028-.178-.05-.4-.05h-72.07c-.22 0-.4.023-.4.05v40.395a.84.84 0 0 0 .4.047zm0 48.593h72.07a.84.84 0 0 0 .4-.05v-40.4c0-.028-.178-.05-.4-.05h-72.07c-.22 0-.4.023-.4.05v40.392a.84.84 0 0 0 .4.047zm0 48.593h72.07a.84.84 0 0 0 .4-.05v-40.392c0-.028-.178-.05-.4-.05h-72.07c-.22 0-.4.023-.4.05v40.392c.127.05.265.066.4.05zm0 48.59h72.07a.84.84 0 0 0 .4-.05v-40.392c0-.028-.178-.05-.4-.05h-72.07c-.22 0-.4.023-.4.05v40.392c.127.05.265.066.4.05zm0 48.593h72.07a.84.84 0 0 0 .4-.05v-40.392c0-.028-.178-.05-.4-.05h-72.07c-.22 0-.4.023-.4.05v40.392c.127.05.265.066.4.05z"/></g><g fill="#898989"><path d="M2655.06-49.507h72.07c.22 0 .4-.023.4-.05V-89.95c-.127-.05-.265-.066-.4-.05h-72.07a.84.84 0 0 0-.4.05v40.392c.001.03.18.05.4.05zm0 48.592h72.07c.22 0 .4-.023.4-.05v-40.392c-.127-.05-.265-.066-.4-.05h-72.07a.84.84 0 0 0-.4.05v40.39c.001.028.18.05.4.05zm0 48.592h72.07c.22 0 .4-.023.4-.05V7.234c-.127-.05-.265-.066-.4-.05h-72.07a.84.84 0 0 0-.4.05v40.392c.001.028.18.05.4.05zm0 48.59h72.07c.22 0 .4-.023.4-.05V55.825c-.127-.05-.265-.066-.4-.05h-72.07a.84.84 0 0 0-.4.05v40.392c.001.028.18.05.4.05zm0 48.592h72.07c.22 0 .4-.023.4-.05v-40.392c-.127-.05-.265-.066-.4-.05h-72.07a.84.84 0 0 0-.4.05v40.387c.001.033.18.056.4.056zm0 48.6h72.07a.84.84 0 0 0 .4-.05V153c0-.028-.178-.05-.4-.05h-72.07c-.22 0-.4.023-.4.05v40.395a.84.84 0 0 0 .4.047zm0 48.593h72.07a.84.84 0 0 0 .4-.05v-40.4c0-.028-.178-.05-.4-.05h-72.07c-.22 0-.4.023-.4.05v40.392a.84.84 0 0 0 .4.047zm0 48.593h72.07a.84.84 0 0 0 .4-.05v-40.392c0-.028-.178-.05-.4-.05h-72.07c-.22 0-.4.023-.4.05v40.392c.127.05.265.066.4.05zm0 48.59h72.07a.84.84 0 0 0 .4-.05v-40.392c0-.028-.178-.05-.4-.05h-72.07c-.22 0-.4.023-.4.05v40.392c.127.05.265.066.4.05zm0 48.593h72.07a.84.84 0 0 0 .4-.05v-40.392c0-.028-.178-.05-.4-.05h-72.07c-.22 0-.4.023-.4.05v40.392c.127.05.265.066.4.05zm0 48.584h72.07a.84.84 0 0 0 .4-.05v-40.392c0-.028-.178-.05-.4-.05h-72.07c-.22 0-.4.023-.4.05v40.392c.127.05.265.066.4.05zm0 48.6h72.07a.84.84 0 0 0 .4-.05v-40.392c0-.028-.178-.05-.4-.05h-72.07c-.22 0-.4.023-.4.05v40.392c.127.05.265.066.4.05z"/></g><g fill="#e3e3e3"><path d="M2736.02-49.507h72.07c.22 0 .4-.023.4-.05V-89.95c-.127-.05-.265-.066-.4-.05h-72.07a.84.84 0 0 0-.4.05v40.392c.002.03.18.05.4.05zm0 48.592h72.07c.22 0 .4-.023.4-.05v-40.392c-.127-.05-.265-.066-.4-.05h-72.07a.84.84 0 0 0-.4.05v40.39c.002.028.18.05.4.05zm0 48.592h72.07c.22 0 .4-.023.4-.05V7.234c-.127-.05-.265-.066-.4-.05h-72.07a.84.84 0 0 0-.4.05v40.392c.002.028.18.05.4.05zm0 48.59h72.07c.22 0 .4-.023.4-.05V55.825c-.127-.05-.265-.066-.4-.05h-72.07a.84.84 0 0 0-.4.05v40.392c.002.028.18.05.4.05zm0 48.592h72.07c.22 0 .4-.023.4-.05v-40.392c-.127-.05-.265-.066-.4-.05h-72.07a.84.84 0 0 0-.4.05v40.387c.002.033.18.056.4.056zm0 48.6h72.07a.84.84 0 0 0 .4-.05V153c0-.028-.178-.05-.4-.05h-72.07c-.22 0-.4.023-.4.05v40.395a.84.84 0 0 0 .4.047zm0 48.593h72.07a.84.84 0 0 0 .4-.05v-40.4c0-.028-.178-.05-.4-.05h-72.07c-.22 0-.4.023-.4.05v40.392a.84.84 0 0 0 .4.047zm0 48.593h72.07a.84.84 0 0 0 .4-.05v-40.392c0-.028-.178-.05-.4-.05h-72.07c-.22 0-.4.023-.4.05v40.392c.127.05.265.066.4.05zm0 48.59h72.07a.84.84 0 0 0 .4-.05v-40.392c0-.028-.178-.05-.4-.05h-72.07c-.22 0-.4.023-.4.05v40.392c.127.05.265.066.4.05zm0 48.593h72.07a.84.84 0 0 0 .4-.05v-40.392c0-.028-.178-.05-.4-.05h-72.07c-.22 0-.4.023-.4.05v40.392c.127.05.265.066.4.05z"/></g><g fill="#cecece"><use xlink:href="#Y"/><use xlink:href="#Z"/><use xlink:href="#a"/><use xlink:href="#b"/><use xlink:href="#c"/><use xlink:href="#d"/><use xlink:href="#e"/><use xlink:href="#f"/><path d="M2816.985 339.227h72.064a.84.84 0 0 0 .4-.05v-40.392c0-.028-.178-.05-.4-.05h-72.07c-.22 0-.4.023-.4.05v40.392c.13.05.268.067.405.05zm0 48.593h72.064a.84.84 0 0 0 .4-.05v-40.392c0-.028-.178-.05-.4-.05h-72.07c-.22 0-.4.023-.4.05v40.392c.13.05.268.067.405.05zm0 48.584h72.064a.84.84 0 0 0 .4-.05v-40.392c0-.028-.178-.05-.4-.05h-72.07c-.22 0-.4.023-.4.05v40.392c.13.05.268.067.405.05z"/></g><g fill="#dadada"><use xlink:href="#g"/><use xlink:href="#h"/><use xlink:href="#i"/><use xlink:href="#j"/><use xlink:href="#k"/><path d="M2897.95 193.45h72.07a.84.84 0 0 0 .4-.05V153c0-.028-.178-.05-.4-.05h-72.07c-.22 0-.4.023-.4.05v40.395a.84.84 0 0 0 .4.047zm0 48.593h72.07a.84.84 0 0 0 .4-.05v-40.4c0-.028-.178-.05-.4-.05h-72.07c-.22 0-.4.023-.4.05v40.392a.84.84 0 0 0 .4.047zm0 48.593h72.07a.84.84 0 0 0 .4-.05v-40.392c0-.028-.178-.05-.4-.05h-72.07c-.22 0-.4.023-.4.05v40.392c.127.05.265.066.4.05z"/></g><g fill="#b4b4b4"><path d="M2978.908-49.507h72.07c.22 0 .4-.023.4-.05V-89.95c-.127-.05-.265-.066-.4-.05h-72.07a.84.84 0 0 0-.4.05v40.392c.002.03.18.05.4.05zm0 48.592h72.07c.22 0 .4-.023.4-.05v-40.392c-.127-.05-.265-.066-.4-.05h-72.07a.84.84 0 0 0-.4.05v40.39c.002.028.18.05.4.05zm0 48.592h72.07c.22 0 .4-.023.4-.05V7.234c-.127-.05-.265-.066-.4-.05h-72.07a.84.84 0 0 0-.4.05v40.392c.002.028.18.05.4.05zm0 48.59h72.07c.22 0 .4-.023.4-.05V55.825c-.127-.05-.265-.066-.4-.05h-72.07a.84.84 0 0 0-.4.05v40.392c.002.028.18.05.4.05zm0 48.592h72.07c.22 0 .4-.023.4-.05v-40.392c-.127-.05-.265-.066-.4-.05h-72.07a.84.84 0 0 0-.4.05v40.387c.002.033.18.056.4.056zm0 48.6h72.07a.84.84 0 0 0 .4-.05V153c0-.028-.178-.05-.4-.05h-72.07c-.22 0-.4.023-.4.05v40.395a.84.84 0 0 0 .4.047zm0 48.593h72.07a.84.84 0 0 0 .4-.05v-40.4c0-.028-.178-.05-.4-.05h-72.07c-.22 0-.4.023-.4.05v40.392a.84.84 0 0 0 .4.047zm0 48.593h72.07a.84.84 0 0 0 .4-.05v-40.392c0-.028-.178-.05-.4-.05h-72.07c-.22 0-.4.023-.4.05v40.392c.127.05.265.066.4.05zm0 48.59h72.07a.84.84 0 0 0 .4-.05v-40.392c0-.028-.178-.05-.4-.05h-72.07c-.22 0-.4.023-.4.05v40.392c.127.05.265.066.4.05zm0 48.593h72.07a.84.84 0 0 0 .4-.05v-40.392c0-.028-.178-.05-.4-.05h-72.07c-.22 0-.4.023-.4.05v40.392c.127.05.265.066.4.05z"/></g><g fill="#d1d1d1"><use xlink:href="#l"/><use xlink:href="#m"/><use xlink:href="#n"/><use xlink:href="#o"/><use xlink:href="#p"/><path d="M3059.872 193.45h72.07a.84.84 0 0 0 .4-.05V153c0-.028-.178-.05-.4-.05h-72.07c-.22 0-.4.023-.4.05v40.395a.84.84 0 0 0 .4.047zm0 48.593h72.07a.84.84 0 0 0 .4-.05v-40.4c0-.028-.178-.05-.4-.05h-72.07c-.22 0-.4.023-.4.05v40.392a.84.84 0 0 0 .4.047zm0 48.593h72.07a.84.84 0 0 0 .4-.05v-40.392c0-.028-.178-.05-.4-.05h-72.07c-.22 0-.4.023-.4.05v40.392c.127.05.265.066.4.05zm0 48.59h72.07a.84.84 0 0 0 .4-.05v-40.392c0-.028-.178-.05-.4-.05h-72.07c-.22 0-.4.023-.4.05v40.392c.127.05.265.066.4.05zm0 48.593h72.07a.84.84 0 0 0 .4-.05v-40.392c0-.028-.178-.05-.4-.05h-72.07c-.22 0-.4.023-.4.05v40.392c.127.05.265.066.4.05zm0 48.584h72.07a.84.84 0 0 0 .4-.05v-40.392c0-.028-.178-.05-.4-.05h-72.07c-.22 0-.4.023-.4.05v40.392c.127.05.265.066.4.05zm0 48.6h72.07a.84.84 0 0 0 .4-.05v-40.392c0-.028-.178-.05-.4-.05h-72.07c-.22 0-.4.023-.4.05v40.392c.127.05.265.066.4.05z"/></g><g fill="#767676"><path d="M3140.833-49.507h72.07c.22 0 .4-.023.4-.05V-89.95c-.127-.05-.265-.066-.4-.05h-72.07a.84.84 0 0 0-.4.05v40.392c.002.03.18.05.4.05zm0 48.592h72.07c.22 0 .4-.023.4-.05v-40.392c-.127-.05-.265-.066-.4-.05h-72.07a.84.84 0 0 0-.4.05v40.39c.002.028.18.05.4.05zm0 48.592h72.07c.22 0 .4-.023.4-.05V7.234c-.127-.05-.265-.066-.4-.05h-72.07a.84.84 0 0 0-.4.05v40.392c.002.028.18.05.4.05zm0 48.59h72.07c.22 0 .4-.023.4-.05V55.825c-.127-.05-.265-.066-.4-.05h-72.07a.84.84 0 0 0-.4.05v40.392c.002.028.18.05.4.05zm0 48.592h72.07c.22 0 .4-.023.4-.05v-40.392c-.127-.05-.265-.066-.4-.05h-72.07a.84.84 0 0 0-.4.05v40.387c.002.033.18.056.4.056zm0 48.6h72.07a.84.84 0 0 0 .4-.05V153c0-.028-.178-.05-.4-.05h-72.07c-.22 0-.4.023-.4.05v40.395a.84.84 0 0 0 .4.047zm0 48.593h72.07a.84.84 0 0 0 .4-.05v-40.4c0-.028-.178-.05-.4-.05h-72.07c-.22 0-.4.023-.4.05v40.392a.84.84 0 0 0 .4.047zm0 48.593h72.07a.84.84 0 0 0 .4-.05v-40.392c0-.028-.178-.05-.4-.05h-72.07c-.22 0-.4.023-.4.05v40.392c.127.05.265.066.4.05zm0 48.59h72.07a.84.84 0 0 0 .4-.05v-40.392c0-.028-.178-.05-.4-.05h-72.07c-.22 0-.4.023-.4.05v40.392c.127.05.265.066.4.05z"/></g><g fill="#656565"><path d="M3221.795-49.507h72.07c.22 0 .4-.023.4-.05V-89.95c-.127-.05-.265-.066-.4-.05h-72.07a.84.84 0 0 0-.4.05v40.392c.002.03.18.05.4.05zm0 48.592h72.07c.22 0 .4-.023.4-.05v-40.392c-.127-.05-.265-.066-.4-.05h-72.07a.84.84 0 0 0-.4.05v40.39c.002.028.18.05.4.05zm0 48.592h72.07c.22 0 .4-.023.4-.05V7.234c-.127-.05-.265-.066-.4-.05h-72.07a.84.84 0 0 0-.4.05v40.392c.002.028.18.05.4.05zm0 48.59h72.07c.22 0 .4-.023.4-.05V55.825c-.127-.05-.265-.066-.4-.05h-72.07a.84.84 0 0 0-.4.05v40.392c.002.028.18.05.4.05zm0 48.592h72.07c.22 0 .4-.023.4-.05v-40.392c-.127-.05-.265-.066-.4-.05h-72.07a.84.84 0 0 0-.4.05v40.387c.002.033.18.056.4.056zm0 48.6h72.07a.84.84 0 0 0 .4-.05V153c0-.028-.178-.05-.4-.05h-72.07c-.22 0-.4.023-.4.05v40.395a.84.84 0 0 0 .4.047zm0 48.593h72.07a.84.84 0 0 0 .4-.05v-40.4c0-.028-.178-.05-.4-.05h-72.07c-.22 0-.4.023-.4.05v40.392a.84.84 0 0 0 .4.047zm0 48.593h72.07a.84.84 0 0 0 .4-.05v-40.392c0-.028-.178-.05-.4-.05h-72.07c-.22 0-.4.023-.4.05v40.392c.127.05.265.066.4.05zm0 48.59h72.07a.84.84 0 0 0 .4-.05v-40.392c0-.028-.178-.05-.4-.05h-72.07c-.22 0-.4.023-.4.05v40.392c.127.05.265.066.4.05zm0 48.593h72.07a.84.84 0 0 0 .4-.05v-40.392c0-.028-.178-.05-.4-.05h-72.07c-.22 0-.4.023-.4.05v40.392c.127.05.265.066.4.05z"/></g><g fill="#868686"><path d="M3302.76-49.507h72.07c.22 0 .4-.023.4-.05V-89.95c-.127-.05-.265-.066-.4-.05h-72.07a.84.84 0 0 0-.4.05v40.392c.001.03.18.05.4.05zm0 48.592h72.07c.22 0 .4-.023.4-.05v-40.392c-.127-.05-.265-.066-.4-.05h-72.07a.84.84 0 0 0-.4.05v40.39c.001.028.18.05.4.05zm0 48.592h72.07c.22 0 .4-.023.4-.05V7.234c-.127-.05-.265-.066-.4-.05h-72.07a.84.84 0 0 0-.4.05v40.392c.001.028.18.05.4.05zm0 48.59h72.07c.22 0 .4-.023.4-.05V55.825c-.127-.05-.265-.066-.4-.05h-72.07a.84.84 0 0 0-.4.05v40.392c.001.028.18.05.4.05zm0 48.592h72.07c.22 0 .4-.023.4-.05v-40.392c-.127-.05-.265-.066-.4-.05h-72.07a.84.84 0 0 0-.4.05v40.387c.001.033.18.056.4.056zm0 48.6h72.07a.84.84 0 0 0 .4-.05V153c0-.028-.178-.05-.4-.05h-72.07c-.22 0-.4.023-.4.05v40.395a.84.84 0 0 0 .4.047zm0 48.593h72.07a.84.84 0 0 0 .4-.05v-40.4c0-.028-.178-.05-.4-.05h-72.07c-.22 0-.4.023-.4.05v40.392a.84.84 0 0 0 .4.047zm0 48.593h72.07a.84.84 0 0 0 .4-.05v-40.392c0-.028-.178-.05-.4-.05h-72.07c-.22 0-.4.023-.4.05v40.392c.127.05.265.066.4.05zm0 48.59h72.07a.84.84 0 0 0 .4-.05v-40.392c0-.028-.178-.05-.4-.05h-72.07c-.22 0-.4.023-.4.05v40.392c.127.05.265.066.4.05zm0 48.593h72.07a.84.84 0 0 0 .4-.05v-40.392c0-.028-.178-.05-.4-.05h-72.07c-.22 0-.4.023-.4.05v40.392c.127.05.265.066.4.05zm0 48.584h72.07a.84.84 0 0 0 .4-.05v-40.392c0-.028-.178-.05-.4-.05h-72.07c-.22 0-.4.023-.4.05v40.392c.127.05.265.066.4.05zm0 48.6h72.07a.84.84 0 0 0 .4-.05v-40.392c0-.028-.178-.05-.4-.05h-72.07c-.22 0-.4.023-.4.05v40.392c.127.05.265.066.4.05z"/></g><g fill="#a2a2a2"><path d="M3383.72-49.507h72.07c.22 0 .4-.023.4-.05V-89.95c-.127-.05-.265-.066-.4-.05h-72.07a.84.84 0 0 0-.4.05v40.392c.002.03.18.05.4.05zm0 48.592h72.07c.22 0 .4-.023.4-.05v-40.392c-.127-.05-.265-.066-.4-.05h-72.07a.84.84 0 0 0-.4.05v40.39c.002.028.18.05.4.05zm0 48.592h72.07c.22 0 .4-.023.4-.05V7.234c-.127-.05-.265-.066-.4-.05h-72.07a.84.84 0 0 0-.4.05v40.392c.002.028.18.05.4.05zm0 48.59h72.07c.22 0 .4-.023.4-.05V55.825c-.127-.05-.265-.066-.4-.05h-72.07a.84.84 0 0 0-.4.05v40.392c.002.028.18.05.4.05zm0 48.592h72.07c.22 0 .4-.023.4-.05v-40.392c-.127-.05-.265-.066-.4-.05h-72.07a.84.84 0 0 0-.4.05v40.387c.002.033.18.056.4.056zm0 48.6h72.07a.84.84 0 0 0 .4-.05V153c0-.028-.178-.05-.4-.05h-72.07c-.22 0-.4.023-.4.05v40.395a.84.84 0 0 0 .4.047zm0 48.593h72.07a.84.84 0 0 0 .4-.05v-40.4c0-.028-.178-.05-.4-.05h-72.07c-.22 0-.4.023-.4.05v40.392a.84.84 0 0 0 .4.047zm0 48.593h72.07a.84.84 0 0 0 .4-.05v-40.392c0-.028-.178-.05-.4-.05h-72.07c-.22 0-.4.023-.4.05v40.392c.127.05.265.066.4.05zm0 48.59h72.07a.84.84 0 0 0 .4-.05v-40.392c0-.028-.178-.05-.4-.05h-72.07c-.22 0-.4.023-.4.05v40.392c.127.05.265.066.4.05zm0 48.593h72.07a.84.84 0 0 0 .4-.05v-40.392c0-.028-.178-.05-.4-.05h-72.07c-.22 0-.4.023-.4.05v40.392c.127.05.265.066.4.05zm0 48.584h72.07a.84.84 0 0 0 .4-.05v-40.392c0-.028-.178-.05-.4-.05h-72.07c-.22 0-.4.023-.4.05v40.392c.127.05.265.066.4.05z"/></g><g fill="#b2b2b2"><use xlink:href="#q"/><use xlink:href="#r"/><use xlink:href="#s"/><use xlink:href="#t"/><use xlink:href="#u"/><use xlink:href="#v"/><use xlink:href="#w"/><use xlink:href="#x"/><path d="M3464.683 339.227h72.066a.84.84 0 0 0 .4-.05v-40.392c0-.028-.178-.05-.4-.05h-72.07c-.22 0-.4.023-.4.05v40.392c.128.05.267.067.403.05zm0 48.593h72.066a.84.84 0 0 0 .4-.05v-40.392c0-.028-.178-.05-.4-.05h-72.07c-.22 0-.4.023-.4.05v40.392c.128.05.267.067.403.05z"/></g><g fill="#888"><use xlink:href="#y"/><use xlink:href="#z"/><use xlink:href="#AA"/><use xlink:href="#AB"/><use xlink:href="#AC"/><path d="M3545.65 193.45h72.07a.84.84 0 0 0 .4-.05V153c0-.028-.178-.05-.4-.05h-72.07c-.22 0-.4.023-.4.05v40.395a.84.84 0 0 0 .4.047zm0 48.593h72.07a.84.84 0 0 0 .4-.05v-40.4c0-.028-.178-.05-.4-.05h-72.07c-.22 0-.4.023-.4.05v40.392a.84.84 0 0 0 .4.047zm0 48.593h72.07a.84.84 0 0 0 .4-.05v-40.392c0-.028-.178-.05-.4-.05h-72.07c-.22 0-.4.023-.4.05v40.392c.127.05.265.066.4.05zm0 48.59h72.07a.84.84 0 0 0 .4-.05v-40.392c0-.028-.178-.05-.4-.05h-72.07c-.22 0-.4.023-.4.05v40.392c.127.05.265.066.4.05z"/></g><g fill="#5e5e5e"><path d="M3626.607-49.507h72.07c.22 0 .4-.023.4-.05V-89.95c-.127-.05-.265-.066-.4-.05h-72.07a.84.84 0 0 0-.4.05v40.392c.002.03.18.05.4.05zm0 48.592h72.07c.22 0 .4-.023.4-.05v-40.392c-.127-.05-.265-.066-.4-.05h-72.07a.84.84 0 0 0-.4.05v40.39c.002.028.18.05.4.05zm0 48.592h72.07c.22 0 .4-.023.4-.05V7.234c-.127-.05-.265-.066-.4-.05h-72.07a.84.84 0 0 0-.4.05v40.392c.002.028.18.05.4.05zm0 48.59h72.07c.22 0 .4-.023.4-.05V55.825c-.127-.05-.265-.066-.4-.05h-72.07a.84.84 0 0 0-.4.05v40.392c.002.028.18.05.4.05zm0 48.592h72.07c.22 0 .4-.023.4-.05v-40.392c-.127-.05-.265-.066-.4-.05h-72.07a.84.84 0 0 0-.4.05v40.387c.002.033.18.056.4.056zm0 48.6h72.07a.84.84 0 0 0 .4-.05V153c0-.028-.178-.05-.4-.05h-72.07c-.22 0-.4.023-.4.05v40.395a.84.84 0 0 0 .4.047zm0 48.593h72.07a.84.84 0 0 0 .4-.05v-40.4c0-.028-.178-.05-.4-.05h-72.07c-.22 0-.4.023-.4.05v40.392a.84.84 0 0 0 .4.047zm0 48.593h72.07a.84.84 0 0 0 .4-.05v-40.392c0-.028-.178-.05-.4-.05h-72.07c-.22 0-.4.023-.4.05v40.392c.127.05.265.066.4.05zm0 48.59h72.07a.84.84 0 0 0 .4-.05v-40.392c0-.028-.178-.05-.4-.05h-72.07c-.22 0-.4.023-.4.05v40.392c.127.05.265.066.4.05zm0 48.593h72.07a.84.84 0 0 0 .4-.05v-40.392c0-.028-.178-.05-.4-.05h-72.07c-.22 0-.4.023-.4.05v40.392c.127.05.265.066.4.05z"/></g><g fill="#181818"><path d="M3707.57-49.507h72.07c.22 0 .4-.023.4-.05V-89.95c-.127-.05-.265-.066-.4-.05h-72.07a.84.84 0 0 0-.4.05v40.392c.002.03.18.05.4.05zm0 48.592h72.07c.22 0 .4-.023.4-.05v-40.392c-.127-.05-.265-.066-.4-.05h-72.07a.84.84 0 0 0-.4.05v40.39c.002.028.18.05.4.05zm0 48.592h72.07c.22 0 .4-.023.4-.05V7.234c-.127-.05-.265-.066-.4-.05h-72.07a.84.84 0 0 0-.4.05v40.392c.002.028.18.05.4.05zm0 48.59h72.07c.22 0 .4-.023.4-.05V55.825c-.127-.05-.265-.066-.4-.05h-72.07a.84.84 0 0 0-.4.05v40.392c.002.028.18.05.4.05zm0 48.592h72.07c.22 0 .4-.023.4-.05v-40.392c-.127-.05-.265-.066-.4-.05h-72.07a.84.84 0 0 0-.4.05v40.387c.002.033.18.056.4.056zm0 48.6h72.07a.84.84 0 0 0 .4-.05V153c0-.028-.178-.05-.4-.05h-72.07c-.22 0-.4.023-.4.05v40.395a.84.84 0 0 0 .4.047zm0 48.593h72.07a.84.84 0 0 0 .4-.05v-40.4c0-.028-.178-.05-.4-.05h-72.07c-.22 0-.4.023-.4.05v40.392a.84.84 0 0 0 .4.047zm0 48.593h72.07a.84.84 0 0 0 .4-.05v-40.392c0-.028-.178-.05-.4-.05h-72.07c-.22 0-.4.023-.4.05v40.392c.127.05.265.066.4.05zm0 48.59h72.07a.84.84 0 0 0 .4-.05v-40.392c0-.028-.178-.05-.4-.05h-72.07c-.22 0-.4.023-.4.05v40.392c.127.05.265.066.4.05zm-3.24 48.593h72.07a.84.84 0 0 0 .4-.05v-40.392c0-.028-.178-.05-.4-.05h-72.07c-.22 0-.4.023-.4.05v40.392c.127.05.265.066.4.05zm3.24 48.584h72.07a.84.84 0 0 0 .4-.05v-40.392c0-.028-.178-.05-.4-.05h-72.07c-.22 0-.4.023-.4.05v40.392c.127.05.265.066.4.05z"/></g><g fill="#0c0c0c"><path d="M3788.533-49.507h72.07c.22 0 .4-.023.4-.05V-89.95c-.127-.05-.265-.066-.4-.05h-72.07a.84.84 0 0 0-.4.05v40.392c.001.03.18.05.4.05zm0 48.592h72.07c.22 0 .4-.023.4-.05v-40.392c-.127-.05-.265-.066-.4-.05h-72.07a.84.84 0 0 0-.4.05v40.39c.001.028.18.05.4.05zm0 48.592h72.07c.22 0 .4-.023.4-.05V7.234c-.127-.05-.265-.066-.4-.05h-72.07a.84.84 0 0 0-.4.05v40.392c.001.028.18.05.4.05zm0 48.59h72.07c.22 0 .4-.023.4-.05V55.825c-.127-.05-.265-.066-.4-.05h-72.07a.84.84 0 0 0-.4.05v40.392c.001.028.18.05.4.05zm0 48.592h72.07c.22 0 .4-.023.4-.05v-40.392c-.127-.05-.265-.066-.4-.05h-72.07a.84.84 0 0 0-.4.05v40.387c.001.033.18.056.4.056zm0 48.6h72.07a.84.84 0 0 0 .4-.05V153c0-.028-.178-.05-.4-.05h-72.07c-.22 0-.4.023-.4.05v40.395a.84.84 0 0 0 .4.047zm0 48.593h72.07a.84.84 0 0 0 .4-.05v-40.4c0-.028-.178-.05-.4-.05h-72.07c-.22 0-.4.023-.4.05v40.392a.84.84 0 0 0 .4.047zm0 48.593h72.07a.84.84 0 0 0 .4-.05v-40.392c0-.028-.178-.05-.4-.05h-72.07c-.22 0-.4.023-.4.05v40.392c.127.05.265.066.4.05zm0 48.59h72.07a.84.84 0 0 0 .4-.05v-40.392c0-.028-.178-.05-.4-.05h-72.07c-.22 0-.4.023-.4.05v40.392c.127.05.265.066.4.05zm0 48.593h72.07a.84.84 0 0 0 .4-.05v-40.392c0-.028-.178-.05-.4-.05h-72.07c-.22 0-.4.023-.4.05v40.392c.127.05.265.066.4.05zm0 48.584h72.07a.84.84 0 0 0 .4-.05v-40.392c0-.028-.178-.05-.4-.05h-72.07c-.22 0-.4.023-.4.05v40.392c.127.05.265.066.4.05zm0 48.6h72.07a.84.84 0 0 0 .4-.05v-40.392c0-.028-.178-.05-.4-.05h-72.07c-.22 0-.4.023-.4.05v40.392c.127.05.265.066.4.05z"/></g><g fill="#474747"><path d="M-19.6-49.507h72.07c.22 0 .4-.023.4-.05V-89.95c-.127-.05-.265-.066-.4-.05H-19.6a.84.84 0 0 0-.4.05v40.392c.001.03.18.05.4.05zm0 48.592h72.07c.22 0 .4-.023.4-.05v-40.392c-.127-.05-.265-.066-.4-.05H-19.6a.84.84 0 0 0-.4.05v40.39c.001.028.18.05.4.05zm0 48.592h72.07c.22 0 .4-.023.4-.05V7.234c-.127-.05-.265-.066-.4-.05H-19.6a.84.84 0 0 0-.4.05v40.392c.001.028.18.05.4.05zm0 48.59h72.07c.22 0 .4-.023.4-.05V55.825c-.127-.05-.265-.066-.4-.05H-19.6a.84.84 0 0 0-.4.05v40.392c.001.028.18.05.4.05zm0 48.592h72.07c.22 0 .4-.023.4-.05v-40.392c-.127-.05-.265-.066-.4-.05H-19.6a.84.84 0 0 0-.4.05v40.387c.001.033.18.056.4.056zm0 48.6h72.07a.84.84 0 0 0 .4-.05V153c0-.028-.178-.05-.4-.05H-19.6c-.22 0-.4.023-.4.05v40.395a.84.84 0 0 0 .4.047zm0 48.593h72.07a.84.84 0 0 0 .4-.05v-40.4c0-.028-.178-.05-.4-.05H-19.6c-.22 0-.4.023-.4.05v40.392a.84.84 0 0 0 .4.047z"/><use xlink:href="#AD"/><path d="M-19.6 339.227h72.07a.84.84 0 0 0 .4-.05v-40.392c0-.028-.178-.05-.4-.05H-19.6c-.22 0-.4.023-.4.05v40.392c.127.05.265.066.4.05zm0 48.593h72.07a.84.84 0 0 0 .4-.05v-40.392c0-.028-.178-.05-.4-.05H-19.6c-.22 0-.4.023-.4.05v40.392c.127.05.265.066.4.05z"/></g><g fill="#3c3c3c"><path d="M61.36-49.507h72.07c.22 0 .4-.023.4-.05V-89.95c-.127-.05-.265-.066-.4-.05H61.36a.84.84 0 0 0-.4.05v40.392c.002.03.18.05.4.05zm0 48.592h72.07c.22 0 .4-.023.4-.05v-40.392c-.127-.05-.265-.066-.4-.05H61.36a.84.84 0 0 0-.4.05v40.39c.002.028.18.05.4.05zm0 48.592h72.07c.22 0 .4-.023.4-.05V7.234c-.127-.05-.265-.066-.4-.05H61.36a.84.84 0 0 0-.4.05v40.392c.002.028.18.05.4.05zm0 48.59h72.07c.22 0 .4-.023.4-.05V55.825c-.127-.05-.265-.066-.4-.05H61.36a.84.84 0 0 0-.4.05v40.392c.002.028.18.05.4.05zm0 48.592h72.07c.22 0 .4-.023.4-.05v-40.392c-.127-.05-.265-.066-.4-.05H61.36a.84.84 0 0 0-.4.05v40.387c.002.033.18.056.4.056zm0 48.6h72.07a.84.84 0 0 0 .4-.05V153c0-.028-.178-.05-.4-.05H61.36c-.22 0-.4.023-.4.05v40.395a.84.84 0 0 0 .4.047zm0 48.593h72.07a.84.84 0 0 0 .4-.05v-40.4c0-.028-.178-.05-.4-.05H61.36c-.22 0-.4.023-.4.05v40.392a.84.84 0 0 0 .4.047z"/><use xlink:href="#AE"/><path d="M61.36 339.227h72.07a.84.84 0 0 0 .4-.05v-40.392c0-.028-.178-.05-.4-.05H61.36c-.22 0-.4.023-.4.05v40.392c.127.05.265.066.4.05zm0 48.593h72.07a.84.84 0 0 0 .4-.05v-40.392c0-.028-.178-.05-.4-.05H61.36c-.22 0-.4.023-.4.05v40.392c.127.05.265.066.4.05zm0 48.584h72.07a.84.84 0 0 0 .4-.05v-40.392c0-.028-.178-.05-.4-.05H61.36c-.22 0-.4.023-.4.05v40.392c.127.05.265.066.4.05z"/></g><g fill="#595959"><path d="M142.323-49.507h72.07c.22 0 .4-.023.4-.05V-89.95c-.127-.05-.265-.066-.4-.05h-72.07a.84.84 0 0 0-.4.05v40.392c.002.03.18.05.4.05zm0 48.592h72.07c.22 0 .4-.023.4-.05v-40.392c-.127-.05-.265-.066-.4-.05h-72.07a.84.84 0 0 0-.4.05v40.39c.002.028.18.05.4.05zm0 48.592h72.07c.22 0 .4-.023.4-.05V7.234c-.127-.05-.265-.066-.4-.05h-72.07a.84.84 0 0 0-.4.05v40.392c.002.028.18.05.4.05zm0 48.59h72.07c.22 0 .4-.023.4-.05V55.825c-.127-.05-.265-.066-.4-.05h-72.07a.84.84 0 0 0-.4.05v40.392c.002.028.18.05.4.05zm0 48.592h72.07c.22 0 .4-.023.4-.05v-40.392c-.127-.05-.265-.066-.4-.05h-72.07a.84.84 0 0 0-.4.05v40.387c.002.033.18.056.4.056zm0 48.6h72.07a.84.84 0 0 0 .4-.05V153c0-.028-.178-.05-.4-.05h-72.07c-.22 0-.4.023-.4.05v40.395a.84.84 0 0 0 .4.047zm0 48.593h72.07a.84.84 0 0 0 .4-.05v-40.4c0-.028-.178-.05-.4-.05h-72.07c-.22 0-.4.023-.4.05v40.392a.84.84 0 0 0 .4.047zm0 48.593h72.07a.84.84 0 0 0 .4-.05v-40.392c0-.028-.178-.05-.4-.05h-72.07c-.22 0-.4.023-.4.05v40.392c.127.05.265.066.4.05zm0 48.59h72.07a.84.84 0 0 0 .4-.05v-40.392c0-.028-.178-.05-.4-.05h-72.07c-.22 0-.4.023-.4.05v40.392c.127.05.265.066.4.05z"/></g><g fill="#909090"><path d="M223.286-49.507h72.07c.22 0 .4-.023.4-.05V-89.95c-.127-.05-.265-.066-.4-.05h-72.07a.84.84 0 0 0-.4.05v40.392c.001.03.18.05.4.05zm0 48.592h72.07c.22 0 .4-.023.4-.05v-40.392c-.127-.05-.265-.066-.4-.05h-72.07a.84.84 0 0 0-.4.05v40.39c.001.028.18.05.4.05zm0 48.592h72.07c.22 0 .4-.023.4-.05V7.234c-.127-.05-.265-.066-.4-.05h-72.07a.84.84 0 0 0-.4.05v40.392c.001.028.18.05.4.05zm0 48.59h72.07c.22 0 .4-.023.4-.05V55.825c-.127-.05-.265-.066-.4-.05h-72.07a.84.84 0 0 0-.4.05v40.392c.001.028.18.05.4.05zm0 48.592h72.07c.22 0 .4-.023.4-.05v-40.392c-.127-.05-.265-.066-.4-.05h-72.07a.84.84 0 0 0-.4.05v40.387c.001.033.18.056.4.056zm0 48.6h72.07a.84.84 0 0 0 .4-.05V153c0-.028-.178-.05-.4-.05h-72.07c-.22 0-.4.023-.4.05v40.395a.84.84 0 0 0 .4.047zm0 48.593h72.07a.84.84 0 0 0 .4-.05v-40.4c0-.028-.178-.05-.4-.05h-72.07c-.22 0-.4.023-.4.05v40.392a.84.84 0 0 0 .4.047zm0 48.593h72.07a.84.84 0 0 0 .4-.05v-40.392c0-.028-.178-.05-.4-.05h-72.07c-.22 0-.4.023-.4.05v40.392c.127.05.265.066.4.05z"/></g><g fill="#8f8f8f"><path d="M304.248-49.507h72.07c.22 0 .4-.023.4-.05V-89.95c-.127-.05-.265-.066-.4-.05h-72.07a.84.84 0 0 0-.4.05v40.392c0 .03.18.05.4.05zm0 48.592h72.07c.22 0 .4-.023.4-.05v-40.392c-.127-.05-.265-.066-.4-.05h-72.07a.84.84 0 0 0-.4.05v40.39c0 .028.18.05.4.05zm0 48.592h72.07c.22 0 .4-.023.4-.05V7.234c-.127-.05-.265-.066-.4-.05h-72.07a.84.84 0 0 0-.4.05v40.392c0 .028.18.05.4.05zm0 48.59h72.07c.22 0 .4-.023.4-.05V55.825c-.127-.05-.265-.066-.4-.05h-72.07a.84.84 0 0 0-.4.05v40.392c0 .028.18.05.4.05zm0 48.592h72.07c.22 0 .4-.023.4-.05v-40.392c-.127-.05-.265-.066-.4-.05h-72.07a.84.84 0 0 0-.4.05v40.387c0 .033.18.056.4.056zm0 48.6h72.07a.84.84 0 0 0 .4-.05V153c0-.028-.178-.05-.4-.05h-72.07c-.22 0-.4.023-.4.05v40.395a.84.84 0 0 0 .4.047zm0 48.593h72.07a.84.84 0 0 0 .4-.05v-40.4c0-.028-.178-.05-.4-.05h-72.07c-.22 0-.4.023-.4.05v40.392a.84.84 0 0 0 .4.047zm0 48.593h72.07a.84.84 0 0 0 .4-.05v-40.392c0-.028-.178-.05-.4-.05h-72.07c-.22 0-.4.023-.4.05v40.392c.127.05.265.066.4.05zm0 48.59h72.07a.84.84 0 0 0 .4-.05v-40.392c0-.028-.178-.05-.4-.05h-72.07c-.22 0-.4.023-.4.05v40.392c.127.05.265.066.4.05zm0 48.593h72.07a.84.84 0 0 0 .4-.05v-40.392c0-.028-.178-.05-.4-.05h-72.07c-.22 0-.4.023-.4.05v40.392c.127.05.265.066.4.05z"/></g><g fill="#3a3a3a"><path d="M385.2-49.507h72.07c.22 0 .4-.023.4-.05V-89.95c-.127-.05-.265-.066-.4-.05H385.2a.84.84 0 0 0-.4.05v40.392c.002.03.18.05.4.05zm0 48.592h72.07c.22 0 .4-.023.4-.05v-40.392c-.127-.05-.265-.066-.4-.05H385.2a.84.84 0 0 0-.4.05v40.39c.002.028.18.05.4.05zm0 48.592h72.07c.22 0 .4-.023.4-.05V7.234c-.127-.05-.265-.066-.4-.05H385.2a.84.84 0 0 0-.4.05v40.392c.002.028.18.05.4.05zm0 48.59h72.07c.22 0 .4-.023.4-.05V55.825c-.127-.05-.265-.066-.4-.05H385.2a.84.84 0 0 0-.4.05v40.392c.002.028.18.05.4.05zm0 48.592h72.07c.22 0 .4-.023.4-.05v-40.392c-.127-.05-.265-.066-.4-.05H385.2a.84.84 0 0 0-.4.05v40.387c.002.033.18.056.4.056zm0 48.6h72.07a.84.84 0 0 0 .4-.05V153c0-.028-.178-.05-.4-.05H385.2c-.22 0-.4.023-.4.05v40.395a.84.84 0 0 0 .4.047zm0 48.593h72.07a.84.84 0 0 0 .4-.05v-40.4c0-.028-.178-.05-.4-.05H385.2c-.22 0-.4.023-.4.05v40.392a.84.84 0 0 0 .4.047z"/><use xlink:href="#AF"/><path d="M385.2 339.227h72.07c.135.016.273-.001.4-.05v-40.392c0-.028-.178-.05-.4-.05H385.2c-.22 0-.4.023-.4.05v40.392c.127.05.265.066.4.05z"/></g><g fill="#6a6a6a"><path d="M466.173-49.507h72.07c.22 0 .4-.023.4-.05V-89.95c-.127-.05-.265-.066-.4-.05h-72.07a.84.84 0 0 0-.4.05v40.392c.001.03.176.05.4.05zm0 48.592h72.07c.22 0 .4-.023.4-.05v-40.392c-.127-.05-.265-.066-.4-.05h-72.07a.84.84 0 0 0-.4.05v40.39c.001.028.176.05.4.05zm0 48.592h72.07c.22 0 .4-.023.4-.05V7.234c-.127-.05-.265-.066-.4-.05h-72.07a.84.84 0 0 0-.4.05v40.392c.001.028.176.05.4.05zm0 48.59h72.07c.22 0 .4-.023.4-.05V55.825c-.127-.05-.265-.066-.4-.05h-72.07a.84.84 0 0 0-.4.05v40.392c.001.028.176.05.4.05zm0 48.592h72.07c.22 0 .4-.023.4-.05v-40.392c-.127-.05-.265-.066-.4-.05h-72.07a.84.84 0 0 0-.4.05v40.387c.001.033.176.056.4.056zm0 48.6h72.07a.84.84 0 0 0 .4-.05V153c0-.028-.178-.05-.4-.05h-72.07c-.22 0-.4.023-.4.05v40.395a.84.84 0 0 0 .4.047zm0 48.593h72.07a.84.84 0 0 0 .4-.05v-40.4c0-.028-.178-.05-.4-.05h-72.07c-.22 0-.4.023-.4.05v40.392a.84.84 0 0 0 .4.047zm0 48.593h72.07a.84.84 0 0 0 .4-.05v-40.392c0-.028-.178-.05-.4-.05h-72.07c-.22 0-.4.023-.4.05v40.392c.127.05.265.066.4.05zm80.962-340.143h72.07c.22 0 .4-.023.4-.05V-89.95c-.127-.05-.265-.066-.4-.05h-72.07a.84.84 0 0 0-.4.05v40.392c.002.03.18.05.4.05zm0 48.592h72.07c.22 0 .4-.023.4-.05v-40.392c-.127-.05-.265-.066-.4-.05h-72.07a.84.84 0 0 0-.4.05v40.39c.002.028.18.05.4.05zm0 48.592h72.07c.22 0 .4-.023.4-.05V7.234c-.127-.05-.265-.066-.4-.05h-72.07a.84.84 0 0 0-.4.05v40.392c.002.028.18.05.4.05zm0 48.59h72.07c.22 0 .4-.023.4-.05V55.825c-.127-.05-.265-.066-.4-.05h-72.07a.84.84 0 0 0-.4.05v40.392c.002.028.18.05.4.05zm0 48.592h72.07c.22 0 .4-.023.4-.05v-40.392c-.127-.05-.265-.066-.4-.05h-72.07a.84.84 0 0 0-.4.05v40.387c.002.033.18.056.4.056zm0 48.6h72.07a.84.84 0 0 0 .4-.05V153c0-.028-.178-.05-.4-.05h-72.07c-.22 0-.4.023-.4.05v40.395a.84.84 0 0 0 .4.047zm0 48.593h72.07a.84.84 0 0 0 .4-.05v-40.4c0-.028-.178-.05-.4-.05h-72.07c-.22 0-.4.023-.4.05v40.392a.84.84 0 0 0 .4.047zm0 48.593h72.07a.84.84 0 0 0 .4-.05v-40.392c0-.028-.178-.05-.4-.05h-72.07c-.22 0-.4.023-.4.05v40.392c.127.05.265.066.4.05zm0 48.59h72.07a.84.84 0 0 0 .4-.05v-40.392c0-.028-.178-.05-.4-.05h-72.07c-.22 0-.4.023-.4.05v40.392c.127.05.265.066.4.05z"/></g><g fill="#9c9c9c"><path d="M628.097-49.507h72.07c.22 0 .4-.023.4-.05V-89.95c-.127-.05-.265-.066-.4-.05h-72.07a.84.84 0 0 0-.4.05v40.392c.002.03.18.05.4.05zm0 48.592h72.07c.22 0 .4-.023.4-.05v-40.392c-.127-.05-.265-.066-.4-.05h-72.07a.84.84 0 0 0-.4.05v40.39c.002.028.18.05.4.05zm0 48.592h72.07c.22 0 .4-.023.4-.05V7.234c-.127-.05-.265-.066-.4-.05h-72.07a.84.84 0 0 0-.4.05v40.392c.002.028.18.05.4.05zm0 48.59h72.07c.22 0 .4-.023.4-.05V55.825c-.127-.05-.265-.066-.4-.05h-72.07a.84.84 0 0 0-.4.05v40.392c.002.028.18.05.4.05zm0 48.592h72.07c.22 0 .4-.023.4-.05v-40.392c-.127-.05-.265-.066-.4-.05h-72.07a.84.84 0 0 0-.4.05v40.387c.002.033.18.056.4.056zm0 48.6h72.07a.84.84 0 0 0 .4-.05V153c0-.028-.178-.05-.4-.05h-72.07c-.22 0-.4.023-.4.05v40.395a.84.84 0 0 0 .4.047zm0 48.593h72.07a.84.84 0 0 0 .4-.05v-40.4c0-.028-.178-.05-.4-.05h-72.07c-.22 0-.4.023-.4.05v40.392a.84.84 0 0 0 .4.047zm0 48.593h72.07a.84.84 0 0 0 .4-.05v-40.392c0-.028-.178-.05-.4-.05h-72.07c-.22 0-.4.023-.4.05v40.392c.127.05.265.066.4.05zm0 48.59h72.07a.84.84 0 0 0 .4-.05v-40.392c0-.028-.178-.05-.4-.05h-72.07c-.22 0-.4.023-.4.05v40.392c.127.05.265.066.4.05zm0 48.593h72.07a.84.84 0 0 0 .4-.05v-40.392c0-.028-.178-.05-.4-.05h-72.07c-.22 0-.4.023-.4.05v40.392c.127.05.265.066.4.05z"/></g><g fill="#898989"><path d="M709.06-49.507h72.07c.22 0 .4-.023.4-.05V-89.95c-.127-.05-.265-.066-.4-.05h-72.07a.84.84 0 0 0-.4.05v40.392c.001.03.18.05.4.05zm0 48.592h72.07c.22 0 .4-.023.4-.05v-40.392c-.127-.05-.265-.066-.4-.05h-72.07a.84.84 0 0 0-.4.05v40.39c.001.028.18.05.4.05zm0 48.592h72.07c.22 0 .4-.023.4-.05V7.234c-.127-.05-.265-.066-.4-.05h-72.07a.84.84 0 0 0-.4.05v40.392c.001.028.18.05.4.05zm0 48.59h72.07c.22 0 .4-.023.4-.05V55.825c-.127-.05-.265-.066-.4-.05h-72.07a.84.84 0 0 0-.4.05v40.392c.001.028.18.05.4.05zm0 48.592h72.07c.22 0 .4-.023.4-.05v-40.392c-.127-.05-.265-.066-.4-.05h-72.07a.84.84 0 0 0-.4.05v40.387c.001.033.18.056.4.056zm0 48.6h72.07a.84.84 0 0 0 .4-.05V153c0-.028-.178-.05-.4-.05h-72.07c-.22 0-.4.023-.4.05v40.395a.84.84 0 0 0 .4.047zm0 48.593h72.07a.84.84 0 0 0 .4-.05v-40.4c0-.028-.178-.05-.4-.05h-72.07c-.22 0-.4.023-.4.05v40.392a.84.84 0 0 0 .4.047zm0 48.593h72.07a.84.84 0 0 0 .4-.05v-40.392c0-.028-.178-.05-.4-.05h-72.07c-.22 0-.4.023-.4.05v40.392c.127.05.265.066.4.05zm0 48.59h72.07a.84.84 0 0 0 .4-.05v-40.392c0-.028-.178-.05-.4-.05h-72.07c-.22 0-.4.023-.4.05v40.392c.127.05.265.066.4.05zm0 48.593h72.07a.84.84 0 0 0 .4-.05v-40.392c0-.028-.178-.05-.4-.05h-72.07c-.22 0-.4.023-.4.05v40.392c.127.05.265.066.4.05zm0 48.584h72.07a.84.84 0 0 0 .4-.05v-40.392c0-.028-.178-.05-.4-.05h-72.07c-.22 0-.4.023-.4.05v40.392c.127.05.265.066.4.05zm0 48.6h72.07a.84.84 0 0 0 .4-.05v-40.392c0-.028-.178-.05-.4-.05h-72.07c-.22 0-.4.023-.4.05v40.392c.127.05.265.066.4.05z"/></g><g fill="#e3e3e3"><path d="M790.02-49.507h72.07c.22 0 .4-.023.4-.05V-89.95c-.127-.05-.265-.066-.4-.05h-72.07a.84.84 0 0 0-.4.05v40.392c.002.03.18.05.4.05zm0 48.592h72.07c.22 0 .4-.023.4-.05v-40.392c-.127-.05-.265-.066-.4-.05h-72.07a.84.84 0 0 0-.4.05v40.39c.002.028.18.05.4.05zm0 48.592h72.07c.22 0 .4-.023.4-.05V7.234c-.127-.05-.265-.066-.4-.05h-72.07a.84.84 0 0 0-.4.05v40.392c.002.028.18.05.4.05zm0 48.59h72.07c.22 0 .4-.023.4-.05V55.825c-.127-.05-.265-.066-.4-.05h-72.07a.84.84 0 0 0-.4.05v40.392c.002.028.18.05.4.05zm0 48.592h72.07c.22 0 .4-.023.4-.05v-40.392c-.127-.05-.265-.066-.4-.05h-72.07a.84.84 0 0 0-.4.05v40.387c.002.033.18.056.4.056zm0 48.6h72.07a.84.84 0 0 0 .4-.05V153c0-.028-.178-.05-.4-.05h-72.07c-.22 0-.4.023-.4.05v40.395a.84.84 0 0 0 .4.047zm0 48.593h72.07a.84.84 0 0 0 .4-.05v-40.4c0-.028-.178-.05-.4-.05h-72.07c-.22 0-.4.023-.4.05v40.392a.84.84 0 0 0 .4.047zm0 48.593h72.07a.84.84 0 0 0 .4-.05v-40.392c0-.028-.178-.05-.4-.05h-72.07c-.22 0-.4.023-.4.05v40.392c.127.05.265.066.4.05zm0 48.59h72.07a.84.84 0 0 0 .4-.05v-40.392c0-.028-.178-.05-.4-.05h-72.07c-.22 0-.4.023-.4.05v40.392c.127.05.265.066.4.05zm0 48.593h72.07a.84.84 0 0 0 .4-.05v-40.392c0-.028-.178-.05-.4-.05h-72.07c-.22 0-.4.023-.4.05v40.392c.127.05.265.066.4.05z"/></g><g fill="#cecece"><path d="M870.985-49.507h72.064c.22 0 .4-.023.4-.05V-89.95c-.127-.05-.265-.066-.4-.05h-72.07a.84.84 0 0 0-.4.05v40.392c.006.03.184.05.405.05zm0 48.592h72.064c.22 0 .4-.023.4-.05v-40.392c-.127-.05-.265-.066-.4-.05h-72.07a.84.84 0 0 0-.4.05v40.39c.006.028.184.05.405.05zm0 48.592h72.064c.22 0 .4-.023.4-.05V7.234c-.127-.05-.265-.066-.4-.05h-72.07a.84.84 0 0 0-.4.05v40.392c.006.028.184.05.405.05zm0 48.59h72.064c.22 0 .4-.023.4-.05V55.825c-.127-.05-.265-.066-.4-.05h-72.07a.84.84 0 0 0-.4.05v40.392c.006.028.184.05.405.05zm0 48.592h72.064c.22 0 .4-.023.4-.05v-40.392c-.127-.05-.265-.066-.4-.05h-72.07a.84.84 0 0 0-.4.05v40.387c.006.033.184.056.405.056zm0 48.6h72.064a.84.84 0 0 0 .4-.05V153c0-.028-.178-.05-.4-.05h-72.07c-.22 0-.4.023-.4.05v40.395c.13.05.268.065.405.047zm0 48.593h72.064a.84.84 0 0 0 .4-.05v-40.4c0-.028-.178-.05-.4-.05h-72.07c-.22 0-.4.023-.4.05v40.392c.13.05.268.065.405.047zm0 48.593h72.064a.84.84 0 0 0 .4-.05v-40.392c0-.028-.178-.05-.4-.05h-72.07c-.22 0-.4.023-.4.05v40.392c.13.05.268.067.405.05zm0 48.59h72.064a.84.84 0 0 0 .4-.05v-40.392c0-.028-.178-.05-.4-.05h-72.07c-.22 0-.4.023-.4.05v40.392c.13.05.268.067.405.05zm0 48.593h72.064a.84.84 0 0 0 .4-.05v-40.392c0-.028-.178-.05-.4-.05h-72.07c-.22 0-.4.023-.4.05v40.392c.13.05.268.067.405.05zm0 48.584h72.064a.84.84 0 0 0 .4-.05v-40.392c0-.028-.178-.05-.4-.05h-72.07c-.22 0-.4.023-.4.05v40.392c.13.05.268.067.405.05z"/></g><g fill="#dadada"><path d="M951.95-49.507h72.07c.22 0 .4-.023.4-.05V-89.95c-.127-.05-.265-.066-.4-.05h-72.07a.84.84 0 0 0-.4.05v40.392c0 .03.178.05.4.05zm0 48.592h72.07c.22 0 .4-.023.4-.05v-40.392c-.127-.05-.265-.066-.4-.05h-72.07a.84.84 0 0 0-.4.05v40.39c0 .028.178.05.4.05zm0 48.592h72.07c.22 0 .4-.023.4-.05V7.234c-.127-.05-.265-.066-.4-.05h-72.07a.84.84 0 0 0-.4.05v40.392c0 .028.178.05.4.05zm0 48.59h72.07c.22 0 .4-.023.4-.05V55.825c-.127-.05-.265-.066-.4-.05h-72.07a.84.84 0 0 0-.4.05v40.392c0 .028.178.05.4.05zm0 48.592h72.07c.22 0 .4-.023.4-.05v-40.392c-.127-.05-.265-.066-.4-.05h-72.07a.84.84 0 0 0-.4.05v40.387c0 .033.178.056.4.056zm0 48.6h72.07a.84.84 0 0 0 .4-.05V153c0-.028-.178-.05-.4-.05h-72.07c-.22 0-.4.023-.4.05v40.395a.84.84 0 0 0 .4.047zm0 48.593h72.07a.84.84 0 0 0 .4-.05v-40.4c0-.028-.178-.05-.4-.05h-72.07c-.22 0-.4.023-.4.05v40.392a.84.84 0 0 0 .4.047zm0 48.593h72.07a.84.84 0 0 0 .4-.05v-40.392c0-.028-.178-.05-.4-.05h-72.07c-.22 0-.4.023-.4.05v40.392c.127.05.265.066.4.05z"/></g><g fill="#b4b4b4"><path d="M1032.908-49.507h72.07c.22 0 .4-.023.4-.05V-89.95c-.127-.05-.265-.066-.4-.05h-72.07a.84.84 0 0 0-.4.05v40.392c.002.03.18.05.4.05zm0 48.592h72.07c.22 0 .4-.023.4-.05v-40.392c-.127-.05-.265-.066-.4-.05h-72.07a.84.84 0 0 0-.4.05v40.39c.002.028.18.05.4.05zm0 48.592h72.07c.22 0 .4-.023.4-.05V7.234c-.127-.05-.265-.066-.4-.05h-72.07a.84.84 0 0 0-.4.05v40.392c.002.028.18.05.4.05zm0 48.59h72.07c.22 0 .4-.023.4-.05V55.825c-.127-.05-.265-.066-.4-.05h-72.07a.84.84 0 0 0-.4.05v40.392c.002.028.18.05.4.05zm0 48.592h72.07c.22 0 .4-.023.4-.05v-40.392c-.127-.05-.265-.066-.4-.05h-72.07a.84.84 0 0 0-.4.05v40.387c.002.033.18.056.4.056zm0 48.6h72.07a.84.84 0 0 0 .4-.05V153c0-.028-.178-.05-.4-.05h-72.07c-.22 0-.4.023-.4.05v40.395a.84.84 0 0 0 .4.047zm0 48.593h72.07a.84.84 0 0 0 .4-.05v-40.4c0-.028-.178-.05-.4-.05h-72.07c-.22 0-.4.023-.4.05v40.392a.84.84 0 0 0 .4.047zm0 48.593h72.07a.84.84 0 0 0 .4-.05v-40.392c0-.028-.178-.05-.4-.05h-72.07c-.22 0-.4.023-.4.05v40.392c.127.05.265.066.4.05zm0 48.59h72.07a.84.84 0 0 0 .4-.05v-40.392c0-.028-.178-.05-.4-.05h-72.07c-.22 0-.4.023-.4.05v40.392c.127.05.265.066.4.05zm0 48.593h72.07a.84.84 0 0 0 .4-.05v-40.392c0-.028-.178-.05-.4-.05h-72.07c-.22 0-.4.023-.4.05v40.392c.127.05.265.066.4.05z"/></g><g fill="#d1d1d1"><path d="M1113.872-49.507h72.07c.22 0 .4-.023.4-.05V-89.95c-.127-.05-.265-.066-.4-.05h-72.07a.84.84 0 0 0-.4.05v40.392c.001.03.177.05.4.05zm0 48.592h72.07c.22 0 .4-.023.4-.05v-40.392c-.127-.05-.265-.066-.4-.05h-72.07a.84.84 0 0 0-.4.05v40.39c.001.028.177.05.4.05zm0 48.592h72.07c.22 0 .4-.023.4-.05V7.234c-.127-.05-.265-.066-.4-.05h-72.07a.84.84 0 0 0-.4.05v40.392c.001.028.177.05.4.05zm0 48.59h72.07c.22 0 .4-.023.4-.05V55.825c-.127-.05-.265-.066-.4-.05h-72.07a.84.84 0 0 0-.4.05v40.392c.001.028.177.05.4.05zm0 48.592h72.07c.22 0 .4-.023.4-.05v-40.392c-.127-.05-.265-.066-.4-.05h-72.07a.84.84 0 0 0-.4.05v40.387c.001.033.177.056.4.056zm0 48.6h72.07a.84.84 0 0 0 .4-.05V153c0-.028-.178-.05-.4-.05h-72.07c-.22 0-.4.023-.4.05v40.395a.84.84 0 0 0 .4.047zm0 48.593h72.07a.84.84 0 0 0 .4-.05v-40.4c0-.028-.178-.05-.4-.05h-72.07c-.22 0-.4.023-.4.05v40.392a.84.84 0 0 0 .4.047zm0 48.593h72.07a.84.84 0 0 0 .4-.05v-40.392c0-.028-.178-.05-.4-.05h-72.07c-.22 0-.4.023-.4.05v40.392c.127.05.265.066.4.05zm0 48.59h72.07a.84.84 0 0 0 .4-.05v-40.392c0-.028-.178-.05-.4-.05h-72.07c-.22 0-.4.023-.4.05v40.392c.127.05.265.066.4.05zm0 48.593h72.07a.84.84 0 0 0 .4-.05v-40.392c0-.028-.178-.05-.4-.05h-72.07c-.22 0-.4.023-.4.05v40.392c.127.05.265.066.4.05zm0 48.584h72.07a.84.84 0 0 0 .4-.05v-40.392c0-.028-.178-.05-.4-.05h-72.07c-.22 0-.4.023-.4.05v40.392c.127.05.265.066.4.05zm0 48.6h72.07a.84.84 0 0 0 .4-.05v-40.392c0-.028-.178-.05-.4-.05h-72.07c-.22 0-.4.023-.4.05v40.392c.127.05.265.066.4.05z"/></g><g fill="#767676"><path d="M1194.833-49.507h72.07c.22 0 .4-.023.4-.05V-89.95c-.127-.05-.265-.066-.4-.05h-72.07a.84.84 0 0 0-.4.05v40.392c.002.03.18.05.4.05zm0 48.592h72.07c.22 0 .4-.023.4-.05v-40.392c-.127-.05-.265-.066-.4-.05h-72.07a.84.84 0 0 0-.4.05v40.39c.002.028.18.05.4.05zm0 48.592h72.07c.22 0 .4-.023.4-.05V7.234c-.127-.05-.265-.066-.4-.05h-72.07a.84.84 0 0 0-.4.05v40.392c.002.028.18.05.4.05zm0 48.59h72.07c.22 0 .4-.023.4-.05V55.825c-.127-.05-.265-.066-.4-.05h-72.07a.84.84 0 0 0-.4.05v40.392c.002.028.18.05.4.05zm0 48.592h72.07c.22 0 .4-.023.4-.05v-40.392c-.127-.05-.265-.066-.4-.05h-72.07a.84.84 0 0 0-.4.05v40.387c.002.033.18.056.4.056zm0 48.6h72.07a.84.84 0 0 0 .4-.05V153c0-.028-.178-.05-.4-.05h-72.07c-.22 0-.4.023-.4.05v40.395a.84.84 0 0 0 .4.047zm0 48.593h72.07a.84.84 0 0 0 .4-.05v-40.4c0-.028-.178-.05-.4-.05h-72.07c-.22 0-.4.023-.4.05v40.392a.84.84 0 0 0 .4.047zm0 48.593h72.07a.84.84 0 0 0 .4-.05v-40.392c0-.028-.178-.05-.4-.05h-72.07c-.22 0-.4.023-.4.05v40.392c.127.05.265.066.4.05zm0 48.59h72.07a.84.84 0 0 0 .4-.05v-40.392c0-.028-.178-.05-.4-.05h-72.07c-.22 0-.4.023-.4.05v40.392c.127.05.265.066.4.05z"/></g><g fill="#656565"><path d="M1275.795-49.507h72.07c.22 0 .4-.023.4-.05V-89.95c-.127-.05-.265-.066-.4-.05h-72.07a.84.84 0 0 0-.4.05v40.392c.002.03.18.05.4.05zm0 48.592h72.07c.22 0 .4-.023.4-.05v-40.392c-.127-.05-.265-.066-.4-.05h-72.07a.84.84 0 0 0-.4.05v40.39c.002.028.18.05.4.05zm0 48.592h72.07c.22 0 .4-.023.4-.05V7.234c-.127-.05-.265-.066-.4-.05h-72.07a.84.84 0 0 0-.4.05v40.392c.002.028.18.05.4.05zm0 48.59h72.07c.22 0 .4-.023.4-.05V55.825c-.127-.05-.265-.066-.4-.05h-72.07a.84.84 0 0 0-.4.05v40.392c.002.028.18.05.4.05zm0 48.592h72.07c.22 0 .4-.023.4-.05v-40.392c-.127-.05-.265-.066-.4-.05h-72.07a.84.84 0 0 0-.4.05v40.387c.002.033.18.056.4.056zm0 48.6h72.07a.84.84 0 0 0 .4-.05V153c0-.028-.178-.05-.4-.05h-72.07c-.22 0-.4.023-.4.05v40.395a.84.84 0 0 0 .4.047zm0 48.593h72.07a.84.84 0 0 0 .4-.05v-40.4c0-.028-.178-.05-.4-.05h-72.07c-.22 0-.4.023-.4.05v40.392a.84.84 0 0 0 .4.047zm0 48.593h72.07a.84.84 0 0 0 .4-.05v-40.392c0-.028-.178-.05-.4-.05h-72.07c-.22 0-.4.023-.4.05v40.392c.127.05.265.066.4.05zm0 48.59h72.07a.84.84 0 0 0 .4-.05v-40.392c0-.028-.178-.05-.4-.05h-72.07c-.22 0-.4.023-.4.05v40.392c.127.05.265.066.4.05zm0 48.593h72.07a.84.84 0 0 0 .4-.05v-40.392c0-.028-.178-.05-.4-.05h-72.07c-.22 0-.4.023-.4.05v40.392c.127.05.265.066.4.05z"/></g><g fill="#868686"><path d="M1356.76-49.507h72.07c.22 0 .4-.023.4-.05V-89.95c-.127-.05-.265-.066-.4-.05h-72.07a.84.84 0 0 0-.4.05v40.392c.001.03.18.05.4.05zm0 48.592h72.07c.22 0 .4-.023.4-.05v-40.392c-.127-.05-.265-.066-.4-.05h-72.07a.84.84 0 0 0-.4.05v40.39c.001.028.18.05.4.05zm0 48.592h72.07c.22 0 .4-.023.4-.05V7.234c-.127-.05-.265-.066-.4-.05h-72.07a.84.84 0 0 0-.4.05v40.392c.001.028.18.05.4.05zm0 48.59h72.07c.22 0 .4-.023.4-.05V55.825c-.127-.05-.265-.066-.4-.05h-72.07a.84.84 0 0 0-.4.05v40.392c.001.028.18.05.4.05zm0 48.592h72.07c.22 0 .4-.023.4-.05v-40.392c-.127-.05-.265-.066-.4-.05h-72.07a.84.84 0 0 0-.4.05v40.387c.001.033.18.056.4.056zm0 48.6h72.07a.84.84 0 0 0 .4-.05V153c0-.028-.178-.05-.4-.05h-72.07c-.22 0-.4.023-.4.05v40.395a.84.84 0 0 0 .4.047zm0 48.593h72.07a.84.84 0 0 0 .4-.05v-40.4c0-.028-.178-.05-.4-.05h-72.07c-.22 0-.4.023-.4.05v40.392a.84.84 0 0 0 .4.047zm0 48.593h72.07a.84.84 0 0 0 .4-.05v-40.392c0-.028-.178-.05-.4-.05h-72.07c-.22 0-.4.023-.4.05v40.392c.127.05.265.066.4.05zm0 48.59h72.07a.84.84 0 0 0 .4-.05v-40.392c0-.028-.178-.05-.4-.05h-72.07c-.22 0-.4.023-.4.05v40.392c.127.05.265.066.4.05zm0 48.593h72.07a.84.84 0 0 0 .4-.05v-40.392c0-.028-.178-.05-.4-.05h-72.07c-.22 0-.4.023-.4.05v40.392c.127.05.265.066.4.05zm0 48.584h72.07a.84.84 0 0 0 .4-.05v-40.392c0-.028-.178-.05-.4-.05h-72.07c-.22 0-.4.023-.4.05v40.392c.127.05.265.066.4.05zm0 48.6h72.07a.84.84 0 0 0 .4-.05v-40.392c0-.028-.178-.05-.4-.05h-72.07c-.22 0-.4.023-.4.05v40.392c.127.05.265.066.4.05z"/></g><g fill="#a2a2a2"><path d="M1437.72-49.507h72.07c.22 0 .4-.023.4-.05V-89.95c-.127-.05-.265-.066-.4-.05h-72.07a.84.84 0 0 0-.4.05v40.392c.002.03.18.05.4.05zm0 48.592h72.07c.22 0 .4-.023.4-.05v-40.392c-.127-.05-.265-.066-.4-.05h-72.07a.84.84 0 0 0-.4.05v40.39c.002.028.18.05.4.05zm0 48.592h72.07c.22 0 .4-.023.4-.05V7.234c-.127-.05-.265-.066-.4-.05h-72.07a.84.84 0 0 0-.4.05v40.392c.002.028.18.05.4.05zm0 48.59h72.07c.22 0 .4-.023.4-.05V55.825c-.127-.05-.265-.066-.4-.05h-72.07a.84.84 0 0 0-.4.05v40.392c.002.028.18.05.4.05zm0 48.592h72.07c.22 0 .4-.023.4-.05v-40.392c-.127-.05-.265-.066-.4-.05h-72.07a.84.84 0 0 0-.4.05v40.387c.002.033.18.056.4.056zm0 48.6h72.07a.84.84 0 0 0 .4-.05V153c0-.028-.178-.05-.4-.05h-72.07c-.22 0-.4.023-.4.05v40.395a.84.84 0 0 0 .4.047zm0 48.593h72.07a.84.84 0 0 0 .4-.05v-40.4c0-.028-.178-.05-.4-.05h-72.07c-.22 0-.4.023-.4.05v40.392a.84.84 0 0 0 .4.047zm0 48.593h72.07a.84.84 0 0 0 .4-.05v-40.392c0-.028-.178-.05-.4-.05h-72.07c-.22 0-.4.023-.4.05v40.392c.127.05.265.066.4.05zm0 48.59h72.07a.84.84 0 0 0 .4-.05v-40.392c0-.028-.178-.05-.4-.05h-72.07c-.22 0-.4.023-.4.05v40.392c.127.05.265.066.4.05zm0 48.593h72.07a.84.84 0 0 0 .4-.05v-40.392c0-.028-.178-.05-.4-.05h-72.07c-.22 0-.4.023-.4.05v40.392c.127.05.265.066.4.05zm0 48.584h72.07a.84.84 0 0 0 .4-.05v-40.392c0-.028-.178-.05-.4-.05h-72.07c-.22 0-.4.023-.4.05v40.392c.127.05.265.066.4.05z"/></g><g fill="#b2b2b2"><path d="M1518.683-49.507h72.066c.22 0 .4-.023.4-.05V-89.95c-.127-.05-.265-.066-.4-.05h-72.07a.84.84 0 0 0-.4.05v40.392c.005.03.183.05.403.05zm0 48.592h72.066c.22 0 .4-.023.4-.05v-40.392c-.127-.05-.265-.066-.4-.05h-72.07a.84.84 0 0 0-.4.05v40.39c.005.028.183.05.403.05zm0 48.592h72.066c.22 0 .4-.023.4-.05V7.234c-.127-.05-.265-.066-.4-.05h-72.07a.84.84 0 0 0-.4.05v40.392c.005.028.183.05.403.05zm0 48.59h72.066c.22 0 .4-.023.4-.05V55.825c-.127-.05-.265-.066-.4-.05h-72.07a.84.84 0 0 0-.4.05v40.392c.005.028.183.05.403.05zm0 48.592h72.066c.22 0 .4-.023.4-.05v-40.392c-.127-.05-.265-.066-.4-.05h-72.07a.84.84 0 0 0-.4.05v40.387c.005.033.183.056.403.056zm0 48.6h72.066a.84.84 0 0 0 .4-.05V153c0-.028-.178-.05-.4-.05h-72.07c-.22 0-.4.023-.4.05v40.395c.128.05.267.065.403.047zm0 48.593h72.066a.84.84 0 0 0 .4-.05v-40.4c0-.028-.178-.05-.4-.05h-72.07c-.22 0-.4.023-.4.05v40.392c.128.05.267.065.403.047zm0 48.593h72.066a.84.84 0 0 0 .4-.05v-40.392c0-.028-.178-.05-.4-.05h-72.07c-.22 0-.4.023-.4.05v40.392c.128.05.267.067.403.05zm0 48.59h72.066a.84.84 0 0 0 .4-.05v-40.392c0-.028-.178-.05-.4-.05h-72.07c-.22 0-.4.023-.4.05v40.392c.128.05.267.067.403.05zm0 48.593h72.066a.84.84 0 0 0 .4-.05v-40.392c0-.028-.178-.05-.4-.05h-72.07c-.22 0-.4.023-.4.05v40.392c.128.05.267.067.403.05z"/></g><g fill="#888"><path d="M1599.65-49.507h72.07c.22 0 .4-.023.4-.05V-89.95c-.127-.05-.265-.066-.4-.05h-72.07a.84.84 0 0 0-.4.05v40.392c0 .03.176.05.4.05zm0 48.592h72.07c.22 0 .4-.023.4-.05v-40.392c-.127-.05-.265-.066-.4-.05h-72.07a.84.84 0 0 0-.4.05v40.39c0 .028.176.05.4.05zm0 48.592h72.07c.22 0 .4-.023.4-.05V7.234c-.127-.05-.265-.066-.4-.05h-72.07a.84.84 0 0 0-.4.05v40.392c0 .028.176.05.4.05zm0 48.59h72.07c.22 0 .4-.023.4-.05V55.825c-.127-.05-.265-.066-.4-.05h-72.07a.84.84 0 0 0-.4.05v40.392c0 .028.176.05.4.05zm0 48.592h72.07c.22 0 .4-.023.4-.05v-40.392c-.127-.05-.265-.066-.4-.05h-72.07a.84.84 0 0 0-.4.05v40.387c0 .033.176.056.4.056zm0 48.6h72.07a.84.84 0 0 0 .4-.05V153c0-.028-.178-.05-.4-.05h-72.07c-.22 0-.4.023-.4.05v40.395a.84.84 0 0 0 .4.047zm0 48.593h72.07a.84.84 0 0 0 .4-.05v-40.4c0-.028-.178-.05-.4-.05h-72.07c-.22 0-.4.023-.4.05v40.392a.84.84 0 0 0 .4.047zm0 48.593h72.07a.84.84 0 0 0 .4-.05v-40.392c0-.028-.178-.05-.4-.05h-72.07c-.22 0-.4.023-.4.05v40.392c.127.05.265.066.4.05zm0 48.59h72.07a.84.84 0 0 0 .4-.05v-40.392c0-.028-.178-.05-.4-.05h-72.07c-.22 0-.4.023-.4.05v40.392c.127.05.265.066.4.05z"/></g><g fill="#5e5e5e"><path d="M1680.607-49.507h72.07c.22 0 .4-.023.4-.05V-89.95c-.127-.05-.265-.066-.4-.05h-72.07a.84.84 0 0 0-.4.05v40.392c.002.03.18.05.4.05zm0 48.592h72.07c.22 0 .4-.023.4-.05v-40.392c-.127-.05-.265-.066-.4-.05h-72.07a.84.84 0 0 0-.4.05v40.39c.002.028.18.05.4.05zm0 48.592h72.07c.22 0 .4-.023.4-.05V7.234c-.127-.05-.265-.066-.4-.05h-72.07a.84.84 0 0 0-.4.05v40.392c.002.028.18.05.4.05zm0 48.59h72.07c.22 0 .4-.023.4-.05V55.825c-.127-.05-.265-.066-.4-.05h-72.07a.84.84 0 0 0-.4.05v40.392c.002.028.18.05.4.05zm0 48.592h72.07c.22 0 .4-.023.4-.05v-40.392c-.127-.05-.265-.066-.4-.05h-72.07a.84.84 0 0 0-.4.05v40.387c.002.033.18.056.4.056zm0 48.6h72.07a.84.84 0 0 0 .4-.05V153c0-.028-.178-.05-.4-.05h-72.07c-.22 0-.4.023-.4.05v40.395a.84.84 0 0 0 .4.047zm0 48.593h72.07a.84.84 0 0 0 .4-.05v-40.4c0-.028-.178-.05-.4-.05h-72.07c-.22 0-.4.023-.4.05v40.392a.84.84 0 0 0 .4.047zm0 48.593h72.07a.84.84 0 0 0 .4-.05v-40.392c0-.028-.178-.05-.4-.05h-72.07c-.22 0-.4.023-.4.05v40.392c.127.05.265.066.4.05zm0 48.59h72.07a.84.84 0 0 0 .4-.05v-40.392c0-.028-.178-.05-.4-.05h-72.07c-.22 0-.4.023-.4.05v40.392c.127.05.265.066.4.05zm0 48.593h72.07a.84.84 0 0 0 .4-.05v-40.392c0-.028-.178-.05-.4-.05h-72.07c-.22 0-.4.023-.4.05v40.392c.127.05.265.066.4.05z"/></g><g fill="#181818"><path d="M1761.57-49.507h72.07c.22 0 .4-.023.4-.05V-89.95c-.127-.05-.265-.066-.4-.05h-72.07a.84.84 0 0 0-.4.05v40.392c.002.03.18.05.4.05zm0 48.592h72.07c.22 0 .4-.023.4-.05v-40.392c-.127-.05-.265-.066-.4-.05h-72.07a.84.84 0 0 0-.4.05v40.39c.002.028.18.05.4.05zm0 48.592h72.07c.22 0 .4-.023.4-.05V7.234c-.127-.05-.265-.066-.4-.05h-72.07a.84.84 0 0 0-.4.05v40.392c.002.028.18.05.4.05zm0 48.59h72.07c.22 0 .4-.023.4-.05V55.825c-.127-.05-.265-.066-.4-.05h-72.07a.84.84 0 0 0-.4.05v40.392c.002.028.18.05.4.05zm0 48.592h72.07c.22 0 .4-.023.4-.05v-40.392c-.127-.05-.265-.066-.4-.05h-72.07a.84.84 0 0 0-.4.05v40.387c.002.033.18.056.4.056zm0 48.6h72.07a.84.84 0 0 0 .4-.05V153c0-.028-.178-.05-.4-.05h-72.07c-.22 0-.4.023-.4.05v40.395a.84.84 0 0 0 .4.047zm0 48.593h72.07a.84.84 0 0 0 .4-.05v-40.4c0-.028-.178-.05-.4-.05h-72.07c-.22 0-.4.023-.4.05v40.392a.84.84 0 0 0 .4.047zm0 48.593h72.07a.84.84 0 0 0 .4-.05v-40.392c0-.028-.178-.05-.4-.05h-72.07c-.22 0-.4.023-.4.05v40.392c.127.05.265.066.4.05zm0 48.59h72.07a.84.84 0 0 0 .4-.05v-40.392c0-.028-.178-.05-.4-.05h-72.07c-.22 0-.4.023-.4.05v40.392c.127.05.265.066.4.05zm-3.24 48.593h72.07a.84.84 0 0 0 .4-.05v-40.392c0-.028-.178-.05-.4-.05h-72.07c-.22 0-.4.023-.4.05v40.392c.127.05.265.066.4.05zm3.24 48.584h72.07a.84.84 0 0 0 .4-.05v-40.392c0-.028-.178-.05-.4-.05h-72.07c-.22 0-.4.023-.4.05v40.392c.127.05.265.066.4.05z"/></g><g fill="#0c0c0c"><path d="M1842.533-49.507h72.07c.22 0 .4-.023.4-.05V-89.95c-.127-.05-.265-.066-.4-.05h-72.07a.84.84 0 0 0-.4.05v40.392c.001.03.18.05.4.05zm0 48.592h72.07c.22 0 .4-.023.4-.05v-40.392c-.127-.05-.265-.066-.4-.05h-72.07a.84.84 0 0 0-.4.05v40.39c.001.028.18.05.4.05zm0 48.592h72.07c.22 0 .4-.023.4-.05V7.234c-.127-.05-.265-.066-.4-.05h-72.07a.84.84 0 0 0-.4.05v40.392c.001.028.18.05.4.05zm0 48.59h72.07c.22 0 .4-.023.4-.05V55.825c-.127-.05-.265-.066-.4-.05h-72.07a.84.84 0 0 0-.4.05v40.392c.001.028.18.05.4.05zm0 48.592h72.07c.22 0 .4-.023.4-.05v-40.392c-.127-.05-.265-.066-.4-.05h-72.07a.84.84 0 0 0-.4.05v40.387c.001.033.18.056.4.056zm0 48.6h72.07a.84.84 0 0 0 .4-.05V153c0-.028-.178-.05-.4-.05h-72.07c-.22 0-.4.023-.4.05v40.395a.84.84 0 0 0 .4.047zm0 48.593h72.07a.84.84 0 0 0 .4-.05v-40.4c0-.028-.178-.05-.4-.05h-72.07c-.22 0-.4.023-.4.05v40.392a.84.84 0 0 0 .4.047zm0 48.593h72.07a.84.84 0 0 0 .4-.05v-40.392c0-.028-.178-.05-.4-.05h-72.07c-.22 0-.4.023-.4.05v40.392c.127.05.265.066.4.05zm0 48.59h72.07a.84.84 0 0 0 .4-.05v-40.392c0-.028-.178-.05-.4-.05h-72.07c-.22 0-.4.023-.4.05v40.392c.127.05.265.066.4.05zm0 48.593h72.07a.84.84 0 0 0 .4-.05v-40.392c0-.028-.178-.05-.4-.05h-72.07c-.22 0-.4.023-.4.05v40.392c.127.05.265.066.4.05zm0 48.584h72.07a.84.84 0 0 0 .4-.05v-40.392c0-.028-.178-.05-.4-.05h-72.07c-.22 0-.4.023-.4.05v40.392c.127.05.265.066.4.05zm0 48.6h72.07a.84.84 0 0 0 .4-.05v-40.392c0-.028-.178-.05-.4-.05h-72.07c-.22 0-.4.023-.4.05v40.392c.127.05.265.066.4.05z"/></g></g></svg>